G04 #@! TF.GenerationSoftware,KiCad,Pcbnew,(5.1.5)-2*
G04 #@! TF.CreationDate,2019-12-06T12:22:02+01:00*
G04 #@! TF.ProjectId,A2BFeatherWing,41324246-6561-4746-9865-7257696e672e,rev?*
G04 #@! TF.SameCoordinates,Original*
G04 #@! TF.FileFunction,Soldermask,Top*
G04 #@! TF.FilePolarity,Negative*
%FSLAX46Y46*%
G04 Gerber Fmt 4.6, Leading zero omitted, Abs format (unit mm)*
G04 Created by KiCad (PCBNEW (5.1.5)-2) date 2019-12-06 12:22:02*
%MOMM*%
%LPD*%
G04 APERTURE LIST*
%ADD10C,0.100000*%
G04 APERTURE END LIST*
D10*
G36*
X73773512Y-121023927D02*
G01*
X73922812Y-121053624D01*
X74086784Y-121121544D01*
X74234354Y-121220147D01*
X74359853Y-121345646D01*
X74458456Y-121493216D01*
X74526376Y-121657188D01*
X74561000Y-121831259D01*
X74561000Y-122008741D01*
X74526376Y-122182812D01*
X74458456Y-122346784D01*
X74359853Y-122494354D01*
X74234354Y-122619853D01*
X74086784Y-122718456D01*
X73922812Y-122786376D01*
X73773512Y-122816073D01*
X73748742Y-122821000D01*
X73571258Y-122821000D01*
X73546488Y-122816073D01*
X73397188Y-122786376D01*
X73233216Y-122718456D01*
X73085646Y-122619853D01*
X72960147Y-122494354D01*
X72861544Y-122346784D01*
X72793624Y-122182812D01*
X72759000Y-122008741D01*
X72759000Y-121831259D01*
X72793624Y-121657188D01*
X72861544Y-121493216D01*
X72960147Y-121345646D01*
X73085646Y-121220147D01*
X73233216Y-121121544D01*
X73397188Y-121053624D01*
X73546488Y-121023927D01*
X73571258Y-121019000D01*
X73748742Y-121019000D01*
X73773512Y-121023927D01*
G37*
G36*
X94093512Y-121023927D02*
G01*
X94242812Y-121053624D01*
X94406784Y-121121544D01*
X94554354Y-121220147D01*
X94679853Y-121345646D01*
X94778456Y-121493216D01*
X94846376Y-121657188D01*
X94881000Y-121831259D01*
X94881000Y-122008741D01*
X94846376Y-122182812D01*
X94778456Y-122346784D01*
X94679853Y-122494354D01*
X94554354Y-122619853D01*
X94406784Y-122718456D01*
X94242812Y-122786376D01*
X94093512Y-122816073D01*
X94068742Y-122821000D01*
X93891258Y-122821000D01*
X93866488Y-122816073D01*
X93717188Y-122786376D01*
X93553216Y-122718456D01*
X93405646Y-122619853D01*
X93280147Y-122494354D01*
X93181544Y-122346784D01*
X93113624Y-122182812D01*
X93079000Y-122008741D01*
X93079000Y-121831259D01*
X93113624Y-121657188D01*
X93181544Y-121493216D01*
X93280147Y-121345646D01*
X93405646Y-121220147D01*
X93553216Y-121121544D01*
X93717188Y-121053624D01*
X93866488Y-121023927D01*
X93891258Y-121019000D01*
X94068742Y-121019000D01*
X94093512Y-121023927D01*
G37*
G36*
X111873512Y-121023927D02*
G01*
X112022812Y-121053624D01*
X112186784Y-121121544D01*
X112334354Y-121220147D01*
X112459853Y-121345646D01*
X112558456Y-121493216D01*
X112626376Y-121657188D01*
X112661000Y-121831259D01*
X112661000Y-122008741D01*
X112626376Y-122182812D01*
X112558456Y-122346784D01*
X112459853Y-122494354D01*
X112334354Y-122619853D01*
X112186784Y-122718456D01*
X112022812Y-122786376D01*
X111873512Y-122816073D01*
X111848742Y-122821000D01*
X111671258Y-122821000D01*
X111646488Y-122816073D01*
X111497188Y-122786376D01*
X111333216Y-122718456D01*
X111185646Y-122619853D01*
X111060147Y-122494354D01*
X110961544Y-122346784D01*
X110893624Y-122182812D01*
X110859000Y-122008741D01*
X110859000Y-121831259D01*
X110893624Y-121657188D01*
X110961544Y-121493216D01*
X111060147Y-121345646D01*
X111185646Y-121220147D01*
X111333216Y-121121544D01*
X111497188Y-121053624D01*
X111646488Y-121023927D01*
X111671258Y-121019000D01*
X111848742Y-121019000D01*
X111873512Y-121023927D01*
G37*
G36*
X106793512Y-121023927D02*
G01*
X106942812Y-121053624D01*
X107106784Y-121121544D01*
X107254354Y-121220147D01*
X107379853Y-121345646D01*
X107478456Y-121493216D01*
X107546376Y-121657188D01*
X107581000Y-121831259D01*
X107581000Y-122008741D01*
X107546376Y-122182812D01*
X107478456Y-122346784D01*
X107379853Y-122494354D01*
X107254354Y-122619853D01*
X107106784Y-122718456D01*
X106942812Y-122786376D01*
X106793512Y-122816073D01*
X106768742Y-122821000D01*
X106591258Y-122821000D01*
X106566488Y-122816073D01*
X106417188Y-122786376D01*
X106253216Y-122718456D01*
X106105646Y-122619853D01*
X105980147Y-122494354D01*
X105881544Y-122346784D01*
X105813624Y-122182812D01*
X105779000Y-122008741D01*
X105779000Y-121831259D01*
X105813624Y-121657188D01*
X105881544Y-121493216D01*
X105980147Y-121345646D01*
X106105646Y-121220147D01*
X106253216Y-121121544D01*
X106417188Y-121053624D01*
X106566488Y-121023927D01*
X106591258Y-121019000D01*
X106768742Y-121019000D01*
X106793512Y-121023927D01*
G37*
G36*
X104253512Y-121023927D02*
G01*
X104402812Y-121053624D01*
X104566784Y-121121544D01*
X104714354Y-121220147D01*
X104839853Y-121345646D01*
X104938456Y-121493216D01*
X105006376Y-121657188D01*
X105041000Y-121831259D01*
X105041000Y-122008741D01*
X105006376Y-122182812D01*
X104938456Y-122346784D01*
X104839853Y-122494354D01*
X104714354Y-122619853D01*
X104566784Y-122718456D01*
X104402812Y-122786376D01*
X104253512Y-122816073D01*
X104228742Y-122821000D01*
X104051258Y-122821000D01*
X104026488Y-122816073D01*
X103877188Y-122786376D01*
X103713216Y-122718456D01*
X103565646Y-122619853D01*
X103440147Y-122494354D01*
X103341544Y-122346784D01*
X103273624Y-122182812D01*
X103239000Y-122008741D01*
X103239000Y-121831259D01*
X103273624Y-121657188D01*
X103341544Y-121493216D01*
X103440147Y-121345646D01*
X103565646Y-121220147D01*
X103713216Y-121121544D01*
X103877188Y-121053624D01*
X104026488Y-121023927D01*
X104051258Y-121019000D01*
X104228742Y-121019000D01*
X104253512Y-121023927D01*
G37*
G36*
X101713512Y-121023927D02*
G01*
X101862812Y-121053624D01*
X102026784Y-121121544D01*
X102174354Y-121220147D01*
X102299853Y-121345646D01*
X102398456Y-121493216D01*
X102466376Y-121657188D01*
X102501000Y-121831259D01*
X102501000Y-122008741D01*
X102466376Y-122182812D01*
X102398456Y-122346784D01*
X102299853Y-122494354D01*
X102174354Y-122619853D01*
X102026784Y-122718456D01*
X101862812Y-122786376D01*
X101713512Y-122816073D01*
X101688742Y-122821000D01*
X101511258Y-122821000D01*
X101486488Y-122816073D01*
X101337188Y-122786376D01*
X101173216Y-122718456D01*
X101025646Y-122619853D01*
X100900147Y-122494354D01*
X100801544Y-122346784D01*
X100733624Y-122182812D01*
X100699000Y-122008741D01*
X100699000Y-121831259D01*
X100733624Y-121657188D01*
X100801544Y-121493216D01*
X100900147Y-121345646D01*
X101025646Y-121220147D01*
X101173216Y-121121544D01*
X101337188Y-121053624D01*
X101486488Y-121023927D01*
X101511258Y-121019000D01*
X101688742Y-121019000D01*
X101713512Y-121023927D01*
G37*
G36*
X99173512Y-121023927D02*
G01*
X99322812Y-121053624D01*
X99486784Y-121121544D01*
X99634354Y-121220147D01*
X99759853Y-121345646D01*
X99858456Y-121493216D01*
X99926376Y-121657188D01*
X99961000Y-121831259D01*
X99961000Y-122008741D01*
X99926376Y-122182812D01*
X99858456Y-122346784D01*
X99759853Y-122494354D01*
X99634354Y-122619853D01*
X99486784Y-122718456D01*
X99322812Y-122786376D01*
X99173512Y-122816073D01*
X99148742Y-122821000D01*
X98971258Y-122821000D01*
X98946488Y-122816073D01*
X98797188Y-122786376D01*
X98633216Y-122718456D01*
X98485646Y-122619853D01*
X98360147Y-122494354D01*
X98261544Y-122346784D01*
X98193624Y-122182812D01*
X98159000Y-122008741D01*
X98159000Y-121831259D01*
X98193624Y-121657188D01*
X98261544Y-121493216D01*
X98360147Y-121345646D01*
X98485646Y-121220147D01*
X98633216Y-121121544D01*
X98797188Y-121053624D01*
X98946488Y-121023927D01*
X98971258Y-121019000D01*
X99148742Y-121019000D01*
X99173512Y-121023927D01*
G37*
G36*
X96633512Y-121023927D02*
G01*
X96782812Y-121053624D01*
X96946784Y-121121544D01*
X97094354Y-121220147D01*
X97219853Y-121345646D01*
X97318456Y-121493216D01*
X97386376Y-121657188D01*
X97421000Y-121831259D01*
X97421000Y-122008741D01*
X97386376Y-122182812D01*
X97318456Y-122346784D01*
X97219853Y-122494354D01*
X97094354Y-122619853D01*
X96946784Y-122718456D01*
X96782812Y-122786376D01*
X96633512Y-122816073D01*
X96608742Y-122821000D01*
X96431258Y-122821000D01*
X96406488Y-122816073D01*
X96257188Y-122786376D01*
X96093216Y-122718456D01*
X95945646Y-122619853D01*
X95820147Y-122494354D01*
X95721544Y-122346784D01*
X95653624Y-122182812D01*
X95619000Y-122008741D01*
X95619000Y-121831259D01*
X95653624Y-121657188D01*
X95721544Y-121493216D01*
X95820147Y-121345646D01*
X95945646Y-121220147D01*
X96093216Y-121121544D01*
X96257188Y-121053624D01*
X96406488Y-121023927D01*
X96431258Y-121019000D01*
X96608742Y-121019000D01*
X96633512Y-121023927D01*
G37*
G36*
X109333512Y-121023927D02*
G01*
X109482812Y-121053624D01*
X109646784Y-121121544D01*
X109794354Y-121220147D01*
X109919853Y-121345646D01*
X110018456Y-121493216D01*
X110086376Y-121657188D01*
X110121000Y-121831259D01*
X110121000Y-122008741D01*
X110086376Y-122182812D01*
X110018456Y-122346784D01*
X109919853Y-122494354D01*
X109794354Y-122619853D01*
X109646784Y-122718456D01*
X109482812Y-122786376D01*
X109333512Y-122816073D01*
X109308742Y-122821000D01*
X109131258Y-122821000D01*
X109106488Y-122816073D01*
X108957188Y-122786376D01*
X108793216Y-122718456D01*
X108645646Y-122619853D01*
X108520147Y-122494354D01*
X108421544Y-122346784D01*
X108353624Y-122182812D01*
X108319000Y-122008741D01*
X108319000Y-121831259D01*
X108353624Y-121657188D01*
X108421544Y-121493216D01*
X108520147Y-121345646D01*
X108645646Y-121220147D01*
X108793216Y-121121544D01*
X108957188Y-121053624D01*
X109106488Y-121023927D01*
X109131258Y-121019000D01*
X109308742Y-121019000D01*
X109333512Y-121023927D01*
G37*
G36*
X89013512Y-121023927D02*
G01*
X89162812Y-121053624D01*
X89326784Y-121121544D01*
X89474354Y-121220147D01*
X89599853Y-121345646D01*
X89698456Y-121493216D01*
X89766376Y-121657188D01*
X89801000Y-121831259D01*
X89801000Y-122008741D01*
X89766376Y-122182812D01*
X89698456Y-122346784D01*
X89599853Y-122494354D01*
X89474354Y-122619853D01*
X89326784Y-122718456D01*
X89162812Y-122786376D01*
X89013512Y-122816073D01*
X88988742Y-122821000D01*
X88811258Y-122821000D01*
X88786488Y-122816073D01*
X88637188Y-122786376D01*
X88473216Y-122718456D01*
X88325646Y-122619853D01*
X88200147Y-122494354D01*
X88101544Y-122346784D01*
X88033624Y-122182812D01*
X87999000Y-122008741D01*
X87999000Y-121831259D01*
X88033624Y-121657188D01*
X88101544Y-121493216D01*
X88200147Y-121345646D01*
X88325646Y-121220147D01*
X88473216Y-121121544D01*
X88637188Y-121053624D01*
X88786488Y-121023927D01*
X88811258Y-121019000D01*
X88988742Y-121019000D01*
X89013512Y-121023927D01*
G37*
G36*
X91553512Y-121023927D02*
G01*
X91702812Y-121053624D01*
X91866784Y-121121544D01*
X92014354Y-121220147D01*
X92139853Y-121345646D01*
X92238456Y-121493216D01*
X92306376Y-121657188D01*
X92341000Y-121831259D01*
X92341000Y-122008741D01*
X92306376Y-122182812D01*
X92238456Y-122346784D01*
X92139853Y-122494354D01*
X92014354Y-122619853D01*
X91866784Y-122718456D01*
X91702812Y-122786376D01*
X91553512Y-122816073D01*
X91528742Y-122821000D01*
X91351258Y-122821000D01*
X91326488Y-122816073D01*
X91177188Y-122786376D01*
X91013216Y-122718456D01*
X90865646Y-122619853D01*
X90740147Y-122494354D01*
X90641544Y-122346784D01*
X90573624Y-122182812D01*
X90539000Y-122008741D01*
X90539000Y-121831259D01*
X90573624Y-121657188D01*
X90641544Y-121493216D01*
X90740147Y-121345646D01*
X90865646Y-121220147D01*
X91013216Y-121121544D01*
X91177188Y-121053624D01*
X91326488Y-121023927D01*
X91351258Y-121019000D01*
X91528742Y-121019000D01*
X91553512Y-121023927D01*
G37*
G36*
X76313512Y-121023927D02*
G01*
X76462812Y-121053624D01*
X76626784Y-121121544D01*
X76774354Y-121220147D01*
X76899853Y-121345646D01*
X76998456Y-121493216D01*
X77066376Y-121657188D01*
X77101000Y-121831259D01*
X77101000Y-122008741D01*
X77066376Y-122182812D01*
X76998456Y-122346784D01*
X76899853Y-122494354D01*
X76774354Y-122619853D01*
X76626784Y-122718456D01*
X76462812Y-122786376D01*
X76313512Y-122816073D01*
X76288742Y-122821000D01*
X76111258Y-122821000D01*
X76086488Y-122816073D01*
X75937188Y-122786376D01*
X75773216Y-122718456D01*
X75625646Y-122619853D01*
X75500147Y-122494354D01*
X75401544Y-122346784D01*
X75333624Y-122182812D01*
X75299000Y-122008741D01*
X75299000Y-121831259D01*
X75333624Y-121657188D01*
X75401544Y-121493216D01*
X75500147Y-121345646D01*
X75625646Y-121220147D01*
X75773216Y-121121544D01*
X75937188Y-121053624D01*
X76086488Y-121023927D01*
X76111258Y-121019000D01*
X76288742Y-121019000D01*
X76313512Y-121023927D01*
G37*
G36*
X78853512Y-121023927D02*
G01*
X79002812Y-121053624D01*
X79166784Y-121121544D01*
X79314354Y-121220147D01*
X79439853Y-121345646D01*
X79538456Y-121493216D01*
X79606376Y-121657188D01*
X79641000Y-121831259D01*
X79641000Y-122008741D01*
X79606376Y-122182812D01*
X79538456Y-122346784D01*
X79439853Y-122494354D01*
X79314354Y-122619853D01*
X79166784Y-122718456D01*
X79002812Y-122786376D01*
X78853512Y-122816073D01*
X78828742Y-122821000D01*
X78651258Y-122821000D01*
X78626488Y-122816073D01*
X78477188Y-122786376D01*
X78313216Y-122718456D01*
X78165646Y-122619853D01*
X78040147Y-122494354D01*
X77941544Y-122346784D01*
X77873624Y-122182812D01*
X77839000Y-122008741D01*
X77839000Y-121831259D01*
X77873624Y-121657188D01*
X77941544Y-121493216D01*
X78040147Y-121345646D01*
X78165646Y-121220147D01*
X78313216Y-121121544D01*
X78477188Y-121053624D01*
X78626488Y-121023927D01*
X78651258Y-121019000D01*
X78828742Y-121019000D01*
X78853512Y-121023927D01*
G37*
G36*
X83933512Y-121023927D02*
G01*
X84082812Y-121053624D01*
X84246784Y-121121544D01*
X84394354Y-121220147D01*
X84519853Y-121345646D01*
X84618456Y-121493216D01*
X84686376Y-121657188D01*
X84721000Y-121831259D01*
X84721000Y-122008741D01*
X84686376Y-122182812D01*
X84618456Y-122346784D01*
X84519853Y-122494354D01*
X84394354Y-122619853D01*
X84246784Y-122718456D01*
X84082812Y-122786376D01*
X83933512Y-122816073D01*
X83908742Y-122821000D01*
X83731258Y-122821000D01*
X83706488Y-122816073D01*
X83557188Y-122786376D01*
X83393216Y-122718456D01*
X83245646Y-122619853D01*
X83120147Y-122494354D01*
X83021544Y-122346784D01*
X82953624Y-122182812D01*
X82919000Y-122008741D01*
X82919000Y-121831259D01*
X82953624Y-121657188D01*
X83021544Y-121493216D01*
X83120147Y-121345646D01*
X83245646Y-121220147D01*
X83393216Y-121121544D01*
X83557188Y-121053624D01*
X83706488Y-121023927D01*
X83731258Y-121019000D01*
X83908742Y-121019000D01*
X83933512Y-121023927D01*
G37*
G36*
X86473512Y-121023927D02*
G01*
X86622812Y-121053624D01*
X86786784Y-121121544D01*
X86934354Y-121220147D01*
X87059853Y-121345646D01*
X87158456Y-121493216D01*
X87226376Y-121657188D01*
X87261000Y-121831259D01*
X87261000Y-122008741D01*
X87226376Y-122182812D01*
X87158456Y-122346784D01*
X87059853Y-122494354D01*
X86934354Y-122619853D01*
X86786784Y-122718456D01*
X86622812Y-122786376D01*
X86473512Y-122816073D01*
X86448742Y-122821000D01*
X86271258Y-122821000D01*
X86246488Y-122816073D01*
X86097188Y-122786376D01*
X85933216Y-122718456D01*
X85785646Y-122619853D01*
X85660147Y-122494354D01*
X85561544Y-122346784D01*
X85493624Y-122182812D01*
X85459000Y-122008741D01*
X85459000Y-121831259D01*
X85493624Y-121657188D01*
X85561544Y-121493216D01*
X85660147Y-121345646D01*
X85785646Y-121220147D01*
X85933216Y-121121544D01*
X86097188Y-121053624D01*
X86246488Y-121023927D01*
X86271258Y-121019000D01*
X86448742Y-121019000D01*
X86473512Y-121023927D01*
G37*
G36*
X81393512Y-121023927D02*
G01*
X81542812Y-121053624D01*
X81706784Y-121121544D01*
X81854354Y-121220147D01*
X81979853Y-121345646D01*
X82078456Y-121493216D01*
X82146376Y-121657188D01*
X82181000Y-121831259D01*
X82181000Y-122008741D01*
X82146376Y-122182812D01*
X82078456Y-122346784D01*
X81979853Y-122494354D01*
X81854354Y-122619853D01*
X81706784Y-122718456D01*
X81542812Y-122786376D01*
X81393512Y-122816073D01*
X81368742Y-122821000D01*
X81191258Y-122821000D01*
X81166488Y-122816073D01*
X81017188Y-122786376D01*
X80853216Y-122718456D01*
X80705646Y-122619853D01*
X80580147Y-122494354D01*
X80481544Y-122346784D01*
X80413624Y-122182812D01*
X80379000Y-122008741D01*
X80379000Y-121831259D01*
X80413624Y-121657188D01*
X80481544Y-121493216D01*
X80580147Y-121345646D01*
X80705646Y-121220147D01*
X80853216Y-121121544D01*
X81017188Y-121053624D01*
X81166488Y-121023927D01*
X81191258Y-121019000D01*
X81368742Y-121019000D01*
X81393512Y-121023927D01*
G37*
G36*
X70294579Y-118744112D02*
G01*
X70420544Y-118769168D01*
X70507315Y-118805110D01*
X70776512Y-118916615D01*
X70776513Y-118916616D01*
X71096877Y-119130676D01*
X71369324Y-119403123D01*
X71487109Y-119579401D01*
X71583385Y-119723488D01*
X71730832Y-120079457D01*
X71806000Y-120457349D01*
X71806000Y-120842651D01*
X71730832Y-121220543D01*
X71583385Y-121576512D01*
X71583384Y-121576513D01*
X71369324Y-121896877D01*
X71096877Y-122169324D01*
X70882816Y-122312355D01*
X70776512Y-122383385D01*
X70567991Y-122469757D01*
X70420544Y-122530832D01*
X70294579Y-122555888D01*
X70042651Y-122606000D01*
X69657349Y-122606000D01*
X69405421Y-122555888D01*
X69279456Y-122530832D01*
X69132009Y-122469757D01*
X68923488Y-122383385D01*
X68817184Y-122312355D01*
X68603123Y-122169324D01*
X68330676Y-121896877D01*
X68116616Y-121576513D01*
X68116615Y-121576512D01*
X67969168Y-121220543D01*
X67894000Y-120842651D01*
X67894000Y-120457349D01*
X67969168Y-120079457D01*
X68116615Y-119723488D01*
X68212891Y-119579401D01*
X68330676Y-119403123D01*
X68603123Y-119130676D01*
X68923487Y-118916616D01*
X68923488Y-118916615D01*
X69192685Y-118805110D01*
X69279456Y-118769168D01*
X69405421Y-118744112D01*
X69657349Y-118694000D01*
X70042651Y-118694000D01*
X70294579Y-118744112D01*
G37*
G36*
X115827714Y-119354382D02*
G01*
X115955322Y-119379765D01*
X116096148Y-119438097D01*
X116195727Y-119479344D01*
X116195728Y-119479345D01*
X116412089Y-119623912D01*
X116596088Y-119807911D01*
X116692685Y-119952479D01*
X116740656Y-120024273D01*
X116763513Y-120079456D01*
X116840235Y-120264678D01*
X116840235Y-120264680D01*
X116891000Y-120519891D01*
X116891000Y-120780109D01*
X116865618Y-120907714D01*
X116840235Y-121035322D01*
X116804520Y-121121544D01*
X116740656Y-121275727D01*
X116740655Y-121275728D01*
X116596088Y-121492089D01*
X116412089Y-121676088D01*
X116267521Y-121772685D01*
X116195727Y-121820656D01*
X116096148Y-121861903D01*
X115955322Y-121920235D01*
X115827715Y-121945617D01*
X115700109Y-121971000D01*
X115439891Y-121971000D01*
X115312285Y-121945617D01*
X115184678Y-121920235D01*
X115043852Y-121861903D01*
X114944273Y-121820656D01*
X114872479Y-121772685D01*
X114727911Y-121676088D01*
X114543912Y-121492089D01*
X114399345Y-121275728D01*
X114399344Y-121275727D01*
X114335480Y-121121544D01*
X114299765Y-121035322D01*
X114274382Y-120907714D01*
X114249000Y-120780109D01*
X114249000Y-120519891D01*
X114299765Y-120264680D01*
X114299765Y-120264678D01*
X114376487Y-120079456D01*
X114399344Y-120024273D01*
X114447315Y-119952479D01*
X114543912Y-119807911D01*
X114727911Y-119623912D01*
X114944272Y-119479345D01*
X114944273Y-119479344D01*
X115043852Y-119438097D01*
X115184678Y-119379765D01*
X115312286Y-119354382D01*
X115439891Y-119329000D01*
X115700109Y-119329000D01*
X115827714Y-119354382D01*
G37*
G36*
X103429591Y-118728085D02*
G01*
X103463569Y-118738393D01*
X103494890Y-118755134D01*
X103522339Y-118777661D01*
X103544866Y-118805110D01*
X103561607Y-118836431D01*
X103571915Y-118870409D01*
X103576000Y-118911890D01*
X103576000Y-119588110D01*
X103571915Y-119629591D01*
X103561607Y-119663569D01*
X103544866Y-119694890D01*
X103522339Y-119722339D01*
X103494890Y-119744866D01*
X103463569Y-119761607D01*
X103429591Y-119771915D01*
X103388110Y-119776000D01*
X102786890Y-119776000D01*
X102745409Y-119771915D01*
X102711431Y-119761607D01*
X102680110Y-119744866D01*
X102652661Y-119722339D01*
X102630134Y-119694890D01*
X102613393Y-119663569D01*
X102603085Y-119629591D01*
X102599000Y-119588110D01*
X102599000Y-118911890D01*
X102603085Y-118870409D01*
X102613393Y-118836431D01*
X102630134Y-118805110D01*
X102652661Y-118777661D01*
X102680110Y-118755134D01*
X102711431Y-118738393D01*
X102745409Y-118728085D01*
X102786890Y-118724000D01*
X103388110Y-118724000D01*
X103429591Y-118728085D01*
G37*
G36*
X105004591Y-118728085D02*
G01*
X105038569Y-118738393D01*
X105069890Y-118755134D01*
X105097339Y-118777661D01*
X105119866Y-118805110D01*
X105136607Y-118836431D01*
X105146915Y-118870409D01*
X105151000Y-118911890D01*
X105151000Y-119588110D01*
X105146915Y-119629591D01*
X105136607Y-119663569D01*
X105119866Y-119694890D01*
X105097339Y-119722339D01*
X105069890Y-119744866D01*
X105038569Y-119761607D01*
X105004591Y-119771915D01*
X104963110Y-119776000D01*
X104361890Y-119776000D01*
X104320409Y-119771915D01*
X104286431Y-119761607D01*
X104255110Y-119744866D01*
X104227661Y-119722339D01*
X104205134Y-119694890D01*
X104188393Y-119663569D01*
X104178085Y-119629591D01*
X104174000Y-119588110D01*
X104174000Y-118911890D01*
X104178085Y-118870409D01*
X104188393Y-118836431D01*
X104205134Y-118805110D01*
X104227661Y-118777661D01*
X104255110Y-118755134D01*
X104286431Y-118738393D01*
X104320409Y-118728085D01*
X104361890Y-118724000D01*
X104963110Y-118724000D01*
X105004591Y-118728085D01*
G37*
G36*
X74606938Y-118216716D02*
G01*
X74627557Y-118222971D01*
X74646553Y-118233124D01*
X74663208Y-118246792D01*
X74676876Y-118263447D01*
X74687029Y-118282443D01*
X74693284Y-118303062D01*
X74696000Y-118330640D01*
X74696000Y-118789360D01*
X74693284Y-118816938D01*
X74687029Y-118837557D01*
X74676876Y-118856553D01*
X74663208Y-118873208D01*
X74646553Y-118886876D01*
X74627557Y-118897029D01*
X74606938Y-118903284D01*
X74579360Y-118906000D01*
X74070640Y-118906000D01*
X74043062Y-118903284D01*
X74022443Y-118897029D01*
X74003447Y-118886876D01*
X73986792Y-118873208D01*
X73973124Y-118856553D01*
X73962971Y-118837557D01*
X73956716Y-118816938D01*
X73954000Y-118789360D01*
X73954000Y-118330640D01*
X73956716Y-118303062D01*
X73962971Y-118282443D01*
X73973124Y-118263447D01*
X73986792Y-118246792D01*
X74003447Y-118233124D01*
X74022443Y-118222971D01*
X74043062Y-118216716D01*
X74070640Y-118214000D01*
X74579360Y-118214000D01*
X74606938Y-118216716D01*
G37*
G36*
X75706938Y-118216716D02*
G01*
X75727557Y-118222971D01*
X75746553Y-118233124D01*
X75763208Y-118246792D01*
X75776876Y-118263447D01*
X75787029Y-118282443D01*
X75793284Y-118303062D01*
X75796000Y-118330640D01*
X75796000Y-118789360D01*
X75793284Y-118816938D01*
X75787029Y-118837557D01*
X75776876Y-118856553D01*
X75763208Y-118873208D01*
X75746553Y-118886876D01*
X75727557Y-118897029D01*
X75706938Y-118903284D01*
X75679360Y-118906000D01*
X75170640Y-118906000D01*
X75143062Y-118903284D01*
X75122443Y-118897029D01*
X75103447Y-118886876D01*
X75086792Y-118873208D01*
X75073124Y-118856553D01*
X75062971Y-118837557D01*
X75056716Y-118816938D01*
X75054000Y-118789360D01*
X75054000Y-118330640D01*
X75056716Y-118303062D01*
X75062971Y-118282443D01*
X75073124Y-118263447D01*
X75086792Y-118246792D01*
X75103447Y-118233124D01*
X75122443Y-118222971D01*
X75143062Y-118216716D01*
X75170640Y-118214000D01*
X75679360Y-118214000D01*
X75706938Y-118216716D01*
G37*
G36*
X73506938Y-118216716D02*
G01*
X73527557Y-118222971D01*
X73546553Y-118233124D01*
X73563208Y-118246792D01*
X73576876Y-118263447D01*
X73587029Y-118282443D01*
X73593284Y-118303062D01*
X73596000Y-118330640D01*
X73596000Y-118789360D01*
X73593284Y-118816938D01*
X73587029Y-118837557D01*
X73576876Y-118856553D01*
X73563208Y-118873208D01*
X73546553Y-118886876D01*
X73527557Y-118897029D01*
X73506938Y-118903284D01*
X73479360Y-118906000D01*
X72970640Y-118906000D01*
X72943062Y-118903284D01*
X72922443Y-118897029D01*
X72903447Y-118886876D01*
X72886792Y-118873208D01*
X72873124Y-118856553D01*
X72862971Y-118837557D01*
X72856716Y-118816938D01*
X72854000Y-118789360D01*
X72854000Y-118330640D01*
X72856716Y-118303062D01*
X72862971Y-118282443D01*
X72873124Y-118263447D01*
X72886792Y-118246792D01*
X72903447Y-118233124D01*
X72922443Y-118222971D01*
X72943062Y-118216716D01*
X72970640Y-118214000D01*
X73479360Y-118214000D01*
X73506938Y-118216716D01*
G37*
G36*
X85141938Y-117831716D02*
G01*
X85162557Y-117837971D01*
X85181553Y-117848124D01*
X85198208Y-117861792D01*
X85211876Y-117878447D01*
X85222029Y-117897443D01*
X85228284Y-117918062D01*
X85231000Y-117945640D01*
X85231000Y-118454360D01*
X85228284Y-118481938D01*
X85222029Y-118502557D01*
X85211876Y-118521553D01*
X85198208Y-118538208D01*
X85181553Y-118551876D01*
X85162557Y-118562029D01*
X85141938Y-118568284D01*
X85114360Y-118571000D01*
X84655640Y-118571000D01*
X84628062Y-118568284D01*
X84607443Y-118562029D01*
X84588447Y-118551876D01*
X84571792Y-118538208D01*
X84558124Y-118521553D01*
X84547971Y-118502557D01*
X84541716Y-118481938D01*
X84539000Y-118454360D01*
X84539000Y-117945640D01*
X84541716Y-117918062D01*
X84547971Y-117897443D01*
X84558124Y-117878447D01*
X84571792Y-117861792D01*
X84588447Y-117848124D01*
X84607443Y-117837971D01*
X84628062Y-117831716D01*
X84655640Y-117829000D01*
X85114360Y-117829000D01*
X85141938Y-117831716D01*
G37*
G36*
X84171938Y-117831716D02*
G01*
X84192557Y-117837971D01*
X84211553Y-117848124D01*
X84228208Y-117861792D01*
X84241876Y-117878447D01*
X84252029Y-117897443D01*
X84258284Y-117918062D01*
X84261000Y-117945640D01*
X84261000Y-118454360D01*
X84258284Y-118481938D01*
X84252029Y-118502557D01*
X84241876Y-118521553D01*
X84228208Y-118538208D01*
X84211553Y-118551876D01*
X84192557Y-118562029D01*
X84171938Y-118568284D01*
X84144360Y-118571000D01*
X83685640Y-118571000D01*
X83658062Y-118568284D01*
X83637443Y-118562029D01*
X83618447Y-118551876D01*
X83601792Y-118538208D01*
X83588124Y-118521553D01*
X83577971Y-118502557D01*
X83571716Y-118481938D01*
X83569000Y-118454360D01*
X83569000Y-117945640D01*
X83571716Y-117918062D01*
X83577971Y-117897443D01*
X83588124Y-117878447D01*
X83601792Y-117861792D01*
X83618447Y-117848124D01*
X83637443Y-117837971D01*
X83658062Y-117831716D01*
X83685640Y-117829000D01*
X84144360Y-117829000D01*
X84171938Y-117831716D01*
G37*
G36*
X83181938Y-117841716D02*
G01*
X83202557Y-117847971D01*
X83221553Y-117858124D01*
X83238208Y-117871792D01*
X83251876Y-117888447D01*
X83262029Y-117907443D01*
X83268284Y-117928062D01*
X83271000Y-117955640D01*
X83271000Y-118414360D01*
X83268284Y-118441938D01*
X83262029Y-118462557D01*
X83251876Y-118481553D01*
X83238208Y-118498208D01*
X83221553Y-118511876D01*
X83202557Y-118522029D01*
X83181938Y-118528284D01*
X83154360Y-118531000D01*
X82645640Y-118531000D01*
X82618062Y-118528284D01*
X82597443Y-118522029D01*
X82578447Y-118511876D01*
X82561792Y-118498208D01*
X82548124Y-118481553D01*
X82537971Y-118462557D01*
X82531716Y-118441938D01*
X82529000Y-118414360D01*
X82529000Y-117955640D01*
X82531716Y-117928062D01*
X82537971Y-117907443D01*
X82548124Y-117888447D01*
X82561792Y-117871792D01*
X82578447Y-117858124D01*
X82597443Y-117847971D01*
X82618062Y-117841716D01*
X82645640Y-117839000D01*
X83154360Y-117839000D01*
X83181938Y-117841716D01*
G37*
G36*
X106984468Y-117428565D02*
G01*
X107023138Y-117440296D01*
X107058777Y-117459346D01*
X107090017Y-117484983D01*
X107115654Y-117516223D01*
X107134704Y-117551862D01*
X107146435Y-117590532D01*
X107151000Y-117636888D01*
X107151000Y-118288112D01*
X107146435Y-118334468D01*
X107134704Y-118373138D01*
X107115654Y-118408777D01*
X107090017Y-118440017D01*
X107058777Y-118465654D01*
X107023138Y-118484704D01*
X106984468Y-118496435D01*
X106938112Y-118501000D01*
X105861888Y-118501000D01*
X105815532Y-118496435D01*
X105776862Y-118484704D01*
X105741223Y-118465654D01*
X105709983Y-118440017D01*
X105684346Y-118408777D01*
X105665296Y-118373138D01*
X105653565Y-118334468D01*
X105649000Y-118288112D01*
X105649000Y-117636888D01*
X105653565Y-117590532D01*
X105665296Y-117551862D01*
X105684346Y-117516223D01*
X105709983Y-117484983D01*
X105741223Y-117459346D01*
X105776862Y-117440296D01*
X105815532Y-117428565D01*
X105861888Y-117424000D01*
X106938112Y-117424000D01*
X106984468Y-117428565D01*
G37*
G36*
X77809468Y-117403565D02*
G01*
X77848138Y-117415296D01*
X77883777Y-117434346D01*
X77915017Y-117459983D01*
X77940654Y-117491223D01*
X77959704Y-117526862D01*
X77971435Y-117565532D01*
X77976000Y-117611888D01*
X77976000Y-118263112D01*
X77971435Y-118309468D01*
X77959704Y-118348138D01*
X77940654Y-118383777D01*
X77915017Y-118415017D01*
X77883777Y-118440654D01*
X77848138Y-118459704D01*
X77809468Y-118471435D01*
X77763112Y-118476000D01*
X76686888Y-118476000D01*
X76640532Y-118471435D01*
X76601862Y-118459704D01*
X76566223Y-118440654D01*
X76534983Y-118415017D01*
X76509346Y-118383777D01*
X76490296Y-118348138D01*
X76478565Y-118309468D01*
X76474000Y-118263112D01*
X76474000Y-117611888D01*
X76478565Y-117565532D01*
X76490296Y-117526862D01*
X76509346Y-117491223D01*
X76534983Y-117459983D01*
X76566223Y-117434346D01*
X76601862Y-117415296D01*
X76640532Y-117403565D01*
X76686888Y-117399000D01*
X77763112Y-117399000D01*
X77809468Y-117403565D01*
G37*
G36*
X90129591Y-117353085D02*
G01*
X90163569Y-117363393D01*
X90194890Y-117380134D01*
X90222339Y-117402661D01*
X90244866Y-117430110D01*
X90261607Y-117461431D01*
X90271915Y-117495409D01*
X90276000Y-117536890D01*
X90276000Y-118138110D01*
X90271915Y-118179591D01*
X90261607Y-118213569D01*
X90244866Y-118244890D01*
X90222339Y-118272339D01*
X90194890Y-118294866D01*
X90163569Y-118311607D01*
X90129591Y-118321915D01*
X90088110Y-118326000D01*
X89411890Y-118326000D01*
X89370409Y-118321915D01*
X89336431Y-118311607D01*
X89305110Y-118294866D01*
X89277661Y-118272339D01*
X89255134Y-118244890D01*
X89238393Y-118213569D01*
X89228085Y-118179591D01*
X89224000Y-118138110D01*
X89224000Y-117536890D01*
X89228085Y-117495409D01*
X89238393Y-117461431D01*
X89255134Y-117430110D01*
X89277661Y-117402661D01*
X89305110Y-117380134D01*
X89336431Y-117363393D01*
X89370409Y-117353085D01*
X89411890Y-117349000D01*
X90088110Y-117349000D01*
X90129591Y-117353085D01*
G37*
G36*
X104196938Y-117581716D02*
G01*
X104217557Y-117587971D01*
X104236553Y-117598124D01*
X104253208Y-117611792D01*
X104266876Y-117628447D01*
X104277029Y-117647443D01*
X104283284Y-117668062D01*
X104286000Y-117695640D01*
X104286000Y-118204360D01*
X104283284Y-118231938D01*
X104277029Y-118252557D01*
X104266876Y-118271553D01*
X104253208Y-118288208D01*
X104236553Y-118301876D01*
X104217557Y-118312029D01*
X104196938Y-118318284D01*
X104169360Y-118321000D01*
X103710640Y-118321000D01*
X103683062Y-118318284D01*
X103662443Y-118312029D01*
X103643447Y-118301876D01*
X103626792Y-118288208D01*
X103613124Y-118271553D01*
X103602971Y-118252557D01*
X103596716Y-118231938D01*
X103594000Y-118204360D01*
X103594000Y-117695640D01*
X103596716Y-117668062D01*
X103602971Y-117647443D01*
X103613124Y-117628447D01*
X103626792Y-117611792D01*
X103643447Y-117598124D01*
X103662443Y-117587971D01*
X103683062Y-117581716D01*
X103710640Y-117579000D01*
X104169360Y-117579000D01*
X104196938Y-117581716D01*
G37*
G36*
X105166938Y-117581716D02*
G01*
X105187557Y-117587971D01*
X105206553Y-117598124D01*
X105223208Y-117611792D01*
X105236876Y-117628447D01*
X105247029Y-117647443D01*
X105253284Y-117668062D01*
X105256000Y-117695640D01*
X105256000Y-118204360D01*
X105253284Y-118231938D01*
X105247029Y-118252557D01*
X105236876Y-118271553D01*
X105223208Y-118288208D01*
X105206553Y-118301876D01*
X105187557Y-118312029D01*
X105166938Y-118318284D01*
X105139360Y-118321000D01*
X104680640Y-118321000D01*
X104653062Y-118318284D01*
X104632443Y-118312029D01*
X104613447Y-118301876D01*
X104596792Y-118288208D01*
X104583124Y-118271553D01*
X104572971Y-118252557D01*
X104566716Y-118231938D01*
X104564000Y-118204360D01*
X104564000Y-117695640D01*
X104566716Y-117668062D01*
X104572971Y-117647443D01*
X104583124Y-117628447D01*
X104596792Y-117611792D01*
X104613447Y-117598124D01*
X104632443Y-117587971D01*
X104653062Y-117581716D01*
X104680640Y-117579000D01*
X105139360Y-117579000D01*
X105166938Y-117581716D01*
G37*
G36*
X79501000Y-118301000D02*
G01*
X78499000Y-118301000D01*
X78499000Y-117399000D01*
X79501000Y-117399000D01*
X79501000Y-118301000D01*
G37*
G36*
X102004591Y-117128085D02*
G01*
X102038569Y-117138393D01*
X102069890Y-117155134D01*
X102097339Y-117177661D01*
X102119866Y-117205110D01*
X102136607Y-117236431D01*
X102146915Y-117270409D01*
X102151000Y-117311890D01*
X102151000Y-117913110D01*
X102146915Y-117954591D01*
X102136607Y-117988569D01*
X102119866Y-118019890D01*
X102097339Y-118047339D01*
X102069890Y-118069866D01*
X102038569Y-118086607D01*
X102004591Y-118096915D01*
X101963110Y-118101000D01*
X101286890Y-118101000D01*
X101245409Y-118096915D01*
X101211431Y-118086607D01*
X101180110Y-118069866D01*
X101152661Y-118047339D01*
X101130134Y-118019890D01*
X101113393Y-117988569D01*
X101103085Y-117954591D01*
X101099000Y-117913110D01*
X101099000Y-117311890D01*
X101103085Y-117270409D01*
X101113393Y-117236431D01*
X101130134Y-117205110D01*
X101152661Y-117177661D01*
X101180110Y-117155134D01*
X101211431Y-117138393D01*
X101245409Y-117128085D01*
X101286890Y-117124000D01*
X101963110Y-117124000D01*
X102004591Y-117128085D01*
G37*
G36*
X100616938Y-117256716D02*
G01*
X100637557Y-117262971D01*
X100656553Y-117273124D01*
X100673208Y-117286792D01*
X100686876Y-117303447D01*
X100697029Y-117322443D01*
X100703284Y-117343062D01*
X100706000Y-117370640D01*
X100706000Y-117879360D01*
X100703284Y-117906938D01*
X100697029Y-117927557D01*
X100686876Y-117946553D01*
X100673208Y-117963208D01*
X100656553Y-117976876D01*
X100637557Y-117987029D01*
X100616938Y-117993284D01*
X100589360Y-117996000D01*
X100130640Y-117996000D01*
X100103062Y-117993284D01*
X100082443Y-117987029D01*
X100063447Y-117976876D01*
X100046792Y-117963208D01*
X100033124Y-117946553D01*
X100022971Y-117927557D01*
X100016716Y-117906938D01*
X100014000Y-117879360D01*
X100014000Y-117370640D01*
X100016716Y-117343062D01*
X100022971Y-117322443D01*
X100033124Y-117303447D01*
X100046792Y-117286792D01*
X100063447Y-117273124D01*
X100082443Y-117262971D01*
X100103062Y-117256716D01*
X100130640Y-117254000D01*
X100589360Y-117254000D01*
X100616938Y-117256716D01*
G37*
G36*
X99646938Y-117256716D02*
G01*
X99667557Y-117262971D01*
X99686553Y-117273124D01*
X99703208Y-117286792D01*
X99716876Y-117303447D01*
X99727029Y-117322443D01*
X99733284Y-117343062D01*
X99736000Y-117370640D01*
X99736000Y-117879360D01*
X99733284Y-117906938D01*
X99727029Y-117927557D01*
X99716876Y-117946553D01*
X99703208Y-117963208D01*
X99686553Y-117976876D01*
X99667557Y-117987029D01*
X99646938Y-117993284D01*
X99619360Y-117996000D01*
X99160640Y-117996000D01*
X99133062Y-117993284D01*
X99112443Y-117987029D01*
X99093447Y-117976876D01*
X99076792Y-117963208D01*
X99063124Y-117946553D01*
X99052971Y-117927557D01*
X99046716Y-117906938D01*
X99044000Y-117879360D01*
X99044000Y-117370640D01*
X99046716Y-117343062D01*
X99052971Y-117322443D01*
X99063124Y-117303447D01*
X99076792Y-117286792D01*
X99093447Y-117273124D01*
X99112443Y-117262971D01*
X99133062Y-117256716D01*
X99160640Y-117254000D01*
X99619360Y-117254000D01*
X99646938Y-117256716D01*
G37*
G36*
X73506938Y-117246716D02*
G01*
X73527557Y-117252971D01*
X73546553Y-117263124D01*
X73563208Y-117276792D01*
X73576876Y-117293447D01*
X73587029Y-117312443D01*
X73593284Y-117333062D01*
X73596000Y-117360640D01*
X73596000Y-117819360D01*
X73593284Y-117846938D01*
X73587029Y-117867557D01*
X73576876Y-117886553D01*
X73563208Y-117903208D01*
X73546553Y-117916876D01*
X73527557Y-117927029D01*
X73506938Y-117933284D01*
X73479360Y-117936000D01*
X72970640Y-117936000D01*
X72943062Y-117933284D01*
X72922443Y-117927029D01*
X72903447Y-117916876D01*
X72886792Y-117903208D01*
X72873124Y-117886553D01*
X72862971Y-117867557D01*
X72856716Y-117846938D01*
X72854000Y-117819360D01*
X72854000Y-117360640D01*
X72856716Y-117333062D01*
X72862971Y-117312443D01*
X72873124Y-117293447D01*
X72886792Y-117276792D01*
X72903447Y-117263124D01*
X72922443Y-117252971D01*
X72943062Y-117246716D01*
X72970640Y-117244000D01*
X73479360Y-117244000D01*
X73506938Y-117246716D01*
G37*
G36*
X75706938Y-117246716D02*
G01*
X75727557Y-117252971D01*
X75746553Y-117263124D01*
X75763208Y-117276792D01*
X75776876Y-117293447D01*
X75787029Y-117312443D01*
X75793284Y-117333062D01*
X75796000Y-117360640D01*
X75796000Y-117819360D01*
X75793284Y-117846938D01*
X75787029Y-117867557D01*
X75776876Y-117886553D01*
X75763208Y-117903208D01*
X75746553Y-117916876D01*
X75727557Y-117927029D01*
X75706938Y-117933284D01*
X75679360Y-117936000D01*
X75170640Y-117936000D01*
X75143062Y-117933284D01*
X75122443Y-117927029D01*
X75103447Y-117916876D01*
X75086792Y-117903208D01*
X75073124Y-117886553D01*
X75062971Y-117867557D01*
X75056716Y-117846938D01*
X75054000Y-117819360D01*
X75054000Y-117360640D01*
X75056716Y-117333062D01*
X75062971Y-117312443D01*
X75073124Y-117293447D01*
X75086792Y-117276792D01*
X75103447Y-117263124D01*
X75122443Y-117252971D01*
X75143062Y-117246716D01*
X75170640Y-117244000D01*
X75679360Y-117244000D01*
X75706938Y-117246716D01*
G37*
G36*
X74606938Y-117246716D02*
G01*
X74627557Y-117252971D01*
X74646553Y-117263124D01*
X74663208Y-117276792D01*
X74676876Y-117293447D01*
X74687029Y-117312443D01*
X74693284Y-117333062D01*
X74696000Y-117360640D01*
X74696000Y-117819360D01*
X74693284Y-117846938D01*
X74687029Y-117867557D01*
X74676876Y-117886553D01*
X74663208Y-117903208D01*
X74646553Y-117916876D01*
X74627557Y-117927029D01*
X74606938Y-117933284D01*
X74579360Y-117936000D01*
X74070640Y-117936000D01*
X74043062Y-117933284D01*
X74022443Y-117927029D01*
X74003447Y-117916876D01*
X73986792Y-117903208D01*
X73973124Y-117886553D01*
X73962971Y-117867557D01*
X73956716Y-117846938D01*
X73954000Y-117819360D01*
X73954000Y-117360640D01*
X73956716Y-117333062D01*
X73962971Y-117312443D01*
X73973124Y-117293447D01*
X73986792Y-117276792D01*
X74003447Y-117263124D01*
X74022443Y-117252971D01*
X74043062Y-117246716D01*
X74070640Y-117244000D01*
X74579360Y-117244000D01*
X74606938Y-117246716D01*
G37*
G36*
X117533048Y-116313122D02*
G01*
X117567387Y-116323539D01*
X117599036Y-116340456D01*
X117626778Y-116363222D01*
X117649544Y-116390964D01*
X117666461Y-116422613D01*
X117676878Y-116456952D01*
X117681000Y-116498807D01*
X117681000Y-117721193D01*
X117676878Y-117763048D01*
X117666461Y-117797387D01*
X117649544Y-117829036D01*
X117626778Y-117856778D01*
X117599036Y-117879544D01*
X117567387Y-117896461D01*
X117533048Y-117906878D01*
X117491193Y-117911000D01*
X114368807Y-117911000D01*
X114326952Y-117906878D01*
X114292613Y-117896461D01*
X114260964Y-117879544D01*
X114233222Y-117856778D01*
X114210456Y-117829036D01*
X114193539Y-117797387D01*
X114183122Y-117763048D01*
X114179000Y-117721193D01*
X114179000Y-116498807D01*
X114183122Y-116456952D01*
X114193539Y-116422613D01*
X114210456Y-116390964D01*
X114233222Y-116363222D01*
X114260964Y-116340456D01*
X114292613Y-116323539D01*
X114326952Y-116313122D01*
X114368807Y-116309000D01*
X117491193Y-116309000D01*
X117533048Y-116313122D01*
G37*
G36*
X84171938Y-116831716D02*
G01*
X84192557Y-116837971D01*
X84211553Y-116848124D01*
X84228208Y-116861792D01*
X84241876Y-116878447D01*
X84252029Y-116897443D01*
X84258284Y-116918062D01*
X84261000Y-116945640D01*
X84261000Y-117454360D01*
X84258284Y-117481938D01*
X84252029Y-117502557D01*
X84241876Y-117521553D01*
X84228208Y-117538208D01*
X84211553Y-117551876D01*
X84192557Y-117562029D01*
X84171938Y-117568284D01*
X84144360Y-117571000D01*
X83685640Y-117571000D01*
X83658062Y-117568284D01*
X83637443Y-117562029D01*
X83618447Y-117551876D01*
X83601792Y-117538208D01*
X83588124Y-117521553D01*
X83577971Y-117502557D01*
X83571716Y-117481938D01*
X83569000Y-117454360D01*
X83569000Y-116945640D01*
X83571716Y-116918062D01*
X83577971Y-116897443D01*
X83588124Y-116878447D01*
X83601792Y-116861792D01*
X83618447Y-116848124D01*
X83637443Y-116837971D01*
X83658062Y-116831716D01*
X83685640Y-116829000D01*
X84144360Y-116829000D01*
X84171938Y-116831716D01*
G37*
G36*
X85141938Y-116831716D02*
G01*
X85162557Y-116837971D01*
X85181553Y-116848124D01*
X85198208Y-116861792D01*
X85211876Y-116878447D01*
X85222029Y-116897443D01*
X85228284Y-116918062D01*
X85231000Y-116945640D01*
X85231000Y-117454360D01*
X85228284Y-117481938D01*
X85222029Y-117502557D01*
X85211876Y-117521553D01*
X85198208Y-117538208D01*
X85181553Y-117551876D01*
X85162557Y-117562029D01*
X85141938Y-117568284D01*
X85114360Y-117571000D01*
X84655640Y-117571000D01*
X84628062Y-117568284D01*
X84607443Y-117562029D01*
X84588447Y-117551876D01*
X84571792Y-117538208D01*
X84558124Y-117521553D01*
X84547971Y-117502557D01*
X84541716Y-117481938D01*
X84539000Y-117454360D01*
X84539000Y-116945640D01*
X84541716Y-116918062D01*
X84547971Y-116897443D01*
X84558124Y-116878447D01*
X84571792Y-116861792D01*
X84588447Y-116848124D01*
X84607443Y-116837971D01*
X84628062Y-116831716D01*
X84655640Y-116829000D01*
X85114360Y-116829000D01*
X85141938Y-116831716D01*
G37*
G36*
X83181938Y-116871716D02*
G01*
X83202557Y-116877971D01*
X83221553Y-116888124D01*
X83238208Y-116901792D01*
X83251876Y-116918447D01*
X83262029Y-116937443D01*
X83268284Y-116958062D01*
X83271000Y-116985640D01*
X83271000Y-117444360D01*
X83268284Y-117471938D01*
X83262029Y-117492557D01*
X83251876Y-117511553D01*
X83238208Y-117528208D01*
X83221553Y-117541876D01*
X83202557Y-117552029D01*
X83181938Y-117558284D01*
X83154360Y-117561000D01*
X82645640Y-117561000D01*
X82618062Y-117558284D01*
X82597443Y-117552029D01*
X82578447Y-117541876D01*
X82561792Y-117528208D01*
X82548124Y-117511553D01*
X82537971Y-117492557D01*
X82531716Y-117471938D01*
X82529000Y-117444360D01*
X82529000Y-116985640D01*
X82531716Y-116958062D01*
X82537971Y-116937443D01*
X82548124Y-116918447D01*
X82561792Y-116901792D01*
X82578447Y-116888124D01*
X82597443Y-116877971D01*
X82618062Y-116871716D01*
X82645640Y-116869000D01*
X83154360Y-116869000D01*
X83181938Y-116871716D01*
G37*
G36*
X81501000Y-117351000D02*
G01*
X80499000Y-117351000D01*
X80499000Y-116449000D01*
X81501000Y-116449000D01*
X81501000Y-117351000D01*
G37*
G36*
X91281938Y-116641716D02*
G01*
X91302557Y-116647971D01*
X91321553Y-116658124D01*
X91338208Y-116671792D01*
X91351876Y-116688447D01*
X91362029Y-116707443D01*
X91368284Y-116728062D01*
X91371000Y-116755640D01*
X91371000Y-117214360D01*
X91368284Y-117241938D01*
X91362029Y-117262557D01*
X91351876Y-117281553D01*
X91338208Y-117298208D01*
X91321553Y-117311876D01*
X91302557Y-117322029D01*
X91281938Y-117328284D01*
X91254360Y-117331000D01*
X90745640Y-117331000D01*
X90718062Y-117328284D01*
X90697443Y-117322029D01*
X90678447Y-117311876D01*
X90661792Y-117298208D01*
X90648124Y-117281553D01*
X90637971Y-117262557D01*
X90631716Y-117241938D01*
X90629000Y-117214360D01*
X90629000Y-116755640D01*
X90631716Y-116728062D01*
X90637971Y-116707443D01*
X90648124Y-116688447D01*
X90661792Y-116671792D01*
X90678447Y-116658124D01*
X90697443Y-116647971D01*
X90718062Y-116641716D01*
X90745640Y-116639000D01*
X91254360Y-116639000D01*
X91281938Y-116641716D01*
G37*
G36*
X95856938Y-116416716D02*
G01*
X95877557Y-116422971D01*
X95896553Y-116433124D01*
X95913208Y-116446792D01*
X95926876Y-116463447D01*
X95937029Y-116482443D01*
X95943284Y-116503062D01*
X95946000Y-116530640D01*
X95946000Y-116989360D01*
X95943284Y-117016938D01*
X95937029Y-117037557D01*
X95926876Y-117056553D01*
X95913208Y-117073208D01*
X95896553Y-117086876D01*
X95877557Y-117097029D01*
X95856938Y-117103284D01*
X95829360Y-117106000D01*
X95320640Y-117106000D01*
X95293062Y-117103284D01*
X95272443Y-117097029D01*
X95253447Y-117086876D01*
X95236792Y-117073208D01*
X95223124Y-117056553D01*
X95212971Y-117037557D01*
X95206716Y-117016938D01*
X95204000Y-116989360D01*
X95204000Y-116530640D01*
X95206716Y-116503062D01*
X95212971Y-116482443D01*
X95223124Y-116463447D01*
X95236792Y-116446792D01*
X95253447Y-116433124D01*
X95272443Y-116422971D01*
X95293062Y-116416716D01*
X95320640Y-116414000D01*
X95829360Y-116414000D01*
X95856938Y-116416716D01*
G37*
G36*
X72276000Y-117001000D02*
G01*
X71274000Y-117001000D01*
X71274000Y-115699000D01*
X72276000Y-115699000D01*
X72276000Y-117001000D01*
G37*
G36*
X68976000Y-117001000D02*
G01*
X67974000Y-117001000D01*
X67974000Y-115699000D01*
X68976000Y-115699000D01*
X68976000Y-117001000D01*
G37*
G36*
X86441938Y-116291716D02*
G01*
X86462557Y-116297971D01*
X86481553Y-116308124D01*
X86498208Y-116321792D01*
X86511876Y-116338447D01*
X86522029Y-116357443D01*
X86528284Y-116378062D01*
X86531000Y-116405640D01*
X86531000Y-116864360D01*
X86528284Y-116891938D01*
X86522029Y-116912557D01*
X86511876Y-116931553D01*
X86498208Y-116948208D01*
X86481553Y-116961876D01*
X86462557Y-116972029D01*
X86441938Y-116978284D01*
X86414360Y-116981000D01*
X85905640Y-116981000D01*
X85878062Y-116978284D01*
X85857443Y-116972029D01*
X85838447Y-116961876D01*
X85821792Y-116948208D01*
X85808124Y-116931553D01*
X85797971Y-116912557D01*
X85791716Y-116891938D01*
X85789000Y-116864360D01*
X85789000Y-116405640D01*
X85791716Y-116378062D01*
X85797971Y-116357443D01*
X85808124Y-116338447D01*
X85821792Y-116321792D01*
X85838447Y-116308124D01*
X85857443Y-116297971D01*
X85878062Y-116291716D01*
X85905640Y-116289000D01*
X86414360Y-116289000D01*
X86441938Y-116291716D01*
G37*
G36*
X90129591Y-115778085D02*
G01*
X90163569Y-115788393D01*
X90194890Y-115805134D01*
X90222339Y-115827661D01*
X90244866Y-115855110D01*
X90261607Y-115886431D01*
X90271915Y-115920409D01*
X90276000Y-115961890D01*
X90276000Y-116563110D01*
X90271915Y-116604591D01*
X90261607Y-116638569D01*
X90244866Y-116669890D01*
X90222339Y-116697339D01*
X90194890Y-116719866D01*
X90163569Y-116736607D01*
X90129591Y-116746915D01*
X90088110Y-116751000D01*
X89411890Y-116751000D01*
X89370409Y-116746915D01*
X89336431Y-116736607D01*
X89305110Y-116719866D01*
X89277661Y-116697339D01*
X89255134Y-116669890D01*
X89238393Y-116638569D01*
X89228085Y-116604591D01*
X89224000Y-116563110D01*
X89224000Y-115961890D01*
X89228085Y-115920409D01*
X89238393Y-115886431D01*
X89255134Y-115855110D01*
X89277661Y-115827661D01*
X89305110Y-115805134D01*
X89336431Y-115788393D01*
X89370409Y-115778085D01*
X89411890Y-115774000D01*
X90088110Y-115774000D01*
X90129591Y-115778085D01*
G37*
G36*
X106984468Y-115553565D02*
G01*
X107023138Y-115565296D01*
X107058777Y-115584346D01*
X107090017Y-115609983D01*
X107115654Y-115641223D01*
X107134704Y-115676862D01*
X107146435Y-115715532D01*
X107151000Y-115761888D01*
X107151000Y-116413112D01*
X107146435Y-116459468D01*
X107134704Y-116498138D01*
X107115654Y-116533777D01*
X107090017Y-116565017D01*
X107058777Y-116590654D01*
X107023138Y-116609704D01*
X106984468Y-116621435D01*
X106938112Y-116626000D01*
X105861888Y-116626000D01*
X105815532Y-116621435D01*
X105776862Y-116609704D01*
X105741223Y-116590654D01*
X105709983Y-116565017D01*
X105684346Y-116533777D01*
X105665296Y-116498138D01*
X105653565Y-116459468D01*
X105649000Y-116413112D01*
X105649000Y-115761888D01*
X105653565Y-115715532D01*
X105665296Y-115676862D01*
X105684346Y-115641223D01*
X105709983Y-115609983D01*
X105741223Y-115584346D01*
X105776862Y-115565296D01*
X105815532Y-115553565D01*
X105861888Y-115549000D01*
X106938112Y-115549000D01*
X106984468Y-115553565D01*
G37*
G36*
X105029591Y-115553085D02*
G01*
X105063569Y-115563393D01*
X105094890Y-115580134D01*
X105122339Y-115602661D01*
X105144866Y-115630110D01*
X105161607Y-115661431D01*
X105171915Y-115695409D01*
X105176000Y-115736890D01*
X105176000Y-116413110D01*
X105171915Y-116454591D01*
X105161607Y-116488569D01*
X105144866Y-116519890D01*
X105122339Y-116547339D01*
X105094890Y-116569866D01*
X105063569Y-116586607D01*
X105029591Y-116596915D01*
X104988110Y-116601000D01*
X104386890Y-116601000D01*
X104345409Y-116596915D01*
X104311431Y-116586607D01*
X104280110Y-116569866D01*
X104252661Y-116547339D01*
X104230134Y-116519890D01*
X104213393Y-116488569D01*
X104203085Y-116454591D01*
X104199000Y-116413110D01*
X104199000Y-115736890D01*
X104203085Y-115695409D01*
X104213393Y-115661431D01*
X104230134Y-115630110D01*
X104252661Y-115602661D01*
X104280110Y-115580134D01*
X104311431Y-115563393D01*
X104345409Y-115553085D01*
X104386890Y-115549000D01*
X104988110Y-115549000D01*
X105029591Y-115553085D01*
G37*
G36*
X77809468Y-115528565D02*
G01*
X77848138Y-115540296D01*
X77883777Y-115559346D01*
X77915017Y-115584983D01*
X77940654Y-115616223D01*
X77959704Y-115651862D01*
X77971435Y-115690532D01*
X77976000Y-115736888D01*
X77976000Y-116388112D01*
X77971435Y-116434468D01*
X77959704Y-116473138D01*
X77940654Y-116508777D01*
X77915017Y-116540017D01*
X77883777Y-116565654D01*
X77848138Y-116584704D01*
X77809468Y-116596435D01*
X77763112Y-116601000D01*
X76686888Y-116601000D01*
X76640532Y-116596435D01*
X76601862Y-116584704D01*
X76566223Y-116565654D01*
X76534983Y-116540017D01*
X76509346Y-116508777D01*
X76490296Y-116473138D01*
X76478565Y-116434468D01*
X76474000Y-116388112D01*
X76474000Y-115736888D01*
X76478565Y-115690532D01*
X76490296Y-115651862D01*
X76509346Y-115616223D01*
X76534983Y-115584983D01*
X76566223Y-115559346D01*
X76601862Y-115540296D01*
X76640532Y-115528565D01*
X76686888Y-115524000D01*
X77763112Y-115524000D01*
X77809468Y-115528565D01*
G37*
G36*
X103454591Y-115553085D02*
G01*
X103488569Y-115563393D01*
X103519890Y-115580134D01*
X103547339Y-115602661D01*
X103569866Y-115630110D01*
X103586607Y-115661431D01*
X103596915Y-115695409D01*
X103601000Y-115736890D01*
X103601000Y-116413110D01*
X103596915Y-116454591D01*
X103586607Y-116488569D01*
X103569866Y-116519890D01*
X103547339Y-116547339D01*
X103519890Y-116569866D01*
X103488569Y-116586607D01*
X103454591Y-116596915D01*
X103413110Y-116601000D01*
X102811890Y-116601000D01*
X102770409Y-116596915D01*
X102736431Y-116586607D01*
X102705110Y-116569866D01*
X102677661Y-116547339D01*
X102655134Y-116519890D01*
X102638393Y-116488569D01*
X102628085Y-116454591D01*
X102624000Y-116413110D01*
X102624000Y-115736890D01*
X102628085Y-115695409D01*
X102638393Y-115661431D01*
X102655134Y-115630110D01*
X102677661Y-115602661D01*
X102705110Y-115580134D01*
X102736431Y-115563393D01*
X102770409Y-115553085D01*
X102811890Y-115549000D01*
X103413110Y-115549000D01*
X103454591Y-115553085D01*
G37*
G36*
X83231938Y-115841716D02*
G01*
X83252557Y-115847971D01*
X83271553Y-115858124D01*
X83288208Y-115871792D01*
X83301876Y-115888447D01*
X83312029Y-115907443D01*
X83318284Y-115928062D01*
X83321000Y-115955640D01*
X83321000Y-116414360D01*
X83318284Y-116441938D01*
X83312029Y-116462557D01*
X83301876Y-116481553D01*
X83288208Y-116498208D01*
X83271553Y-116511876D01*
X83252557Y-116522029D01*
X83231938Y-116528284D01*
X83204360Y-116531000D01*
X82695640Y-116531000D01*
X82668062Y-116528284D01*
X82647443Y-116522029D01*
X82628447Y-116511876D01*
X82611792Y-116498208D01*
X82598124Y-116481553D01*
X82587971Y-116462557D01*
X82581716Y-116441938D01*
X82579000Y-116414360D01*
X82579000Y-115955640D01*
X82581716Y-115928062D01*
X82587971Y-115907443D01*
X82598124Y-115888447D01*
X82611792Y-115871792D01*
X82628447Y-115858124D01*
X82647443Y-115847971D01*
X82668062Y-115841716D01*
X82695640Y-115839000D01*
X83204360Y-115839000D01*
X83231938Y-115841716D01*
G37*
G36*
X84231938Y-115841716D02*
G01*
X84252557Y-115847971D01*
X84271553Y-115858124D01*
X84288208Y-115871792D01*
X84301876Y-115888447D01*
X84312029Y-115907443D01*
X84318284Y-115928062D01*
X84321000Y-115955640D01*
X84321000Y-116414360D01*
X84318284Y-116441938D01*
X84312029Y-116462557D01*
X84301876Y-116481553D01*
X84288208Y-116498208D01*
X84271553Y-116511876D01*
X84252557Y-116522029D01*
X84231938Y-116528284D01*
X84204360Y-116531000D01*
X83695640Y-116531000D01*
X83668062Y-116528284D01*
X83647443Y-116522029D01*
X83628447Y-116511876D01*
X83611792Y-116498208D01*
X83598124Y-116481553D01*
X83587971Y-116462557D01*
X83581716Y-116441938D01*
X83579000Y-116414360D01*
X83579000Y-115955640D01*
X83581716Y-115928062D01*
X83587971Y-115907443D01*
X83598124Y-115888447D01*
X83611792Y-115871792D01*
X83628447Y-115858124D01*
X83647443Y-115847971D01*
X83668062Y-115841716D01*
X83695640Y-115839000D01*
X84204360Y-115839000D01*
X84231938Y-115841716D01*
G37*
G36*
X102004591Y-115553085D02*
G01*
X102038569Y-115563393D01*
X102069890Y-115580134D01*
X102097339Y-115602661D01*
X102119866Y-115630110D01*
X102136607Y-115661431D01*
X102146915Y-115695409D01*
X102151000Y-115736890D01*
X102151000Y-116338110D01*
X102146915Y-116379591D01*
X102136607Y-116413569D01*
X102119866Y-116444890D01*
X102097339Y-116472339D01*
X102069890Y-116494866D01*
X102038569Y-116511607D01*
X102004591Y-116521915D01*
X101963110Y-116526000D01*
X101286890Y-116526000D01*
X101245409Y-116521915D01*
X101211431Y-116511607D01*
X101180110Y-116494866D01*
X101152661Y-116472339D01*
X101130134Y-116444890D01*
X101113393Y-116413569D01*
X101103085Y-116379591D01*
X101099000Y-116338110D01*
X101099000Y-115736890D01*
X101103085Y-115695409D01*
X101113393Y-115661431D01*
X101130134Y-115630110D01*
X101152661Y-115602661D01*
X101180110Y-115580134D01*
X101211431Y-115563393D01*
X101245409Y-115553085D01*
X101286890Y-115549000D01*
X101963110Y-115549000D01*
X102004591Y-115553085D01*
G37*
G36*
X79501000Y-116401000D02*
G01*
X78499000Y-116401000D01*
X78499000Y-115499000D01*
X79501000Y-115499000D01*
X79501000Y-116401000D01*
G37*
G36*
X91281938Y-115671716D02*
G01*
X91302557Y-115677971D01*
X91321553Y-115688124D01*
X91338208Y-115701792D01*
X91351876Y-115718447D01*
X91362029Y-115737443D01*
X91368284Y-115758062D01*
X91371000Y-115785640D01*
X91371000Y-116244360D01*
X91368284Y-116271938D01*
X91362029Y-116292557D01*
X91351876Y-116311553D01*
X91338208Y-116328208D01*
X91321553Y-116341876D01*
X91302557Y-116352029D01*
X91281938Y-116358284D01*
X91254360Y-116361000D01*
X90745640Y-116361000D01*
X90718062Y-116358284D01*
X90697443Y-116352029D01*
X90678447Y-116341876D01*
X90661792Y-116328208D01*
X90648124Y-116311553D01*
X90637971Y-116292557D01*
X90631716Y-116271938D01*
X90629000Y-116244360D01*
X90629000Y-115785640D01*
X90631716Y-115758062D01*
X90637971Y-115737443D01*
X90648124Y-115718447D01*
X90661792Y-115701792D01*
X90678447Y-115688124D01*
X90697443Y-115677971D01*
X90718062Y-115671716D01*
X90745640Y-115669000D01*
X91254360Y-115669000D01*
X91281938Y-115671716D01*
G37*
G36*
X74481938Y-115541716D02*
G01*
X74502557Y-115547971D01*
X74521553Y-115558124D01*
X74538208Y-115571792D01*
X74551876Y-115588447D01*
X74562029Y-115607443D01*
X74568284Y-115628062D01*
X74571000Y-115655640D01*
X74571000Y-116114360D01*
X74568284Y-116141938D01*
X74562029Y-116162557D01*
X74551876Y-116181553D01*
X74538208Y-116198208D01*
X74521553Y-116211876D01*
X74502557Y-116222029D01*
X74481938Y-116228284D01*
X74454360Y-116231000D01*
X73945640Y-116231000D01*
X73918062Y-116228284D01*
X73897443Y-116222029D01*
X73878447Y-116211876D01*
X73861792Y-116198208D01*
X73848124Y-116181553D01*
X73837971Y-116162557D01*
X73831716Y-116141938D01*
X73829000Y-116114360D01*
X73829000Y-115655640D01*
X73831716Y-115628062D01*
X73837971Y-115607443D01*
X73848124Y-115588447D01*
X73861792Y-115571792D01*
X73878447Y-115558124D01*
X73897443Y-115547971D01*
X73918062Y-115541716D01*
X73945640Y-115539000D01*
X74454360Y-115539000D01*
X74481938Y-115541716D01*
G37*
G36*
X75631938Y-115541716D02*
G01*
X75652557Y-115547971D01*
X75671553Y-115558124D01*
X75688208Y-115571792D01*
X75701876Y-115588447D01*
X75712029Y-115607443D01*
X75718284Y-115628062D01*
X75721000Y-115655640D01*
X75721000Y-116114360D01*
X75718284Y-116141938D01*
X75712029Y-116162557D01*
X75701876Y-116181553D01*
X75688208Y-116198208D01*
X75671553Y-116211876D01*
X75652557Y-116222029D01*
X75631938Y-116228284D01*
X75604360Y-116231000D01*
X75095640Y-116231000D01*
X75068062Y-116228284D01*
X75047443Y-116222029D01*
X75028447Y-116211876D01*
X75011792Y-116198208D01*
X74998124Y-116181553D01*
X74987971Y-116162557D01*
X74981716Y-116141938D01*
X74979000Y-116114360D01*
X74979000Y-115655640D01*
X74981716Y-115628062D01*
X74987971Y-115607443D01*
X74998124Y-115588447D01*
X75011792Y-115571792D01*
X75028447Y-115558124D01*
X75047443Y-115547971D01*
X75068062Y-115541716D01*
X75095640Y-115539000D01*
X75604360Y-115539000D01*
X75631938Y-115541716D01*
G37*
G36*
X97451000Y-116151000D02*
G01*
X96299000Y-116151000D01*
X96299000Y-115449000D01*
X97451000Y-115449000D01*
X97451000Y-116151000D01*
G37*
G36*
X100501000Y-116151000D02*
G01*
X99349000Y-116151000D01*
X99349000Y-115449000D01*
X100501000Y-115449000D01*
X100501000Y-116151000D01*
G37*
G36*
X95856938Y-115446716D02*
G01*
X95877557Y-115452971D01*
X95896553Y-115463124D01*
X95913208Y-115476792D01*
X95926876Y-115493447D01*
X95937029Y-115512443D01*
X95943284Y-115533062D01*
X95946000Y-115560640D01*
X95946000Y-116019360D01*
X95943284Y-116046938D01*
X95937029Y-116067557D01*
X95926876Y-116086553D01*
X95913208Y-116103208D01*
X95896553Y-116116876D01*
X95877557Y-116127029D01*
X95856938Y-116133284D01*
X95829360Y-116136000D01*
X95320640Y-116136000D01*
X95293062Y-116133284D01*
X95272443Y-116127029D01*
X95253447Y-116116876D01*
X95236792Y-116103208D01*
X95223124Y-116086553D01*
X95212971Y-116067557D01*
X95206716Y-116046938D01*
X95204000Y-116019360D01*
X95204000Y-115560640D01*
X95206716Y-115533062D01*
X95212971Y-115512443D01*
X95223124Y-115493447D01*
X95236792Y-115476792D01*
X95253447Y-115463124D01*
X95272443Y-115452971D01*
X95293062Y-115446716D01*
X95320640Y-115444000D01*
X95829360Y-115444000D01*
X95856938Y-115446716D01*
G37*
G36*
X86441938Y-115321716D02*
G01*
X86462557Y-115327971D01*
X86481553Y-115338124D01*
X86498208Y-115351792D01*
X86511876Y-115368447D01*
X86522029Y-115387443D01*
X86528284Y-115408062D01*
X86531000Y-115435640D01*
X86531000Y-115894360D01*
X86528284Y-115921938D01*
X86522029Y-115942557D01*
X86511876Y-115961553D01*
X86498208Y-115978208D01*
X86481553Y-115991876D01*
X86462557Y-116002029D01*
X86441938Y-116008284D01*
X86414360Y-116011000D01*
X85905640Y-116011000D01*
X85878062Y-116008284D01*
X85857443Y-116002029D01*
X85838447Y-115991876D01*
X85821792Y-115978208D01*
X85808124Y-115961553D01*
X85797971Y-115942557D01*
X85791716Y-115921938D01*
X85789000Y-115894360D01*
X85789000Y-115435640D01*
X85791716Y-115408062D01*
X85797971Y-115387443D01*
X85808124Y-115368447D01*
X85821792Y-115351792D01*
X85838447Y-115338124D01*
X85857443Y-115327971D01*
X85878062Y-115321716D01*
X85905640Y-115319000D01*
X86414360Y-115319000D01*
X86441938Y-115321716D01*
G37*
G36*
X83231938Y-114871716D02*
G01*
X83252557Y-114877971D01*
X83271553Y-114888124D01*
X83288208Y-114901792D01*
X83301876Y-114918447D01*
X83312029Y-114937443D01*
X83318284Y-114958062D01*
X83321000Y-114985640D01*
X83321000Y-115444360D01*
X83318284Y-115471938D01*
X83312029Y-115492557D01*
X83301876Y-115511553D01*
X83288208Y-115528208D01*
X83271553Y-115541876D01*
X83252557Y-115552029D01*
X83231938Y-115558284D01*
X83204360Y-115561000D01*
X82695640Y-115561000D01*
X82668062Y-115558284D01*
X82647443Y-115552029D01*
X82628447Y-115541876D01*
X82611792Y-115528208D01*
X82598124Y-115511553D01*
X82587971Y-115492557D01*
X82581716Y-115471938D01*
X82579000Y-115444360D01*
X82579000Y-114985640D01*
X82581716Y-114958062D01*
X82587971Y-114937443D01*
X82598124Y-114918447D01*
X82611792Y-114901792D01*
X82628447Y-114888124D01*
X82647443Y-114877971D01*
X82668062Y-114871716D01*
X82695640Y-114869000D01*
X83204360Y-114869000D01*
X83231938Y-114871716D01*
G37*
G36*
X84231938Y-114871716D02*
G01*
X84252557Y-114877971D01*
X84271553Y-114888124D01*
X84288208Y-114901792D01*
X84301876Y-114918447D01*
X84312029Y-114937443D01*
X84318284Y-114958062D01*
X84321000Y-114985640D01*
X84321000Y-115444360D01*
X84318284Y-115471938D01*
X84312029Y-115492557D01*
X84301876Y-115511553D01*
X84288208Y-115528208D01*
X84271553Y-115541876D01*
X84252557Y-115552029D01*
X84231938Y-115558284D01*
X84204360Y-115561000D01*
X83695640Y-115561000D01*
X83668062Y-115558284D01*
X83647443Y-115552029D01*
X83628447Y-115541876D01*
X83611792Y-115528208D01*
X83598124Y-115511553D01*
X83587971Y-115492557D01*
X83581716Y-115471938D01*
X83579000Y-115444360D01*
X83579000Y-114985640D01*
X83581716Y-114958062D01*
X83587971Y-114937443D01*
X83598124Y-114918447D01*
X83611792Y-114901792D01*
X83628447Y-114888124D01*
X83647443Y-114877971D01*
X83668062Y-114871716D01*
X83695640Y-114869000D01*
X84204360Y-114869000D01*
X84231938Y-114871716D01*
G37*
G36*
X111809434Y-114213686D02*
G01*
X111849284Y-114225774D01*
X111885999Y-114245399D01*
X111918186Y-114271814D01*
X111944601Y-114304001D01*
X111964226Y-114340716D01*
X111976314Y-114380566D01*
X111981000Y-114428141D01*
X111981000Y-115091859D01*
X111976314Y-115139434D01*
X111964226Y-115179284D01*
X111944601Y-115215999D01*
X111918186Y-115248186D01*
X111885999Y-115274601D01*
X111849284Y-115294226D01*
X111809434Y-115306314D01*
X111761859Y-115311000D01*
X108598141Y-115311000D01*
X108550566Y-115306314D01*
X108510716Y-115294226D01*
X108474001Y-115274601D01*
X108441814Y-115248186D01*
X108415399Y-115215999D01*
X108395774Y-115179284D01*
X108383686Y-115139434D01*
X108379000Y-115091859D01*
X108379000Y-114428141D01*
X108383686Y-114380566D01*
X108395774Y-114340716D01*
X108415399Y-114304001D01*
X108441814Y-114271814D01*
X108474001Y-114245399D01*
X108510716Y-114225774D01*
X108550566Y-114213686D01*
X108598141Y-114209000D01*
X111761859Y-114209000D01*
X111809434Y-114213686D01*
G37*
G36*
X74481938Y-114571716D02*
G01*
X74502557Y-114577971D01*
X74521553Y-114588124D01*
X74538208Y-114601792D01*
X74551876Y-114618447D01*
X74562029Y-114637443D01*
X74568284Y-114658062D01*
X74571000Y-114685640D01*
X74571000Y-115144360D01*
X74568284Y-115171938D01*
X74562029Y-115192557D01*
X74551876Y-115211553D01*
X74538208Y-115228208D01*
X74521553Y-115241876D01*
X74502557Y-115252029D01*
X74481938Y-115258284D01*
X74454360Y-115261000D01*
X73945640Y-115261000D01*
X73918062Y-115258284D01*
X73897443Y-115252029D01*
X73878447Y-115241876D01*
X73861792Y-115228208D01*
X73848124Y-115211553D01*
X73837971Y-115192557D01*
X73831716Y-115171938D01*
X73829000Y-115144360D01*
X73829000Y-114685640D01*
X73831716Y-114658062D01*
X73837971Y-114637443D01*
X73848124Y-114618447D01*
X73861792Y-114601792D01*
X73878447Y-114588124D01*
X73897443Y-114577971D01*
X73918062Y-114571716D01*
X73945640Y-114569000D01*
X74454360Y-114569000D01*
X74481938Y-114571716D01*
G37*
G36*
X75631938Y-114571716D02*
G01*
X75652557Y-114577971D01*
X75671553Y-114588124D01*
X75688208Y-114601792D01*
X75701876Y-114618447D01*
X75712029Y-114637443D01*
X75718284Y-114658062D01*
X75721000Y-114685640D01*
X75721000Y-115144360D01*
X75718284Y-115171938D01*
X75712029Y-115192557D01*
X75701876Y-115211553D01*
X75688208Y-115228208D01*
X75671553Y-115241876D01*
X75652557Y-115252029D01*
X75631938Y-115258284D01*
X75604360Y-115261000D01*
X75095640Y-115261000D01*
X75068062Y-115258284D01*
X75047443Y-115252029D01*
X75028447Y-115241876D01*
X75011792Y-115228208D01*
X74998124Y-115211553D01*
X74987971Y-115192557D01*
X74981716Y-115171938D01*
X74979000Y-115144360D01*
X74979000Y-114685640D01*
X74981716Y-114658062D01*
X74987971Y-114637443D01*
X74998124Y-114618447D01*
X75011792Y-114601792D01*
X75028447Y-114588124D01*
X75047443Y-114577971D01*
X75068062Y-114571716D01*
X75095640Y-114569000D01*
X75604360Y-114569000D01*
X75631938Y-114571716D01*
G37*
G36*
X95856938Y-114466716D02*
G01*
X95877557Y-114472971D01*
X95896553Y-114483124D01*
X95913208Y-114496792D01*
X95926876Y-114513447D01*
X95937029Y-114532443D01*
X95943284Y-114553062D01*
X95946000Y-114580640D01*
X95946000Y-115039360D01*
X95943284Y-115066938D01*
X95937029Y-115087557D01*
X95926876Y-115106553D01*
X95913208Y-115123208D01*
X95896553Y-115136876D01*
X95877557Y-115147029D01*
X95856938Y-115153284D01*
X95829360Y-115156000D01*
X95320640Y-115156000D01*
X95293062Y-115153284D01*
X95272443Y-115147029D01*
X95253447Y-115136876D01*
X95236792Y-115123208D01*
X95223124Y-115106553D01*
X95212971Y-115087557D01*
X95206716Y-115066938D01*
X95204000Y-115039360D01*
X95204000Y-114580640D01*
X95206716Y-114553062D01*
X95212971Y-114532443D01*
X95223124Y-114513447D01*
X95236792Y-114496792D01*
X95253447Y-114483124D01*
X95272443Y-114472971D01*
X95293062Y-114466716D01*
X95320640Y-114464000D01*
X95829360Y-114464000D01*
X95856938Y-114466716D01*
G37*
G36*
X97451000Y-115151000D02*
G01*
X96299000Y-115151000D01*
X96299000Y-114449000D01*
X97451000Y-114449000D01*
X97451000Y-115151000D01*
G37*
G36*
X100501000Y-115151000D02*
G01*
X99349000Y-115151000D01*
X99349000Y-114449000D01*
X100501000Y-114449000D01*
X100501000Y-115151000D01*
G37*
G36*
X105029591Y-114003085D02*
G01*
X105063569Y-114013393D01*
X105094890Y-114030134D01*
X105122339Y-114052661D01*
X105144866Y-114080110D01*
X105161607Y-114111431D01*
X105171915Y-114145409D01*
X105176000Y-114186890D01*
X105176000Y-114863110D01*
X105171915Y-114904591D01*
X105161607Y-114938569D01*
X105144866Y-114969890D01*
X105122339Y-114997339D01*
X105094890Y-115019866D01*
X105063569Y-115036607D01*
X105029591Y-115046915D01*
X104988110Y-115051000D01*
X104386890Y-115051000D01*
X104345409Y-115046915D01*
X104311431Y-115036607D01*
X104280110Y-115019866D01*
X104252661Y-114997339D01*
X104230134Y-114969890D01*
X104213393Y-114938569D01*
X104203085Y-114904591D01*
X104199000Y-114863110D01*
X104199000Y-114186890D01*
X104203085Y-114145409D01*
X104213393Y-114111431D01*
X104230134Y-114080110D01*
X104252661Y-114052661D01*
X104280110Y-114030134D01*
X104311431Y-114013393D01*
X104345409Y-114003085D01*
X104386890Y-113999000D01*
X104988110Y-113999000D01*
X105029591Y-114003085D01*
G37*
G36*
X102004591Y-114078085D02*
G01*
X102038569Y-114088393D01*
X102069890Y-114105134D01*
X102097339Y-114127661D01*
X102119866Y-114155110D01*
X102136607Y-114186431D01*
X102146915Y-114220409D01*
X102151000Y-114261890D01*
X102151000Y-114863110D01*
X102146915Y-114904591D01*
X102136607Y-114938569D01*
X102119866Y-114969890D01*
X102097339Y-114997339D01*
X102069890Y-115019866D01*
X102038569Y-115036607D01*
X102004591Y-115046915D01*
X101963110Y-115051000D01*
X101286890Y-115051000D01*
X101245409Y-115046915D01*
X101211431Y-115036607D01*
X101180110Y-115019866D01*
X101152661Y-114997339D01*
X101130134Y-114969890D01*
X101113393Y-114938569D01*
X101103085Y-114904591D01*
X101099000Y-114863110D01*
X101099000Y-114261890D01*
X101103085Y-114220409D01*
X101113393Y-114186431D01*
X101130134Y-114155110D01*
X101152661Y-114127661D01*
X101180110Y-114105134D01*
X101211431Y-114088393D01*
X101245409Y-114078085D01*
X101286890Y-114074000D01*
X101963110Y-114074000D01*
X102004591Y-114078085D01*
G37*
G36*
X106984468Y-113978565D02*
G01*
X107023138Y-113990296D01*
X107058777Y-114009346D01*
X107090017Y-114034983D01*
X107115654Y-114066223D01*
X107134704Y-114101862D01*
X107146435Y-114140532D01*
X107151000Y-114186888D01*
X107151000Y-114838112D01*
X107146435Y-114884468D01*
X107134704Y-114923138D01*
X107115654Y-114958777D01*
X107090017Y-114990017D01*
X107058777Y-115015654D01*
X107023138Y-115034704D01*
X106984468Y-115046435D01*
X106938112Y-115051000D01*
X105861888Y-115051000D01*
X105815532Y-115046435D01*
X105776862Y-115034704D01*
X105741223Y-115015654D01*
X105709983Y-114990017D01*
X105684346Y-114958777D01*
X105665296Y-114923138D01*
X105653565Y-114884468D01*
X105649000Y-114838112D01*
X105649000Y-114186888D01*
X105653565Y-114140532D01*
X105665296Y-114101862D01*
X105684346Y-114066223D01*
X105709983Y-114034983D01*
X105741223Y-114009346D01*
X105776862Y-113990296D01*
X105815532Y-113978565D01*
X105861888Y-113974000D01*
X106938112Y-113974000D01*
X106984468Y-113978565D01*
G37*
G36*
X103454591Y-114003085D02*
G01*
X103488569Y-114013393D01*
X103519890Y-114030134D01*
X103547339Y-114052661D01*
X103569866Y-114080110D01*
X103586607Y-114111431D01*
X103596915Y-114145409D01*
X103601000Y-114186890D01*
X103601000Y-114863110D01*
X103596915Y-114904591D01*
X103586607Y-114938569D01*
X103569866Y-114969890D01*
X103547339Y-114997339D01*
X103519890Y-115019866D01*
X103488569Y-115036607D01*
X103454591Y-115046915D01*
X103413110Y-115051000D01*
X102811890Y-115051000D01*
X102770409Y-115046915D01*
X102736431Y-115036607D01*
X102705110Y-115019866D01*
X102677661Y-114997339D01*
X102655134Y-114969890D01*
X102638393Y-114938569D01*
X102628085Y-114904591D01*
X102624000Y-114863110D01*
X102624000Y-114186890D01*
X102628085Y-114145409D01*
X102638393Y-114111431D01*
X102655134Y-114080110D01*
X102677661Y-114052661D01*
X102705110Y-114030134D01*
X102736431Y-114013393D01*
X102770409Y-114003085D01*
X102811890Y-113999000D01*
X103413110Y-113999000D01*
X103454591Y-114003085D01*
G37*
G36*
X94639941Y-114219487D02*
G01*
X94660560Y-114225742D01*
X94679556Y-114235895D01*
X94696211Y-114249563D01*
X94709879Y-114266218D01*
X94720032Y-114285214D01*
X94726287Y-114305833D01*
X94729003Y-114333411D01*
X94729003Y-114792131D01*
X94726287Y-114819709D01*
X94720032Y-114840328D01*
X94709879Y-114859324D01*
X94696211Y-114875979D01*
X94679556Y-114889647D01*
X94660560Y-114899800D01*
X94639941Y-114906055D01*
X94612363Y-114908771D01*
X94103643Y-114908771D01*
X94076065Y-114906055D01*
X94055446Y-114899800D01*
X94036450Y-114889647D01*
X94019795Y-114875979D01*
X94006127Y-114859324D01*
X93995974Y-114840328D01*
X93989719Y-114819709D01*
X93987003Y-114792131D01*
X93987003Y-114333411D01*
X93989719Y-114305833D01*
X93995974Y-114285214D01*
X94006127Y-114266218D01*
X94019795Y-114249563D01*
X94036450Y-114235895D01*
X94055446Y-114225742D01*
X94076065Y-114219487D01*
X94103643Y-114216771D01*
X94612363Y-114216771D01*
X94639941Y-114219487D01*
G37*
G36*
X93639941Y-114219486D02*
G01*
X93660560Y-114225741D01*
X93679556Y-114235894D01*
X93696211Y-114249562D01*
X93709879Y-114266217D01*
X93720032Y-114285213D01*
X93726287Y-114305832D01*
X93729003Y-114333410D01*
X93729003Y-114792130D01*
X93726287Y-114819708D01*
X93720032Y-114840327D01*
X93709879Y-114859323D01*
X93696211Y-114875978D01*
X93679556Y-114889646D01*
X93660560Y-114899799D01*
X93639941Y-114906054D01*
X93612363Y-114908770D01*
X93103643Y-114908770D01*
X93076065Y-114906054D01*
X93055446Y-114899799D01*
X93036450Y-114889646D01*
X93019795Y-114875978D01*
X93006127Y-114859323D01*
X92995974Y-114840327D01*
X92989719Y-114819708D01*
X92987003Y-114792130D01*
X92987003Y-114333410D01*
X92989719Y-114305832D01*
X92995974Y-114285213D01*
X93006127Y-114266217D01*
X93019795Y-114249562D01*
X93036450Y-114235894D01*
X93055446Y-114225741D01*
X93076065Y-114219486D01*
X93103643Y-114216770D01*
X93612363Y-114216770D01*
X93639941Y-114219486D01*
G37*
G36*
X73137307Y-111353498D02*
G01*
X73175318Y-111365029D01*
X73210342Y-111383749D01*
X73241049Y-111408951D01*
X73266251Y-111439658D01*
X73284971Y-111474682D01*
X73296502Y-111512693D01*
X73301000Y-111558363D01*
X73301000Y-114641637D01*
X73296502Y-114687307D01*
X73284971Y-114725318D01*
X73266251Y-114760342D01*
X73241049Y-114791049D01*
X73210342Y-114816251D01*
X73175318Y-114834971D01*
X73137307Y-114846502D01*
X73091637Y-114851000D01*
X72283363Y-114851000D01*
X72237693Y-114846502D01*
X72199682Y-114834971D01*
X72164658Y-114816251D01*
X72133951Y-114791049D01*
X72108749Y-114760342D01*
X72090029Y-114725318D01*
X72078498Y-114687307D01*
X72074000Y-114641637D01*
X72074000Y-111558363D01*
X72078498Y-111512693D01*
X72090029Y-111474682D01*
X72108749Y-111439658D01*
X72133951Y-111408951D01*
X72164658Y-111383749D01*
X72199682Y-111365029D01*
X72237693Y-111353498D01*
X72283363Y-111349000D01*
X73091637Y-111349000D01*
X73137307Y-111353498D01*
G37*
G36*
X68862307Y-111353498D02*
G01*
X68900318Y-111365029D01*
X68935342Y-111383749D01*
X68966049Y-111408951D01*
X68991251Y-111439658D01*
X69009971Y-111474682D01*
X69021502Y-111512693D01*
X69026000Y-111558363D01*
X69026000Y-114641637D01*
X69021502Y-114687307D01*
X69009971Y-114725318D01*
X68991251Y-114760342D01*
X68966049Y-114791049D01*
X68935342Y-114816251D01*
X68900318Y-114834971D01*
X68862307Y-114846502D01*
X68816637Y-114851000D01*
X68008363Y-114851000D01*
X67962693Y-114846502D01*
X67924682Y-114834971D01*
X67889658Y-114816251D01*
X67858951Y-114791049D01*
X67833749Y-114760342D01*
X67815029Y-114725318D01*
X67803498Y-114687307D01*
X67799000Y-114641637D01*
X67799000Y-111558363D01*
X67803498Y-111512693D01*
X67815029Y-111474682D01*
X67833749Y-111439658D01*
X67858951Y-111408951D01*
X67889658Y-111383749D01*
X67924682Y-111365029D01*
X67962693Y-111353498D01*
X68008363Y-111349000D01*
X68816637Y-111349000D01*
X68862307Y-111353498D01*
G37*
G36*
X86755355Y-108850083D02*
G01*
X86760029Y-108851501D01*
X86764330Y-108853800D01*
X86770702Y-108859029D01*
X86791076Y-108872643D01*
X86813715Y-108882020D01*
X86837749Y-108886800D01*
X86862253Y-108886800D01*
X86886286Y-108882019D01*
X86908925Y-108872642D01*
X86929298Y-108859029D01*
X86935670Y-108853800D01*
X86939971Y-108851501D01*
X86944645Y-108850083D01*
X86955641Y-108849000D01*
X87244359Y-108849000D01*
X87255355Y-108850083D01*
X87260029Y-108851501D01*
X87264330Y-108853800D01*
X87270702Y-108859029D01*
X87291076Y-108872643D01*
X87313715Y-108882020D01*
X87337749Y-108886800D01*
X87362253Y-108886800D01*
X87386286Y-108882019D01*
X87408925Y-108872642D01*
X87429298Y-108859029D01*
X87435670Y-108853800D01*
X87439971Y-108851501D01*
X87444645Y-108850083D01*
X87455641Y-108849000D01*
X87744359Y-108849000D01*
X87755355Y-108850083D01*
X87760029Y-108851501D01*
X87764330Y-108853800D01*
X87770702Y-108859029D01*
X87791076Y-108872643D01*
X87813715Y-108882020D01*
X87837749Y-108886800D01*
X87862253Y-108886800D01*
X87886286Y-108882019D01*
X87908925Y-108872642D01*
X87929298Y-108859029D01*
X87935670Y-108853800D01*
X87939971Y-108851501D01*
X87944645Y-108850083D01*
X87955641Y-108849000D01*
X88244359Y-108849000D01*
X88255355Y-108850083D01*
X88260029Y-108851501D01*
X88264330Y-108853800D01*
X88270702Y-108859029D01*
X88291076Y-108872643D01*
X88313715Y-108882020D01*
X88337749Y-108886800D01*
X88362253Y-108886800D01*
X88386286Y-108882019D01*
X88408925Y-108872642D01*
X88429298Y-108859029D01*
X88435670Y-108853800D01*
X88439971Y-108851501D01*
X88444645Y-108850083D01*
X88455641Y-108849000D01*
X88744359Y-108849000D01*
X88755355Y-108850083D01*
X88760029Y-108851501D01*
X88764330Y-108853800D01*
X88770702Y-108859029D01*
X88791076Y-108872643D01*
X88813715Y-108882020D01*
X88837749Y-108886800D01*
X88862253Y-108886800D01*
X88886286Y-108882019D01*
X88908925Y-108872642D01*
X88929298Y-108859029D01*
X88935670Y-108853800D01*
X88939971Y-108851501D01*
X88944645Y-108850083D01*
X88955641Y-108849000D01*
X89244359Y-108849000D01*
X89255355Y-108850083D01*
X89260029Y-108851501D01*
X89264330Y-108853800D01*
X89270702Y-108859029D01*
X89291076Y-108872643D01*
X89313715Y-108882020D01*
X89337749Y-108886800D01*
X89362253Y-108886800D01*
X89386286Y-108882019D01*
X89408925Y-108872642D01*
X89429298Y-108859029D01*
X89435670Y-108853800D01*
X89439971Y-108851501D01*
X89444645Y-108850083D01*
X89455641Y-108849000D01*
X89744359Y-108849000D01*
X89755355Y-108850083D01*
X89760029Y-108851501D01*
X89764330Y-108853800D01*
X89770702Y-108859029D01*
X89791076Y-108872643D01*
X89813715Y-108882020D01*
X89837749Y-108886800D01*
X89862253Y-108886800D01*
X89886286Y-108882019D01*
X89908925Y-108872642D01*
X89929298Y-108859029D01*
X89935670Y-108853800D01*
X89939971Y-108851501D01*
X89944645Y-108850083D01*
X89955641Y-108849000D01*
X90244359Y-108849000D01*
X90255355Y-108850083D01*
X90260029Y-108851501D01*
X90264331Y-108853800D01*
X90268104Y-108856896D01*
X90271200Y-108860669D01*
X90273499Y-108864971D01*
X90274917Y-108869645D01*
X90276000Y-108880641D01*
X90276000Y-109699001D01*
X90278402Y-109723387D01*
X90285515Y-109746836D01*
X90297066Y-109768447D01*
X90312611Y-109787389D01*
X90331553Y-109802934D01*
X90353164Y-109814485D01*
X90376613Y-109821598D01*
X90400999Y-109824000D01*
X91219359Y-109824000D01*
X91230355Y-109825083D01*
X91235029Y-109826501D01*
X91239331Y-109828800D01*
X91243104Y-109831896D01*
X91246200Y-109835669D01*
X91248499Y-109839971D01*
X91249917Y-109844645D01*
X91251000Y-109855641D01*
X91251000Y-110144359D01*
X91249917Y-110155355D01*
X91248499Y-110160029D01*
X91246200Y-110164330D01*
X91240971Y-110170702D01*
X91227357Y-110191076D01*
X91217980Y-110213715D01*
X91213200Y-110237749D01*
X91213200Y-110262253D01*
X91217981Y-110286286D01*
X91227358Y-110308925D01*
X91240971Y-110329298D01*
X91246200Y-110335670D01*
X91248499Y-110339971D01*
X91249917Y-110344645D01*
X91251000Y-110355641D01*
X91251000Y-110644359D01*
X91249917Y-110655355D01*
X91248499Y-110660029D01*
X91246200Y-110664330D01*
X91240971Y-110670702D01*
X91227357Y-110691076D01*
X91217980Y-110713715D01*
X91213200Y-110737749D01*
X91213200Y-110762253D01*
X91217981Y-110786286D01*
X91227358Y-110808925D01*
X91240971Y-110829298D01*
X91246200Y-110835670D01*
X91248499Y-110839971D01*
X91249917Y-110844645D01*
X91251000Y-110855641D01*
X91251000Y-111144359D01*
X91249917Y-111155355D01*
X91248499Y-111160029D01*
X91246200Y-111164330D01*
X91240971Y-111170702D01*
X91227357Y-111191076D01*
X91217980Y-111213715D01*
X91213200Y-111237749D01*
X91213200Y-111262253D01*
X91217981Y-111286286D01*
X91227358Y-111308925D01*
X91240971Y-111329298D01*
X91246200Y-111335670D01*
X91248499Y-111339971D01*
X91249917Y-111344645D01*
X91251000Y-111355641D01*
X91251000Y-111644359D01*
X91249917Y-111655355D01*
X91248499Y-111660029D01*
X91246200Y-111664330D01*
X91240971Y-111670702D01*
X91227357Y-111691076D01*
X91217980Y-111713715D01*
X91213200Y-111737749D01*
X91213200Y-111762253D01*
X91217981Y-111786286D01*
X91227358Y-111808925D01*
X91240971Y-111829298D01*
X91246200Y-111835670D01*
X91248499Y-111839971D01*
X91249917Y-111844645D01*
X91251000Y-111855641D01*
X91251000Y-112144359D01*
X91249917Y-112155355D01*
X91248499Y-112160029D01*
X91246200Y-112164330D01*
X91240971Y-112170702D01*
X91227357Y-112191076D01*
X91217980Y-112213715D01*
X91213200Y-112237749D01*
X91213200Y-112262253D01*
X91217981Y-112286286D01*
X91227358Y-112308925D01*
X91240971Y-112329298D01*
X91246200Y-112335670D01*
X91248499Y-112339971D01*
X91249917Y-112344645D01*
X91251000Y-112355641D01*
X91251000Y-112644359D01*
X91249917Y-112655355D01*
X91248499Y-112660029D01*
X91246200Y-112664330D01*
X91240971Y-112670702D01*
X91227357Y-112691076D01*
X91217980Y-112713715D01*
X91213200Y-112737749D01*
X91213200Y-112762253D01*
X91217981Y-112786286D01*
X91227358Y-112808925D01*
X91240971Y-112829298D01*
X91246200Y-112835670D01*
X91248499Y-112839971D01*
X91249917Y-112844645D01*
X91251000Y-112855641D01*
X91251000Y-113144359D01*
X91249917Y-113155355D01*
X91248499Y-113160029D01*
X91246200Y-113164330D01*
X91240971Y-113170702D01*
X91227357Y-113191076D01*
X91217980Y-113213715D01*
X91213200Y-113237749D01*
X91213200Y-113262253D01*
X91217981Y-113286286D01*
X91227358Y-113308925D01*
X91240971Y-113329298D01*
X91246200Y-113335670D01*
X91248499Y-113339971D01*
X91249917Y-113344645D01*
X91251000Y-113355641D01*
X91251000Y-113644359D01*
X91249917Y-113655355D01*
X91248499Y-113660029D01*
X91246200Y-113664331D01*
X91243104Y-113668104D01*
X91239331Y-113671200D01*
X91235029Y-113673499D01*
X91230355Y-113674917D01*
X91219359Y-113676000D01*
X90400999Y-113676000D01*
X90376613Y-113678402D01*
X90353164Y-113685515D01*
X90331553Y-113697066D01*
X90312611Y-113712611D01*
X90297066Y-113731553D01*
X90285515Y-113753164D01*
X90278402Y-113776613D01*
X90276000Y-113800999D01*
X90276000Y-114619359D01*
X90274917Y-114630355D01*
X90273499Y-114635029D01*
X90271200Y-114639331D01*
X90268104Y-114643104D01*
X90264331Y-114646200D01*
X90260029Y-114648499D01*
X90255355Y-114649917D01*
X90244359Y-114651000D01*
X89955641Y-114651000D01*
X89944645Y-114649917D01*
X89939971Y-114648499D01*
X89935670Y-114646200D01*
X89929298Y-114640971D01*
X89908924Y-114627357D01*
X89886285Y-114617980D01*
X89862251Y-114613200D01*
X89837747Y-114613200D01*
X89813714Y-114617981D01*
X89791075Y-114627358D01*
X89770702Y-114640971D01*
X89764330Y-114646200D01*
X89760029Y-114648499D01*
X89755355Y-114649917D01*
X89744359Y-114651000D01*
X89455641Y-114651000D01*
X89444645Y-114649917D01*
X89439971Y-114648499D01*
X89435670Y-114646200D01*
X89429298Y-114640971D01*
X89408924Y-114627357D01*
X89386285Y-114617980D01*
X89362251Y-114613200D01*
X89337747Y-114613200D01*
X89313714Y-114617981D01*
X89291075Y-114627358D01*
X89270702Y-114640971D01*
X89264330Y-114646200D01*
X89260029Y-114648499D01*
X89255355Y-114649917D01*
X89244359Y-114651000D01*
X88955641Y-114651000D01*
X88944645Y-114649917D01*
X88939971Y-114648499D01*
X88935670Y-114646200D01*
X88929298Y-114640971D01*
X88908924Y-114627357D01*
X88886285Y-114617980D01*
X88862251Y-114613200D01*
X88837747Y-114613200D01*
X88813714Y-114617981D01*
X88791075Y-114627358D01*
X88770702Y-114640971D01*
X88764330Y-114646200D01*
X88760029Y-114648499D01*
X88755355Y-114649917D01*
X88744359Y-114651000D01*
X88455641Y-114651000D01*
X88444645Y-114649917D01*
X88439971Y-114648499D01*
X88435670Y-114646200D01*
X88429298Y-114640971D01*
X88408924Y-114627357D01*
X88386285Y-114617980D01*
X88362251Y-114613200D01*
X88337747Y-114613200D01*
X88313714Y-114617981D01*
X88291075Y-114627358D01*
X88270702Y-114640971D01*
X88264330Y-114646200D01*
X88260029Y-114648499D01*
X88255355Y-114649917D01*
X88244359Y-114651000D01*
X87955641Y-114651000D01*
X87944645Y-114649917D01*
X87939971Y-114648499D01*
X87935670Y-114646200D01*
X87929298Y-114640971D01*
X87908924Y-114627357D01*
X87886285Y-114617980D01*
X87862251Y-114613200D01*
X87837747Y-114613200D01*
X87813714Y-114617981D01*
X87791075Y-114627358D01*
X87770702Y-114640971D01*
X87764330Y-114646200D01*
X87760029Y-114648499D01*
X87755355Y-114649917D01*
X87744359Y-114651000D01*
X87455641Y-114651000D01*
X87444645Y-114649917D01*
X87439971Y-114648499D01*
X87435670Y-114646200D01*
X87429298Y-114640971D01*
X87408924Y-114627357D01*
X87386285Y-114617980D01*
X87362251Y-114613200D01*
X87337747Y-114613200D01*
X87313714Y-114617981D01*
X87291075Y-114627358D01*
X87270702Y-114640971D01*
X87264330Y-114646200D01*
X87260029Y-114648499D01*
X87255355Y-114649917D01*
X87244359Y-114651000D01*
X86955641Y-114651000D01*
X86944645Y-114649917D01*
X86939971Y-114648499D01*
X86935670Y-114646200D01*
X86929298Y-114640971D01*
X86908924Y-114627357D01*
X86886285Y-114617980D01*
X86862251Y-114613200D01*
X86837747Y-114613200D01*
X86813714Y-114617981D01*
X86791075Y-114627358D01*
X86770702Y-114640971D01*
X86764330Y-114646200D01*
X86760029Y-114648499D01*
X86755355Y-114649917D01*
X86744359Y-114651000D01*
X86455641Y-114651000D01*
X86444645Y-114649917D01*
X86439971Y-114648499D01*
X86435669Y-114646200D01*
X86431896Y-114643104D01*
X86428800Y-114639331D01*
X86426501Y-114635029D01*
X86425083Y-114630355D01*
X86424000Y-114619359D01*
X86424000Y-113800999D01*
X86421598Y-113776613D01*
X86414485Y-113753164D01*
X86402934Y-113731553D01*
X86387389Y-113712611D01*
X86368447Y-113697066D01*
X86346836Y-113685515D01*
X86323387Y-113678402D01*
X86299001Y-113676000D01*
X85480641Y-113676000D01*
X85469645Y-113674917D01*
X85464971Y-113673499D01*
X85460669Y-113671200D01*
X85456896Y-113668104D01*
X85453800Y-113664331D01*
X85451501Y-113660029D01*
X85450083Y-113655355D01*
X85449000Y-113644359D01*
X85449000Y-113355641D01*
X85450083Y-113344645D01*
X85451501Y-113339971D01*
X85453800Y-113335670D01*
X85459029Y-113329298D01*
X85472643Y-113308924D01*
X85482020Y-113286285D01*
X85486800Y-113262251D01*
X85486800Y-113237747D01*
X85482019Y-113213714D01*
X85472642Y-113191075D01*
X85459029Y-113170702D01*
X85453800Y-113164330D01*
X85451501Y-113160029D01*
X85450083Y-113155355D01*
X85449000Y-113144359D01*
X85449000Y-112855641D01*
X85450083Y-112844645D01*
X85451501Y-112839971D01*
X85453800Y-112835670D01*
X85459029Y-112829298D01*
X85472643Y-112808924D01*
X85482020Y-112786285D01*
X85486800Y-112762251D01*
X85486800Y-112737747D01*
X85482019Y-112713714D01*
X85472642Y-112691075D01*
X85459029Y-112670702D01*
X85453800Y-112664330D01*
X85451501Y-112660029D01*
X85450083Y-112655355D01*
X85449000Y-112644359D01*
X85449000Y-112355641D01*
X85450083Y-112344645D01*
X85451501Y-112339971D01*
X85453800Y-112335670D01*
X85459029Y-112329298D01*
X85472643Y-112308924D01*
X85482020Y-112286285D01*
X85486800Y-112262251D01*
X85486800Y-112237747D01*
X85482019Y-112213714D01*
X85472642Y-112191075D01*
X85459029Y-112170702D01*
X85453800Y-112164330D01*
X85451501Y-112160029D01*
X85450083Y-112155355D01*
X85449000Y-112144359D01*
X85449000Y-111855641D01*
X85450083Y-111844645D01*
X85451501Y-111839971D01*
X85453800Y-111835670D01*
X85459029Y-111829298D01*
X85472643Y-111808924D01*
X85482020Y-111786285D01*
X85486800Y-111762251D01*
X85486800Y-111737747D01*
X85482019Y-111713714D01*
X85472642Y-111691075D01*
X85459029Y-111670702D01*
X85453800Y-111664330D01*
X85451501Y-111660029D01*
X85450083Y-111655355D01*
X85449000Y-111644359D01*
X85449000Y-111355641D01*
X85450083Y-111344645D01*
X85451501Y-111339971D01*
X85453800Y-111335670D01*
X85459029Y-111329298D01*
X85472643Y-111308924D01*
X85482020Y-111286285D01*
X85486800Y-111262251D01*
X85486800Y-111237747D01*
X85482019Y-111213714D01*
X85472642Y-111191075D01*
X85459029Y-111170702D01*
X85453800Y-111164330D01*
X85451501Y-111160029D01*
X85450083Y-111155355D01*
X85449000Y-111144359D01*
X85449000Y-110855641D01*
X85450083Y-110844645D01*
X85451501Y-110839971D01*
X85453800Y-110835670D01*
X85459029Y-110829298D01*
X85472643Y-110808924D01*
X85482020Y-110786285D01*
X85486800Y-110762251D01*
X85486800Y-110737747D01*
X85482019Y-110713714D01*
X85472642Y-110691075D01*
X85459029Y-110670702D01*
X85453800Y-110664330D01*
X85451501Y-110660029D01*
X85450083Y-110655355D01*
X85449000Y-110644359D01*
X85449000Y-110355641D01*
X85450083Y-110344645D01*
X85451501Y-110339971D01*
X85453800Y-110335670D01*
X85459029Y-110329298D01*
X85472643Y-110308924D01*
X85482020Y-110286285D01*
X85486800Y-110262251D01*
X85486800Y-110237747D01*
X85482019Y-110213714D01*
X85472642Y-110191075D01*
X85459029Y-110170702D01*
X85453800Y-110164330D01*
X85451501Y-110160029D01*
X85450083Y-110155355D01*
X85449000Y-110144359D01*
X85449000Y-109855641D01*
X85450083Y-109844645D01*
X85451501Y-109839971D01*
X85453800Y-109835669D01*
X85456896Y-109831896D01*
X85460669Y-109828800D01*
X85464971Y-109826501D01*
X85469645Y-109825083D01*
X85480641Y-109824000D01*
X86299001Y-109824000D01*
X86323387Y-109821598D01*
X86346836Y-109814485D01*
X86368447Y-109802934D01*
X86387389Y-109787389D01*
X86402934Y-109768447D01*
X86414485Y-109746836D01*
X86421598Y-109723387D01*
X86424000Y-109699001D01*
X86424000Y-108880641D01*
X86425083Y-108869645D01*
X86426501Y-108864971D01*
X86428800Y-108860669D01*
X86431896Y-108856896D01*
X86435669Y-108853800D01*
X86439971Y-108851501D01*
X86444645Y-108850083D01*
X86455641Y-108849000D01*
X86744359Y-108849000D01*
X86755355Y-108850083D01*
G37*
G36*
X74481938Y-113541716D02*
G01*
X74502557Y-113547971D01*
X74521553Y-113558124D01*
X74538208Y-113571792D01*
X74551876Y-113588447D01*
X74562029Y-113607443D01*
X74568284Y-113628062D01*
X74571000Y-113655640D01*
X74571000Y-114114360D01*
X74568284Y-114141938D01*
X74562029Y-114162557D01*
X74551876Y-114181553D01*
X74538208Y-114198208D01*
X74521553Y-114211876D01*
X74502557Y-114222029D01*
X74481938Y-114228284D01*
X74454360Y-114231000D01*
X73945640Y-114231000D01*
X73918062Y-114228284D01*
X73897443Y-114222029D01*
X73878447Y-114211876D01*
X73861792Y-114198208D01*
X73848124Y-114181553D01*
X73837971Y-114162557D01*
X73831716Y-114141938D01*
X73829000Y-114114360D01*
X73829000Y-113655640D01*
X73831716Y-113628062D01*
X73837971Y-113607443D01*
X73848124Y-113588447D01*
X73861792Y-113571792D01*
X73878447Y-113558124D01*
X73897443Y-113547971D01*
X73918062Y-113541716D01*
X73945640Y-113539000D01*
X74454360Y-113539000D01*
X74481938Y-113541716D01*
G37*
G36*
X95856938Y-113496716D02*
G01*
X95877557Y-113502971D01*
X95896553Y-113513124D01*
X95913208Y-113526792D01*
X95926876Y-113543447D01*
X95937029Y-113562443D01*
X95943284Y-113583062D01*
X95946000Y-113610640D01*
X95946000Y-114069360D01*
X95943284Y-114096938D01*
X95937029Y-114117557D01*
X95926876Y-114136553D01*
X95913208Y-114153208D01*
X95896553Y-114166876D01*
X95877557Y-114177029D01*
X95856938Y-114183284D01*
X95829360Y-114186000D01*
X95320640Y-114186000D01*
X95293062Y-114183284D01*
X95272443Y-114177029D01*
X95253447Y-114166876D01*
X95236792Y-114153208D01*
X95223124Y-114136553D01*
X95212971Y-114117557D01*
X95206716Y-114096938D01*
X95204000Y-114069360D01*
X95204000Y-113610640D01*
X95206716Y-113583062D01*
X95212971Y-113562443D01*
X95223124Y-113543447D01*
X95236792Y-113526792D01*
X95253447Y-113513124D01*
X95272443Y-113502971D01*
X95293062Y-113496716D01*
X95320640Y-113494000D01*
X95829360Y-113494000D01*
X95856938Y-113496716D01*
G37*
G36*
X94639941Y-113249487D02*
G01*
X94660560Y-113255742D01*
X94679556Y-113265895D01*
X94696211Y-113279563D01*
X94709879Y-113296218D01*
X94720032Y-113315214D01*
X94726287Y-113335833D01*
X94729003Y-113363411D01*
X94729003Y-113822131D01*
X94726287Y-113849709D01*
X94720032Y-113870328D01*
X94709879Y-113889324D01*
X94696211Y-113905979D01*
X94679556Y-113919647D01*
X94660560Y-113929800D01*
X94639941Y-113936055D01*
X94612363Y-113938771D01*
X94103643Y-113938771D01*
X94076065Y-113936055D01*
X94055446Y-113929800D01*
X94036450Y-113919647D01*
X94019795Y-113905979D01*
X94006127Y-113889324D01*
X93995974Y-113870328D01*
X93989719Y-113849709D01*
X93987003Y-113822131D01*
X93987003Y-113363411D01*
X93989719Y-113335833D01*
X93995974Y-113315214D01*
X94006127Y-113296218D01*
X94019795Y-113279563D01*
X94036450Y-113265895D01*
X94055446Y-113255742D01*
X94076065Y-113249487D01*
X94103643Y-113246771D01*
X94612363Y-113246771D01*
X94639941Y-113249487D01*
G37*
G36*
X93639941Y-113249486D02*
G01*
X93660560Y-113255741D01*
X93679556Y-113265894D01*
X93696211Y-113279562D01*
X93709879Y-113296217D01*
X93720032Y-113315213D01*
X93726287Y-113335832D01*
X93729003Y-113363410D01*
X93729003Y-113822130D01*
X93726287Y-113849708D01*
X93720032Y-113870327D01*
X93709879Y-113889323D01*
X93696211Y-113905978D01*
X93679556Y-113919646D01*
X93660560Y-113929799D01*
X93639941Y-113936054D01*
X93612363Y-113938770D01*
X93103643Y-113938770D01*
X93076065Y-113936054D01*
X93055446Y-113929799D01*
X93036450Y-113919646D01*
X93019795Y-113905978D01*
X93006127Y-113889323D01*
X92995974Y-113870327D01*
X92989719Y-113849708D01*
X92987003Y-113822130D01*
X92987003Y-113363410D01*
X92989719Y-113335832D01*
X92995974Y-113315213D01*
X93006127Y-113296217D01*
X93019795Y-113279562D01*
X93036450Y-113265894D01*
X93055446Y-113255741D01*
X93076065Y-113249486D01*
X93103643Y-113246770D01*
X93612363Y-113246770D01*
X93639941Y-113249486D01*
G37*
G36*
X76256000Y-113851000D02*
G01*
X75094000Y-113851000D01*
X75094000Y-111199000D01*
X76256000Y-111199000D01*
X76256000Y-113851000D01*
G37*
G36*
X78456000Y-113851000D02*
G01*
X77294000Y-113851000D01*
X77294000Y-113099000D01*
X78456000Y-113099000D01*
X78456000Y-113851000D01*
G37*
G36*
X83501938Y-113051716D02*
G01*
X83522557Y-113057971D01*
X83541553Y-113068124D01*
X83558208Y-113081792D01*
X83571876Y-113098447D01*
X83582029Y-113117443D01*
X83588284Y-113138062D01*
X83591000Y-113165640D01*
X83591000Y-113624360D01*
X83588284Y-113651938D01*
X83582029Y-113672557D01*
X83571876Y-113691553D01*
X83558208Y-113708208D01*
X83541553Y-113721876D01*
X83522557Y-113732029D01*
X83501938Y-113738284D01*
X83474360Y-113741000D01*
X82965640Y-113741000D01*
X82938062Y-113738284D01*
X82917443Y-113732029D01*
X82898447Y-113721876D01*
X82881792Y-113708208D01*
X82868124Y-113691553D01*
X82857971Y-113672557D01*
X82851716Y-113651938D01*
X82849000Y-113624360D01*
X82849000Y-113165640D01*
X82851716Y-113138062D01*
X82857971Y-113117443D01*
X82868124Y-113098447D01*
X82881792Y-113081792D01*
X82898447Y-113068124D01*
X82917443Y-113057971D01*
X82938062Y-113051716D01*
X82965640Y-113049000D01*
X83474360Y-113049000D01*
X83501938Y-113051716D01*
G37*
G36*
X82501938Y-113051716D02*
G01*
X82522557Y-113057971D01*
X82541553Y-113068124D01*
X82558208Y-113081792D01*
X82571876Y-113098447D01*
X82582029Y-113117443D01*
X82588284Y-113138062D01*
X82591000Y-113165640D01*
X82591000Y-113624360D01*
X82588284Y-113651938D01*
X82582029Y-113672557D01*
X82571876Y-113691553D01*
X82558208Y-113708208D01*
X82541553Y-113721876D01*
X82522557Y-113732029D01*
X82501938Y-113738284D01*
X82474360Y-113741000D01*
X81965640Y-113741000D01*
X81938062Y-113738284D01*
X81917443Y-113732029D01*
X81898447Y-113721876D01*
X81881792Y-113708208D01*
X81868124Y-113691553D01*
X81857971Y-113672557D01*
X81851716Y-113651938D01*
X81849000Y-113624360D01*
X81849000Y-113165640D01*
X81851716Y-113138062D01*
X81857971Y-113117443D01*
X81868124Y-113098447D01*
X81881792Y-113081792D01*
X81898447Y-113068124D01*
X81917443Y-113057971D01*
X81938062Y-113051716D01*
X81965640Y-113049000D01*
X82474360Y-113049000D01*
X82501938Y-113051716D01*
G37*
G36*
X92581938Y-112891716D02*
G01*
X92602557Y-112897971D01*
X92621553Y-112908124D01*
X92638208Y-112921792D01*
X92651876Y-112938447D01*
X92662029Y-112957443D01*
X92668284Y-112978062D01*
X92671000Y-113005640D01*
X92671000Y-113464360D01*
X92668284Y-113491938D01*
X92662029Y-113512557D01*
X92651876Y-113531553D01*
X92638208Y-113548208D01*
X92621553Y-113561876D01*
X92602557Y-113572029D01*
X92581938Y-113578284D01*
X92554360Y-113581000D01*
X92045640Y-113581000D01*
X92018062Y-113578284D01*
X91997443Y-113572029D01*
X91978447Y-113561876D01*
X91961792Y-113548208D01*
X91948124Y-113531553D01*
X91937971Y-113512557D01*
X91931716Y-113491938D01*
X91929000Y-113464360D01*
X91929000Y-113005640D01*
X91931716Y-112978062D01*
X91937971Y-112957443D01*
X91948124Y-112938447D01*
X91961792Y-112921792D01*
X91978447Y-112908124D01*
X91997443Y-112897971D01*
X92018062Y-112891716D01*
X92045640Y-112889000D01*
X92554360Y-112889000D01*
X92581938Y-112891716D01*
G37*
G36*
X102004591Y-112503085D02*
G01*
X102038569Y-112513393D01*
X102069890Y-112530134D01*
X102097339Y-112552661D01*
X102119866Y-112580110D01*
X102136607Y-112611431D01*
X102146915Y-112645409D01*
X102151000Y-112686890D01*
X102151000Y-113288110D01*
X102146915Y-113329591D01*
X102136607Y-113363569D01*
X102119866Y-113394890D01*
X102097339Y-113422339D01*
X102069890Y-113444866D01*
X102038569Y-113461607D01*
X102004591Y-113471915D01*
X101963110Y-113476000D01*
X101286890Y-113476000D01*
X101245409Y-113471915D01*
X101211431Y-113461607D01*
X101180110Y-113444866D01*
X101152661Y-113422339D01*
X101130134Y-113394890D01*
X101113393Y-113363569D01*
X101103085Y-113329591D01*
X101099000Y-113288110D01*
X101099000Y-112686890D01*
X101103085Y-112645409D01*
X101113393Y-112611431D01*
X101130134Y-112580110D01*
X101152661Y-112552661D01*
X101180110Y-112530134D01*
X101211431Y-112513393D01*
X101245409Y-112503085D01*
X101286890Y-112499000D01*
X101963110Y-112499000D01*
X102004591Y-112503085D01*
G37*
G36*
X100566938Y-112606716D02*
G01*
X100587557Y-112612971D01*
X100606553Y-112623124D01*
X100623208Y-112636792D01*
X100636876Y-112653447D01*
X100647029Y-112672443D01*
X100653284Y-112693062D01*
X100656000Y-112720640D01*
X100656000Y-113229360D01*
X100653284Y-113256938D01*
X100647029Y-113277557D01*
X100636876Y-113296553D01*
X100623208Y-113313208D01*
X100606553Y-113326876D01*
X100587557Y-113337029D01*
X100566938Y-113343284D01*
X100539360Y-113346000D01*
X100080640Y-113346000D01*
X100053062Y-113343284D01*
X100032443Y-113337029D01*
X100013447Y-113326876D01*
X99996792Y-113313208D01*
X99983124Y-113296553D01*
X99972971Y-113277557D01*
X99966716Y-113256938D01*
X99964000Y-113229360D01*
X99964000Y-112720640D01*
X99966716Y-112693062D01*
X99972971Y-112672443D01*
X99983124Y-112653447D01*
X99996792Y-112636792D01*
X100013447Y-112623124D01*
X100032443Y-112612971D01*
X100053062Y-112606716D01*
X100080640Y-112604000D01*
X100539360Y-112604000D01*
X100566938Y-112606716D01*
G37*
G36*
X99596938Y-112606716D02*
G01*
X99617557Y-112612971D01*
X99636553Y-112623124D01*
X99653208Y-112636792D01*
X99666876Y-112653447D01*
X99677029Y-112672443D01*
X99683284Y-112693062D01*
X99686000Y-112720640D01*
X99686000Y-113229360D01*
X99683284Y-113256938D01*
X99677029Y-113277557D01*
X99666876Y-113296553D01*
X99653208Y-113313208D01*
X99636553Y-113326876D01*
X99617557Y-113337029D01*
X99596938Y-113343284D01*
X99569360Y-113346000D01*
X99110640Y-113346000D01*
X99083062Y-113343284D01*
X99062443Y-113337029D01*
X99043447Y-113326876D01*
X99026792Y-113313208D01*
X99013124Y-113296553D01*
X99002971Y-113277557D01*
X98996716Y-113256938D01*
X98994000Y-113229360D01*
X98994000Y-112720640D01*
X98996716Y-112693062D01*
X99002971Y-112672443D01*
X99013124Y-112653447D01*
X99026792Y-112636792D01*
X99043447Y-112623124D01*
X99062443Y-112612971D01*
X99083062Y-112606716D01*
X99110640Y-112604000D01*
X99569360Y-112604000D01*
X99596938Y-112606716D01*
G37*
G36*
X111809434Y-112213686D02*
G01*
X111849284Y-112225774D01*
X111885999Y-112245399D01*
X111918186Y-112271814D01*
X111944601Y-112304001D01*
X111964226Y-112340716D01*
X111976314Y-112380566D01*
X111981000Y-112428141D01*
X111981000Y-113091859D01*
X111976314Y-113139434D01*
X111964226Y-113179284D01*
X111944601Y-113215999D01*
X111918186Y-113248186D01*
X111885999Y-113274601D01*
X111849284Y-113294226D01*
X111809434Y-113306314D01*
X111761859Y-113311000D01*
X108598141Y-113311000D01*
X108550566Y-113306314D01*
X108510716Y-113294226D01*
X108474001Y-113274601D01*
X108441814Y-113248186D01*
X108415399Y-113215999D01*
X108395774Y-113179284D01*
X108383686Y-113139434D01*
X108379000Y-113091859D01*
X108379000Y-112428141D01*
X108383686Y-112380566D01*
X108395774Y-112340716D01*
X108415399Y-112304001D01*
X108441814Y-112271814D01*
X108474001Y-112245399D01*
X108510716Y-112225774D01*
X108550566Y-112213686D01*
X108598141Y-112209000D01*
X111761859Y-112209000D01*
X111809434Y-112213686D01*
G37*
G36*
X74481938Y-112571716D02*
G01*
X74502557Y-112577971D01*
X74521553Y-112588124D01*
X74538208Y-112601792D01*
X74551876Y-112618447D01*
X74562029Y-112637443D01*
X74568284Y-112658062D01*
X74571000Y-112685640D01*
X74571000Y-113144360D01*
X74568284Y-113171938D01*
X74562029Y-113192557D01*
X74551876Y-113211553D01*
X74538208Y-113228208D01*
X74521553Y-113241876D01*
X74502557Y-113252029D01*
X74481938Y-113258284D01*
X74454360Y-113261000D01*
X73945640Y-113261000D01*
X73918062Y-113258284D01*
X73897443Y-113252029D01*
X73878447Y-113241876D01*
X73861792Y-113228208D01*
X73848124Y-113211553D01*
X73837971Y-113192557D01*
X73831716Y-113171938D01*
X73829000Y-113144360D01*
X73829000Y-112685640D01*
X73831716Y-112658062D01*
X73837971Y-112637443D01*
X73848124Y-112618447D01*
X73861792Y-112601792D01*
X73878447Y-112588124D01*
X73897443Y-112577971D01*
X73918062Y-112571716D01*
X73945640Y-112569000D01*
X74454360Y-112569000D01*
X74481938Y-112571716D01*
G37*
G36*
X98409468Y-112178565D02*
G01*
X98448138Y-112190296D01*
X98483777Y-112209346D01*
X98515017Y-112234983D01*
X98540654Y-112266223D01*
X98559704Y-112301862D01*
X98571435Y-112340532D01*
X98576000Y-112386888D01*
X98576000Y-113038112D01*
X98571435Y-113084468D01*
X98559704Y-113123138D01*
X98540654Y-113158777D01*
X98515017Y-113190017D01*
X98483777Y-113215654D01*
X98448138Y-113234704D01*
X98409468Y-113246435D01*
X98363112Y-113251000D01*
X97286888Y-113251000D01*
X97240532Y-113246435D01*
X97201862Y-113234704D01*
X97166223Y-113215654D01*
X97134983Y-113190017D01*
X97109346Y-113158777D01*
X97090296Y-113123138D01*
X97078565Y-113084468D01*
X97074000Y-113038112D01*
X97074000Y-112386888D01*
X97078565Y-112340532D01*
X97090296Y-112301862D01*
X97109346Y-112266223D01*
X97134983Y-112234983D01*
X97166223Y-112209346D01*
X97201862Y-112190296D01*
X97240532Y-112178565D01*
X97286888Y-112174000D01*
X98363112Y-112174000D01*
X98409468Y-112178565D01*
G37*
G36*
X106984468Y-112103565D02*
G01*
X107023138Y-112115296D01*
X107058777Y-112134346D01*
X107090017Y-112159983D01*
X107115654Y-112191223D01*
X107134704Y-112226862D01*
X107146435Y-112265532D01*
X107151000Y-112311888D01*
X107151000Y-112963112D01*
X107146435Y-113009468D01*
X107134704Y-113048138D01*
X107115654Y-113083777D01*
X107090017Y-113115017D01*
X107058777Y-113140654D01*
X107023138Y-113159704D01*
X106984468Y-113171435D01*
X106938112Y-113176000D01*
X105861888Y-113176000D01*
X105815532Y-113171435D01*
X105776862Y-113159704D01*
X105741223Y-113140654D01*
X105709983Y-113115017D01*
X105684346Y-113083777D01*
X105665296Y-113048138D01*
X105653565Y-113009468D01*
X105649000Y-112963112D01*
X105649000Y-112311888D01*
X105653565Y-112265532D01*
X105665296Y-112226862D01*
X105684346Y-112191223D01*
X105709983Y-112159983D01*
X105741223Y-112134346D01*
X105776862Y-112115296D01*
X105815532Y-112103565D01*
X105861888Y-112099000D01*
X106938112Y-112099000D01*
X106984468Y-112103565D01*
G37*
G36*
X96429591Y-112053085D02*
G01*
X96463569Y-112063393D01*
X96494890Y-112080134D01*
X96522339Y-112102661D01*
X96544866Y-112130110D01*
X96561607Y-112161431D01*
X96571915Y-112195409D01*
X96576000Y-112236890D01*
X96576000Y-112838110D01*
X96571915Y-112879591D01*
X96561607Y-112913569D01*
X96544866Y-112944890D01*
X96522339Y-112972339D01*
X96494890Y-112994866D01*
X96463569Y-113011607D01*
X96429591Y-113021915D01*
X96388110Y-113026000D01*
X95711890Y-113026000D01*
X95670409Y-113021915D01*
X95636431Y-113011607D01*
X95605110Y-112994866D01*
X95577661Y-112972339D01*
X95555134Y-112944890D01*
X95538393Y-112913569D01*
X95528085Y-112879591D01*
X95524000Y-112838110D01*
X95524000Y-112236890D01*
X95528085Y-112195409D01*
X95538393Y-112161431D01*
X95555134Y-112130110D01*
X95577661Y-112102661D01*
X95605110Y-112080134D01*
X95636431Y-112063393D01*
X95670409Y-112053085D01*
X95711890Y-112049000D01*
X96388110Y-112049000D01*
X96429591Y-112053085D01*
G37*
G36*
X105141938Y-112256716D02*
G01*
X105162557Y-112262971D01*
X105181553Y-112273124D01*
X105198208Y-112286792D01*
X105211876Y-112303447D01*
X105222029Y-112322443D01*
X105228284Y-112343062D01*
X105231000Y-112370640D01*
X105231000Y-112879360D01*
X105228284Y-112906938D01*
X105222029Y-112927557D01*
X105211876Y-112946553D01*
X105198208Y-112963208D01*
X105181553Y-112976876D01*
X105162557Y-112987029D01*
X105141938Y-112993284D01*
X105114360Y-112996000D01*
X104655640Y-112996000D01*
X104628062Y-112993284D01*
X104607443Y-112987029D01*
X104588447Y-112976876D01*
X104571792Y-112963208D01*
X104558124Y-112946553D01*
X104547971Y-112927557D01*
X104541716Y-112906938D01*
X104539000Y-112879360D01*
X104539000Y-112370640D01*
X104541716Y-112343062D01*
X104547971Y-112322443D01*
X104558124Y-112303447D01*
X104571792Y-112286792D01*
X104588447Y-112273124D01*
X104607443Y-112262971D01*
X104628062Y-112256716D01*
X104655640Y-112254000D01*
X105114360Y-112254000D01*
X105141938Y-112256716D01*
G37*
G36*
X104171938Y-112256716D02*
G01*
X104192557Y-112262971D01*
X104211553Y-112273124D01*
X104228208Y-112286792D01*
X104241876Y-112303447D01*
X104252029Y-112322443D01*
X104258284Y-112343062D01*
X104261000Y-112370640D01*
X104261000Y-112879360D01*
X104258284Y-112906938D01*
X104252029Y-112927557D01*
X104241876Y-112946553D01*
X104228208Y-112963208D01*
X104211553Y-112976876D01*
X104192557Y-112987029D01*
X104171938Y-112993284D01*
X104144360Y-112996000D01*
X103685640Y-112996000D01*
X103658062Y-112993284D01*
X103637443Y-112987029D01*
X103618447Y-112976876D01*
X103601792Y-112963208D01*
X103588124Y-112946553D01*
X103577971Y-112927557D01*
X103571716Y-112906938D01*
X103569000Y-112879360D01*
X103569000Y-112370640D01*
X103571716Y-112343062D01*
X103577971Y-112322443D01*
X103588124Y-112303447D01*
X103601792Y-112286792D01*
X103618447Y-112273124D01*
X103637443Y-112262971D01*
X103658062Y-112256716D01*
X103685640Y-112254000D01*
X104144360Y-112254000D01*
X104171938Y-112256716D01*
G37*
G36*
X94926000Y-112801000D02*
G01*
X94124000Y-112801000D01*
X94124000Y-112099000D01*
X94926000Y-112099000D01*
X94926000Y-112801000D01*
G37*
G36*
X83501938Y-112081716D02*
G01*
X83522557Y-112087971D01*
X83541553Y-112098124D01*
X83558208Y-112111792D01*
X83571876Y-112128447D01*
X83582029Y-112147443D01*
X83588284Y-112168062D01*
X83591000Y-112195640D01*
X83591000Y-112654360D01*
X83588284Y-112681938D01*
X83582029Y-112702557D01*
X83571876Y-112721553D01*
X83558208Y-112738208D01*
X83541553Y-112751876D01*
X83522557Y-112762029D01*
X83501938Y-112768284D01*
X83474360Y-112771000D01*
X82965640Y-112771000D01*
X82938062Y-112768284D01*
X82917443Y-112762029D01*
X82898447Y-112751876D01*
X82881792Y-112738208D01*
X82868124Y-112721553D01*
X82857971Y-112702557D01*
X82851716Y-112681938D01*
X82849000Y-112654360D01*
X82849000Y-112195640D01*
X82851716Y-112168062D01*
X82857971Y-112147443D01*
X82868124Y-112128447D01*
X82881792Y-112111792D01*
X82898447Y-112098124D01*
X82917443Y-112087971D01*
X82938062Y-112081716D01*
X82965640Y-112079000D01*
X83474360Y-112079000D01*
X83501938Y-112081716D01*
G37*
G36*
X82501938Y-112081716D02*
G01*
X82522557Y-112087971D01*
X82541553Y-112098124D01*
X82558208Y-112111792D01*
X82571876Y-112128447D01*
X82582029Y-112147443D01*
X82588284Y-112168062D01*
X82591000Y-112195640D01*
X82591000Y-112654360D01*
X82588284Y-112681938D01*
X82582029Y-112702557D01*
X82571876Y-112721553D01*
X82558208Y-112738208D01*
X82541553Y-112751876D01*
X82522557Y-112762029D01*
X82501938Y-112768284D01*
X82474360Y-112771000D01*
X81965640Y-112771000D01*
X81938062Y-112768284D01*
X81917443Y-112762029D01*
X81898447Y-112751876D01*
X81881792Y-112738208D01*
X81868124Y-112721553D01*
X81857971Y-112702557D01*
X81851716Y-112681938D01*
X81849000Y-112654360D01*
X81849000Y-112195640D01*
X81851716Y-112168062D01*
X81857971Y-112147443D01*
X81868124Y-112128447D01*
X81881792Y-112111792D01*
X81898447Y-112098124D01*
X81917443Y-112087971D01*
X81938062Y-112081716D01*
X81965640Y-112079000D01*
X82474360Y-112079000D01*
X82501938Y-112081716D01*
G37*
G36*
X92581938Y-111921716D02*
G01*
X92602557Y-111927971D01*
X92621553Y-111938124D01*
X92638208Y-111951792D01*
X92651876Y-111968447D01*
X92662029Y-111987443D01*
X92668284Y-112008062D01*
X92671000Y-112035640D01*
X92671000Y-112494360D01*
X92668284Y-112521938D01*
X92662029Y-112542557D01*
X92651876Y-112561553D01*
X92638208Y-112578208D01*
X92621553Y-112591876D01*
X92602557Y-112602029D01*
X92581938Y-112608284D01*
X92554360Y-112611000D01*
X92045640Y-112611000D01*
X92018062Y-112608284D01*
X91997443Y-112602029D01*
X91978447Y-112591876D01*
X91961792Y-112578208D01*
X91948124Y-112561553D01*
X91937971Y-112542557D01*
X91931716Y-112521938D01*
X91929000Y-112494360D01*
X91929000Y-112035640D01*
X91931716Y-112008062D01*
X91937971Y-111987443D01*
X91948124Y-111968447D01*
X91961792Y-111951792D01*
X91978447Y-111938124D01*
X91997443Y-111927971D01*
X92018062Y-111921716D01*
X92045640Y-111919000D01*
X92554360Y-111919000D01*
X92581938Y-111921716D01*
G37*
G36*
X78456000Y-111951000D02*
G01*
X77294000Y-111951000D01*
X77294000Y-111199000D01*
X78456000Y-111199000D01*
X78456000Y-111951000D01*
G37*
G36*
X92581938Y-110891716D02*
G01*
X92602557Y-110897971D01*
X92621553Y-110908124D01*
X92638208Y-110921792D01*
X92651876Y-110938447D01*
X92662029Y-110957443D01*
X92668284Y-110978062D01*
X92671000Y-111005640D01*
X92671000Y-111464360D01*
X92668284Y-111491938D01*
X92662029Y-111512557D01*
X92651876Y-111531553D01*
X92638208Y-111548208D01*
X92621553Y-111561876D01*
X92602557Y-111572029D01*
X92581938Y-111578284D01*
X92554360Y-111581000D01*
X92045640Y-111581000D01*
X92018062Y-111578284D01*
X91997443Y-111572029D01*
X91978447Y-111561876D01*
X91961792Y-111548208D01*
X91948124Y-111531553D01*
X91937971Y-111512557D01*
X91931716Y-111491938D01*
X91929000Y-111464360D01*
X91929000Y-111005640D01*
X91931716Y-110978062D01*
X91937971Y-110957443D01*
X91948124Y-110938447D01*
X91961792Y-110921792D01*
X91978447Y-110908124D01*
X91997443Y-110897971D01*
X92018062Y-110891716D01*
X92045640Y-110889000D01*
X92554360Y-110889000D01*
X92581938Y-110891716D01*
G37*
G36*
X106984468Y-110403565D02*
G01*
X107023138Y-110415296D01*
X107058777Y-110434346D01*
X107090017Y-110459983D01*
X107115654Y-110491223D01*
X107134704Y-110526862D01*
X107146435Y-110565532D01*
X107151000Y-110611888D01*
X107151000Y-111263112D01*
X107146435Y-111309468D01*
X107134704Y-111348138D01*
X107115654Y-111383777D01*
X107090017Y-111415017D01*
X107058777Y-111440654D01*
X107023138Y-111459704D01*
X106984468Y-111471435D01*
X106938112Y-111476000D01*
X105861888Y-111476000D01*
X105815532Y-111471435D01*
X105776862Y-111459704D01*
X105741223Y-111440654D01*
X105709983Y-111415017D01*
X105684346Y-111383777D01*
X105665296Y-111348138D01*
X105653565Y-111309468D01*
X105649000Y-111263112D01*
X105649000Y-110611888D01*
X105653565Y-110565532D01*
X105665296Y-110526862D01*
X105684346Y-110491223D01*
X105709983Y-110459983D01*
X105741223Y-110434346D01*
X105776862Y-110415296D01*
X105815532Y-110403565D01*
X105861888Y-110399000D01*
X106938112Y-110399000D01*
X106984468Y-110403565D01*
G37*
G36*
X96429591Y-110478085D02*
G01*
X96463569Y-110488393D01*
X96494890Y-110505134D01*
X96522339Y-110527661D01*
X96544866Y-110555110D01*
X96561607Y-110586431D01*
X96571915Y-110620409D01*
X96576000Y-110661890D01*
X96576000Y-111263110D01*
X96571915Y-111304591D01*
X96561607Y-111338569D01*
X96544866Y-111369890D01*
X96522339Y-111397339D01*
X96494890Y-111419866D01*
X96463569Y-111436607D01*
X96429591Y-111446915D01*
X96388110Y-111451000D01*
X95711890Y-111451000D01*
X95670409Y-111446915D01*
X95636431Y-111436607D01*
X95605110Y-111419866D01*
X95577661Y-111397339D01*
X95555134Y-111369890D01*
X95538393Y-111338569D01*
X95528085Y-111304591D01*
X95524000Y-111263110D01*
X95524000Y-110661890D01*
X95528085Y-110620409D01*
X95538393Y-110586431D01*
X95555134Y-110555110D01*
X95577661Y-110527661D01*
X95605110Y-110505134D01*
X95636431Y-110488393D01*
X95670409Y-110478085D01*
X95711890Y-110474000D01*
X96388110Y-110474000D01*
X96429591Y-110478085D01*
G37*
G36*
X94926000Y-111401000D02*
G01*
X94124000Y-111401000D01*
X94124000Y-110699000D01*
X94926000Y-110699000D01*
X94926000Y-111401000D01*
G37*
G36*
X98409468Y-110303565D02*
G01*
X98448138Y-110315296D01*
X98483777Y-110334346D01*
X98515017Y-110359983D01*
X98540654Y-110391223D01*
X98559704Y-110426862D01*
X98571435Y-110465532D01*
X98576000Y-110511888D01*
X98576000Y-111163112D01*
X98571435Y-111209468D01*
X98559704Y-111248138D01*
X98540654Y-111283777D01*
X98515017Y-111315017D01*
X98483777Y-111340654D01*
X98448138Y-111359704D01*
X98409468Y-111371435D01*
X98363112Y-111376000D01*
X97286888Y-111376000D01*
X97240532Y-111371435D01*
X97201862Y-111359704D01*
X97166223Y-111340654D01*
X97134983Y-111315017D01*
X97109346Y-111283777D01*
X97090296Y-111248138D01*
X97078565Y-111209468D01*
X97074000Y-111163112D01*
X97074000Y-110511888D01*
X97078565Y-110465532D01*
X97090296Y-110426862D01*
X97109346Y-110391223D01*
X97134983Y-110359983D01*
X97166223Y-110334346D01*
X97201862Y-110315296D01*
X97240532Y-110303565D01*
X97286888Y-110299000D01*
X98363112Y-110299000D01*
X98409468Y-110303565D01*
G37*
G36*
X105116938Y-110581716D02*
G01*
X105137557Y-110587971D01*
X105156553Y-110598124D01*
X105173208Y-110611792D01*
X105186876Y-110628447D01*
X105197029Y-110647443D01*
X105203284Y-110668062D01*
X105206000Y-110695640D01*
X105206000Y-111204360D01*
X105203284Y-111231938D01*
X105197029Y-111252557D01*
X105186876Y-111271553D01*
X105173208Y-111288208D01*
X105156553Y-111301876D01*
X105137557Y-111312029D01*
X105116938Y-111318284D01*
X105089360Y-111321000D01*
X104630640Y-111321000D01*
X104603062Y-111318284D01*
X104582443Y-111312029D01*
X104563447Y-111301876D01*
X104546792Y-111288208D01*
X104533124Y-111271553D01*
X104522971Y-111252557D01*
X104516716Y-111231938D01*
X104514000Y-111204360D01*
X104514000Y-110695640D01*
X104516716Y-110668062D01*
X104522971Y-110647443D01*
X104533124Y-110628447D01*
X104546792Y-110611792D01*
X104563447Y-110598124D01*
X104582443Y-110587971D01*
X104603062Y-110581716D01*
X104630640Y-110579000D01*
X105089360Y-110579000D01*
X105116938Y-110581716D01*
G37*
G36*
X104146938Y-110581716D02*
G01*
X104167557Y-110587971D01*
X104186553Y-110598124D01*
X104203208Y-110611792D01*
X104216876Y-110628447D01*
X104227029Y-110647443D01*
X104233284Y-110668062D01*
X104236000Y-110695640D01*
X104236000Y-111204360D01*
X104233284Y-111231938D01*
X104227029Y-111252557D01*
X104216876Y-111271553D01*
X104203208Y-111288208D01*
X104186553Y-111301876D01*
X104167557Y-111312029D01*
X104146938Y-111318284D01*
X104119360Y-111321000D01*
X103660640Y-111321000D01*
X103633062Y-111318284D01*
X103612443Y-111312029D01*
X103593447Y-111301876D01*
X103576792Y-111288208D01*
X103563124Y-111271553D01*
X103552971Y-111252557D01*
X103546716Y-111231938D01*
X103544000Y-111204360D01*
X103544000Y-110695640D01*
X103546716Y-110668062D01*
X103552971Y-110647443D01*
X103563124Y-110628447D01*
X103576792Y-110611792D01*
X103593447Y-110598124D01*
X103612443Y-110587971D01*
X103633062Y-110581716D01*
X103660640Y-110579000D01*
X104119360Y-110579000D01*
X104146938Y-110581716D01*
G37*
G36*
X111809434Y-110213686D02*
G01*
X111849284Y-110225774D01*
X111885999Y-110245399D01*
X111918186Y-110271814D01*
X111944601Y-110304001D01*
X111964226Y-110340716D01*
X111976314Y-110380566D01*
X111981000Y-110428141D01*
X111981000Y-111091859D01*
X111976314Y-111139434D01*
X111964226Y-111179284D01*
X111944601Y-111215999D01*
X111918186Y-111248186D01*
X111885999Y-111274601D01*
X111849284Y-111294226D01*
X111809434Y-111306314D01*
X111761859Y-111311000D01*
X108598141Y-111311000D01*
X108550566Y-111306314D01*
X108510716Y-111294226D01*
X108474001Y-111274601D01*
X108441814Y-111248186D01*
X108415399Y-111215999D01*
X108395774Y-111179284D01*
X108383686Y-111139434D01*
X108379000Y-111091859D01*
X108379000Y-110428141D01*
X108383686Y-110380566D01*
X108395774Y-110340716D01*
X108415399Y-110304001D01*
X108441814Y-110271814D01*
X108474001Y-110245399D01*
X108510716Y-110225774D01*
X108550566Y-110213686D01*
X108598141Y-110209000D01*
X111761859Y-110209000D01*
X111809434Y-110213686D01*
G37*
G36*
X83204591Y-110228085D02*
G01*
X83238569Y-110238393D01*
X83269890Y-110255134D01*
X83297339Y-110277661D01*
X83319866Y-110305110D01*
X83336607Y-110336431D01*
X83346915Y-110370409D01*
X83351000Y-110411890D01*
X83351000Y-111088110D01*
X83346915Y-111129591D01*
X83336607Y-111163569D01*
X83319866Y-111194890D01*
X83297339Y-111222339D01*
X83269890Y-111244866D01*
X83238569Y-111261607D01*
X83204591Y-111271915D01*
X83163110Y-111276000D01*
X82561890Y-111276000D01*
X82520409Y-111271915D01*
X82486431Y-111261607D01*
X82455110Y-111244866D01*
X82427661Y-111222339D01*
X82405134Y-111194890D01*
X82388393Y-111163569D01*
X82378085Y-111129591D01*
X82374000Y-111088110D01*
X82374000Y-110411890D01*
X82378085Y-110370409D01*
X82388393Y-110336431D01*
X82405134Y-110305110D01*
X82427661Y-110277661D01*
X82455110Y-110255134D01*
X82486431Y-110238393D01*
X82520409Y-110228085D01*
X82561890Y-110224000D01*
X83163110Y-110224000D01*
X83204591Y-110228085D01*
G37*
G36*
X84779591Y-110228085D02*
G01*
X84813569Y-110238393D01*
X84844890Y-110255134D01*
X84872339Y-110277661D01*
X84894866Y-110305110D01*
X84911607Y-110336431D01*
X84921915Y-110370409D01*
X84926000Y-110411890D01*
X84926000Y-111088110D01*
X84921915Y-111129591D01*
X84911607Y-111163569D01*
X84894866Y-111194890D01*
X84872339Y-111222339D01*
X84844890Y-111244866D01*
X84813569Y-111261607D01*
X84779591Y-111271915D01*
X84738110Y-111276000D01*
X84136890Y-111276000D01*
X84095409Y-111271915D01*
X84061431Y-111261607D01*
X84030110Y-111244866D01*
X84002661Y-111222339D01*
X83980134Y-111194890D01*
X83963393Y-111163569D01*
X83953085Y-111129591D01*
X83949000Y-111088110D01*
X83949000Y-110411890D01*
X83953085Y-110370409D01*
X83963393Y-110336431D01*
X83980134Y-110305110D01*
X84002661Y-110277661D01*
X84030110Y-110255134D01*
X84061431Y-110238393D01*
X84095409Y-110228085D01*
X84136890Y-110224000D01*
X84738110Y-110224000D01*
X84779591Y-110228085D01*
G37*
G36*
X101929591Y-110103085D02*
G01*
X101963569Y-110113393D01*
X101994890Y-110130134D01*
X102022339Y-110152661D01*
X102044866Y-110180110D01*
X102061607Y-110211431D01*
X102071915Y-110245409D01*
X102076000Y-110286890D01*
X102076000Y-110888110D01*
X102071915Y-110929591D01*
X102061607Y-110963569D01*
X102044866Y-110994890D01*
X102022339Y-111022339D01*
X101994890Y-111044866D01*
X101963569Y-111061607D01*
X101929591Y-111071915D01*
X101888110Y-111076000D01*
X101211890Y-111076000D01*
X101170409Y-111071915D01*
X101136431Y-111061607D01*
X101105110Y-111044866D01*
X101077661Y-111022339D01*
X101055134Y-110994890D01*
X101038393Y-110963569D01*
X101028085Y-110929591D01*
X101024000Y-110888110D01*
X101024000Y-110286890D01*
X101028085Y-110245409D01*
X101038393Y-110211431D01*
X101055134Y-110180110D01*
X101077661Y-110152661D01*
X101105110Y-110130134D01*
X101136431Y-110113393D01*
X101170409Y-110103085D01*
X101211890Y-110099000D01*
X101888110Y-110099000D01*
X101929591Y-110103085D01*
G37*
G36*
X100541938Y-110231716D02*
G01*
X100562557Y-110237971D01*
X100581553Y-110248124D01*
X100598208Y-110261792D01*
X100611876Y-110278447D01*
X100622029Y-110297443D01*
X100628284Y-110318062D01*
X100631000Y-110345640D01*
X100631000Y-110854360D01*
X100628284Y-110881938D01*
X100622029Y-110902557D01*
X100611876Y-110921553D01*
X100598208Y-110938208D01*
X100581553Y-110951876D01*
X100562557Y-110962029D01*
X100541938Y-110968284D01*
X100514360Y-110971000D01*
X100055640Y-110971000D01*
X100028062Y-110968284D01*
X100007443Y-110962029D01*
X99988447Y-110951876D01*
X99971792Y-110938208D01*
X99958124Y-110921553D01*
X99947971Y-110902557D01*
X99941716Y-110881938D01*
X99939000Y-110854360D01*
X99939000Y-110345640D01*
X99941716Y-110318062D01*
X99947971Y-110297443D01*
X99958124Y-110278447D01*
X99971792Y-110261792D01*
X99988447Y-110248124D01*
X100007443Y-110237971D01*
X100028062Y-110231716D01*
X100055640Y-110229000D01*
X100514360Y-110229000D01*
X100541938Y-110231716D01*
G37*
G36*
X99571938Y-110231716D02*
G01*
X99592557Y-110237971D01*
X99611553Y-110248124D01*
X99628208Y-110261792D01*
X99641876Y-110278447D01*
X99652029Y-110297443D01*
X99658284Y-110318062D01*
X99661000Y-110345640D01*
X99661000Y-110854360D01*
X99658284Y-110881938D01*
X99652029Y-110902557D01*
X99641876Y-110921553D01*
X99628208Y-110938208D01*
X99611553Y-110951876D01*
X99592557Y-110962029D01*
X99571938Y-110968284D01*
X99544360Y-110971000D01*
X99085640Y-110971000D01*
X99058062Y-110968284D01*
X99037443Y-110962029D01*
X99018447Y-110951876D01*
X99001792Y-110938208D01*
X98988124Y-110921553D01*
X98977971Y-110902557D01*
X98971716Y-110881938D01*
X98969000Y-110854360D01*
X98969000Y-110345640D01*
X98971716Y-110318062D01*
X98977971Y-110297443D01*
X98988124Y-110278447D01*
X99001792Y-110261792D01*
X99018447Y-110248124D01*
X99037443Y-110237971D01*
X99058062Y-110231716D01*
X99085640Y-110229000D01*
X99544360Y-110229000D01*
X99571938Y-110231716D01*
G37*
G36*
X92581938Y-109921716D02*
G01*
X92602557Y-109927971D01*
X92621553Y-109938124D01*
X92638208Y-109951792D01*
X92651876Y-109968447D01*
X92662029Y-109987443D01*
X92668284Y-110008062D01*
X92671000Y-110035640D01*
X92671000Y-110494360D01*
X92668284Y-110521938D01*
X92662029Y-110542557D01*
X92651876Y-110561553D01*
X92638208Y-110578208D01*
X92621553Y-110591876D01*
X92602557Y-110602029D01*
X92581938Y-110608284D01*
X92554360Y-110611000D01*
X92045640Y-110611000D01*
X92018062Y-110608284D01*
X91997443Y-110602029D01*
X91978447Y-110591876D01*
X91961792Y-110578208D01*
X91948124Y-110561553D01*
X91937971Y-110542557D01*
X91931716Y-110521938D01*
X91929000Y-110494360D01*
X91929000Y-110035640D01*
X91931716Y-110008062D01*
X91937971Y-109987443D01*
X91948124Y-109968447D01*
X91961792Y-109951792D01*
X91978447Y-109938124D01*
X91997443Y-109927971D01*
X92018062Y-109921716D01*
X92045640Y-109919000D01*
X92554360Y-109919000D01*
X92581938Y-109921716D01*
G37*
G36*
X68801000Y-110551000D02*
G01*
X67799000Y-110551000D01*
X67799000Y-109249000D01*
X68801000Y-109249000D01*
X68801000Y-110551000D01*
G37*
G36*
X72101000Y-110551000D02*
G01*
X71099000Y-110551000D01*
X71099000Y-109249000D01*
X72101000Y-109249000D01*
X72101000Y-110551000D01*
G37*
G36*
X94623935Y-109563946D02*
G01*
X94644554Y-109570201D01*
X94663550Y-109580354D01*
X94680205Y-109594022D01*
X94693873Y-109610677D01*
X94704026Y-109629673D01*
X94710281Y-109650292D01*
X94712997Y-109677870D01*
X94712997Y-110136590D01*
X94710281Y-110164168D01*
X94704026Y-110184787D01*
X94693873Y-110203783D01*
X94680205Y-110220438D01*
X94663550Y-110234106D01*
X94644554Y-110244259D01*
X94623935Y-110250514D01*
X94596357Y-110253230D01*
X94087637Y-110253230D01*
X94060059Y-110250514D01*
X94039440Y-110244259D01*
X94020444Y-110234106D01*
X94003789Y-110220438D01*
X93990121Y-110203783D01*
X93979968Y-110184787D01*
X93973713Y-110164168D01*
X93970997Y-110136590D01*
X93970997Y-109677870D01*
X93973713Y-109650292D01*
X93979968Y-109629673D01*
X93990121Y-109610677D01*
X94003789Y-109594022D01*
X94020444Y-109580354D01*
X94039440Y-109570201D01*
X94060059Y-109563946D01*
X94087637Y-109561230D01*
X94596357Y-109561230D01*
X94623935Y-109563946D01*
G37*
G36*
X93623935Y-109563945D02*
G01*
X93644554Y-109570200D01*
X93663550Y-109580353D01*
X93680205Y-109594021D01*
X93693873Y-109610676D01*
X93704026Y-109629672D01*
X93710281Y-109650291D01*
X93712997Y-109677869D01*
X93712997Y-110136589D01*
X93710281Y-110164167D01*
X93704026Y-110184786D01*
X93693873Y-110203782D01*
X93680205Y-110220437D01*
X93663550Y-110234105D01*
X93644554Y-110244258D01*
X93623935Y-110250513D01*
X93596357Y-110253229D01*
X93087637Y-110253229D01*
X93060059Y-110250513D01*
X93039440Y-110244258D01*
X93020444Y-110234105D01*
X93003789Y-110220437D01*
X92990121Y-110203782D01*
X92979968Y-110184786D01*
X92973713Y-110164167D01*
X92970997Y-110136589D01*
X92970997Y-109677869D01*
X92973713Y-109650291D01*
X92979968Y-109629672D01*
X92990121Y-109610676D01*
X93003789Y-109594021D01*
X93020444Y-109580353D01*
X93039440Y-109570200D01*
X93060059Y-109563945D01*
X93087637Y-109561229D01*
X93596357Y-109561229D01*
X93623935Y-109563945D01*
G37*
G36*
X77784999Y-108312237D02*
G01*
X77794608Y-108315152D01*
X77803472Y-108319890D01*
X77811237Y-108326263D01*
X77817610Y-108334028D01*
X77822348Y-108342892D01*
X77825263Y-108352501D01*
X77826852Y-108368640D01*
X77826852Y-109231354D01*
X77826573Y-109234186D01*
X77825974Y-109245572D01*
X77825908Y-109255114D01*
X77809336Y-109412780D01*
X77804853Y-109434617D01*
X77757971Y-109586070D01*
X77749332Y-109606619D01*
X77673929Y-109746076D01*
X77661466Y-109764554D01*
X77560403Y-109886716D01*
X77544589Y-109902420D01*
X77421731Y-110002621D01*
X77403157Y-110014962D01*
X77263185Y-110089387D01*
X77242568Y-110097885D01*
X77090789Y-110143709D01*
X77068930Y-110148037D01*
X76908112Y-110163806D01*
X76896941Y-110164352D01*
X74150098Y-110164352D01*
X74149507Y-110164350D01*
X74140695Y-110164289D01*
X74128751Y-110163579D01*
X73968375Y-110145590D01*
X73946568Y-110140955D01*
X73795451Y-110093017D01*
X73774967Y-110084238D01*
X73636025Y-110007854D01*
X73617646Y-109995269D01*
X73496183Y-109893350D01*
X73480595Y-109877432D01*
X73381254Y-109753877D01*
X73369048Y-109735224D01*
X73295597Y-109594724D01*
X73287242Y-109574047D01*
X73242483Y-109421966D01*
X73238308Y-109400078D01*
X73224113Y-109244114D01*
X73224122Y-109241254D01*
X73223148Y-109231363D01*
X73223148Y-108368640D01*
X73224737Y-108352501D01*
X73227652Y-108342892D01*
X73232390Y-108334028D01*
X73238763Y-108326263D01*
X73246528Y-108319890D01*
X73255392Y-108315152D01*
X73265001Y-108312237D01*
X73281140Y-108310648D01*
X77768860Y-108310648D01*
X77784999Y-108312237D01*
G37*
G36*
X95781938Y-109316716D02*
G01*
X95802557Y-109322971D01*
X95821553Y-109333124D01*
X95838208Y-109346792D01*
X95851876Y-109363447D01*
X95862029Y-109382443D01*
X95868284Y-109403062D01*
X95871000Y-109430640D01*
X95871000Y-109889360D01*
X95868284Y-109916938D01*
X95862029Y-109937557D01*
X95851876Y-109956553D01*
X95838208Y-109973208D01*
X95821553Y-109986876D01*
X95802557Y-109997029D01*
X95781938Y-110003284D01*
X95754360Y-110006000D01*
X95245640Y-110006000D01*
X95218062Y-110003284D01*
X95197443Y-109997029D01*
X95178447Y-109986876D01*
X95161792Y-109973208D01*
X95148124Y-109956553D01*
X95137971Y-109937557D01*
X95131716Y-109916938D01*
X95129000Y-109889360D01*
X95129000Y-109430640D01*
X95131716Y-109403062D01*
X95137971Y-109382443D01*
X95148124Y-109363447D01*
X95161792Y-109346792D01*
X95178447Y-109333124D01*
X95197443Y-109322971D01*
X95218062Y-109316716D01*
X95245640Y-109314000D01*
X95754360Y-109314000D01*
X95781938Y-109316716D01*
G37*
G36*
X84141938Y-109081716D02*
G01*
X84162557Y-109087971D01*
X84181553Y-109098124D01*
X84198208Y-109111792D01*
X84211876Y-109128447D01*
X84222029Y-109147443D01*
X84228284Y-109168062D01*
X84231000Y-109195640D01*
X84231000Y-109704360D01*
X84228284Y-109731938D01*
X84222029Y-109752557D01*
X84211876Y-109771553D01*
X84198208Y-109788208D01*
X84181553Y-109801876D01*
X84162557Y-109812029D01*
X84141938Y-109818284D01*
X84114360Y-109821000D01*
X83655640Y-109821000D01*
X83628062Y-109818284D01*
X83607443Y-109812029D01*
X83588447Y-109801876D01*
X83571792Y-109788208D01*
X83558124Y-109771553D01*
X83547971Y-109752557D01*
X83541716Y-109731938D01*
X83539000Y-109704360D01*
X83539000Y-109195640D01*
X83541716Y-109168062D01*
X83547971Y-109147443D01*
X83558124Y-109128447D01*
X83571792Y-109111792D01*
X83588447Y-109098124D01*
X83607443Y-109087971D01*
X83628062Y-109081716D01*
X83655640Y-109079000D01*
X84114360Y-109079000D01*
X84141938Y-109081716D01*
G37*
G36*
X83171938Y-109081716D02*
G01*
X83192557Y-109087971D01*
X83211553Y-109098124D01*
X83228208Y-109111792D01*
X83241876Y-109128447D01*
X83252029Y-109147443D01*
X83258284Y-109168062D01*
X83261000Y-109195640D01*
X83261000Y-109704360D01*
X83258284Y-109731938D01*
X83252029Y-109752557D01*
X83241876Y-109771553D01*
X83228208Y-109788208D01*
X83211553Y-109801876D01*
X83192557Y-109812029D01*
X83171938Y-109818284D01*
X83144360Y-109821000D01*
X82685640Y-109821000D01*
X82658062Y-109818284D01*
X82637443Y-109812029D01*
X82618447Y-109801876D01*
X82601792Y-109788208D01*
X82588124Y-109771553D01*
X82577971Y-109752557D01*
X82571716Y-109731938D01*
X82569000Y-109704360D01*
X82569000Y-109195640D01*
X82571716Y-109168062D01*
X82577971Y-109147443D01*
X82588124Y-109128447D01*
X82601792Y-109111792D01*
X82618447Y-109098124D01*
X82637443Y-109087971D01*
X82658062Y-109081716D01*
X82685640Y-109079000D01*
X83144360Y-109079000D01*
X83171938Y-109081716D01*
G37*
G36*
X106984468Y-108528565D02*
G01*
X107023138Y-108540296D01*
X107058777Y-108559346D01*
X107090017Y-108584983D01*
X107115654Y-108616223D01*
X107134704Y-108651862D01*
X107146435Y-108690532D01*
X107151000Y-108736888D01*
X107151000Y-109388112D01*
X107146435Y-109434468D01*
X107134704Y-109473138D01*
X107115654Y-109508777D01*
X107090017Y-109540017D01*
X107058777Y-109565654D01*
X107023138Y-109584704D01*
X106984468Y-109596435D01*
X106938112Y-109601000D01*
X105861888Y-109601000D01*
X105815532Y-109596435D01*
X105776862Y-109584704D01*
X105741223Y-109565654D01*
X105709983Y-109540017D01*
X105684346Y-109508777D01*
X105665296Y-109473138D01*
X105653565Y-109434468D01*
X105649000Y-109388112D01*
X105649000Y-108736888D01*
X105653565Y-108690532D01*
X105665296Y-108651862D01*
X105684346Y-108616223D01*
X105709983Y-108584983D01*
X105741223Y-108559346D01*
X105776862Y-108540296D01*
X105815532Y-108528565D01*
X105861888Y-108524000D01*
X106938112Y-108524000D01*
X106984468Y-108528565D01*
G37*
G36*
X104979591Y-108528085D02*
G01*
X105013569Y-108538393D01*
X105044890Y-108555134D01*
X105072339Y-108577661D01*
X105094866Y-108605110D01*
X105111607Y-108636431D01*
X105121915Y-108670409D01*
X105126000Y-108711890D01*
X105126000Y-109388110D01*
X105121915Y-109429591D01*
X105111607Y-109463569D01*
X105094866Y-109494890D01*
X105072339Y-109522339D01*
X105044890Y-109544866D01*
X105013569Y-109561607D01*
X104979591Y-109571915D01*
X104938110Y-109576000D01*
X104336890Y-109576000D01*
X104295409Y-109571915D01*
X104261431Y-109561607D01*
X104230110Y-109544866D01*
X104202661Y-109522339D01*
X104180134Y-109494890D01*
X104163393Y-109463569D01*
X104153085Y-109429591D01*
X104149000Y-109388110D01*
X104149000Y-108711890D01*
X104153085Y-108670409D01*
X104163393Y-108636431D01*
X104180134Y-108605110D01*
X104202661Y-108577661D01*
X104230110Y-108555134D01*
X104261431Y-108538393D01*
X104295409Y-108528085D01*
X104336890Y-108524000D01*
X104938110Y-108524000D01*
X104979591Y-108528085D01*
G37*
G36*
X103404591Y-108528085D02*
G01*
X103438569Y-108538393D01*
X103469890Y-108555134D01*
X103497339Y-108577661D01*
X103519866Y-108605110D01*
X103536607Y-108636431D01*
X103546915Y-108670409D01*
X103551000Y-108711890D01*
X103551000Y-109388110D01*
X103546915Y-109429591D01*
X103536607Y-109463569D01*
X103519866Y-109494890D01*
X103497339Y-109522339D01*
X103469890Y-109544866D01*
X103438569Y-109561607D01*
X103404591Y-109571915D01*
X103363110Y-109576000D01*
X102761890Y-109576000D01*
X102720409Y-109571915D01*
X102686431Y-109561607D01*
X102655110Y-109544866D01*
X102627661Y-109522339D01*
X102605134Y-109494890D01*
X102588393Y-109463569D01*
X102578085Y-109429591D01*
X102574000Y-109388110D01*
X102574000Y-108711890D01*
X102578085Y-108670409D01*
X102588393Y-108636431D01*
X102605134Y-108605110D01*
X102627661Y-108577661D01*
X102655110Y-108555134D01*
X102686431Y-108538393D01*
X102720409Y-108528085D01*
X102761890Y-108524000D01*
X103363110Y-108524000D01*
X103404591Y-108528085D01*
G37*
G36*
X101929591Y-108528085D02*
G01*
X101963569Y-108538393D01*
X101994890Y-108555134D01*
X102022339Y-108577661D01*
X102044866Y-108605110D01*
X102061607Y-108636431D01*
X102071915Y-108670409D01*
X102076000Y-108711890D01*
X102076000Y-109313109D01*
X102071915Y-109354591D01*
X102061607Y-109388569D01*
X102044866Y-109419890D01*
X102022339Y-109447339D01*
X101994890Y-109469866D01*
X101963569Y-109486607D01*
X101929591Y-109496915D01*
X101888110Y-109501000D01*
X101211890Y-109501000D01*
X101170409Y-109496915D01*
X101136431Y-109486607D01*
X101105110Y-109469866D01*
X101077661Y-109447339D01*
X101055134Y-109419890D01*
X101038393Y-109388569D01*
X101028085Y-109354591D01*
X101024000Y-109313109D01*
X101024000Y-108711890D01*
X101028085Y-108670409D01*
X101038393Y-108636431D01*
X101055134Y-108605110D01*
X101077661Y-108577661D01*
X101105110Y-108555134D01*
X101136431Y-108538393D01*
X101170409Y-108528085D01*
X101211890Y-108524000D01*
X101888110Y-108524000D01*
X101929591Y-108528085D01*
G37*
G36*
X111809434Y-108213686D02*
G01*
X111849284Y-108225774D01*
X111885999Y-108245399D01*
X111918186Y-108271814D01*
X111944601Y-108304001D01*
X111964226Y-108340716D01*
X111976314Y-108380566D01*
X111981000Y-108428141D01*
X111981000Y-109091859D01*
X111976314Y-109139434D01*
X111964226Y-109179284D01*
X111944601Y-109215999D01*
X111918186Y-109248186D01*
X111885999Y-109274601D01*
X111849284Y-109294226D01*
X111809434Y-109306314D01*
X111761859Y-109311000D01*
X108598141Y-109311000D01*
X108550566Y-109306314D01*
X108510716Y-109294226D01*
X108474001Y-109274601D01*
X108441814Y-109248186D01*
X108415399Y-109215999D01*
X108395774Y-109179284D01*
X108383686Y-109139434D01*
X108379000Y-109091859D01*
X108379000Y-108428141D01*
X108383686Y-108380566D01*
X108395774Y-108340716D01*
X108415399Y-108304001D01*
X108441814Y-108271814D01*
X108474001Y-108245399D01*
X108510716Y-108225774D01*
X108550566Y-108213686D01*
X108598141Y-108209000D01*
X111761859Y-108209000D01*
X111809434Y-108213686D01*
G37*
G36*
X94623935Y-108593946D02*
G01*
X94644554Y-108600201D01*
X94663550Y-108610354D01*
X94680205Y-108624022D01*
X94693873Y-108640677D01*
X94704026Y-108659673D01*
X94710281Y-108680292D01*
X94712997Y-108707870D01*
X94712997Y-109166590D01*
X94710281Y-109194168D01*
X94704026Y-109214787D01*
X94693873Y-109233783D01*
X94680205Y-109250438D01*
X94663550Y-109264106D01*
X94644554Y-109274259D01*
X94623935Y-109280514D01*
X94596357Y-109283230D01*
X94087637Y-109283230D01*
X94060059Y-109280514D01*
X94039440Y-109274259D01*
X94020444Y-109264106D01*
X94003789Y-109250438D01*
X93990121Y-109233783D01*
X93979968Y-109214787D01*
X93973713Y-109194168D01*
X93970997Y-109166590D01*
X93970997Y-108707870D01*
X93973713Y-108680292D01*
X93979968Y-108659673D01*
X93990121Y-108640677D01*
X94003789Y-108624022D01*
X94020444Y-108610354D01*
X94039440Y-108600201D01*
X94060059Y-108593946D01*
X94087637Y-108591230D01*
X94596357Y-108591230D01*
X94623935Y-108593946D01*
G37*
G36*
X93623935Y-108593945D02*
G01*
X93644554Y-108600200D01*
X93663550Y-108610353D01*
X93680205Y-108624021D01*
X93693873Y-108640676D01*
X93704026Y-108659672D01*
X93710281Y-108680291D01*
X93712997Y-108707869D01*
X93712997Y-109166589D01*
X93710281Y-109194167D01*
X93704026Y-109214786D01*
X93693873Y-109233782D01*
X93680205Y-109250437D01*
X93663550Y-109264105D01*
X93644554Y-109274258D01*
X93623935Y-109280513D01*
X93596357Y-109283229D01*
X93087637Y-109283229D01*
X93060059Y-109280513D01*
X93039440Y-109274258D01*
X93020444Y-109264105D01*
X93003789Y-109250437D01*
X92990121Y-109233782D01*
X92979968Y-109214786D01*
X92973713Y-109194167D01*
X92970997Y-109166589D01*
X92970997Y-108707869D01*
X92973713Y-108680291D01*
X92979968Y-108659672D01*
X92990121Y-108640676D01*
X93003789Y-108624021D01*
X93020444Y-108610353D01*
X93039440Y-108600200D01*
X93060059Y-108593945D01*
X93087637Y-108591229D01*
X93596357Y-108591229D01*
X93623935Y-108593945D01*
G37*
G36*
X79834468Y-107628565D02*
G01*
X79873138Y-107640296D01*
X79908777Y-107659346D01*
X79940017Y-107684983D01*
X79965654Y-107716223D01*
X79984704Y-107751862D01*
X79996435Y-107790532D01*
X80001000Y-107836888D01*
X80001000Y-108913112D01*
X79996435Y-108959468D01*
X79984704Y-108998138D01*
X79965654Y-109033777D01*
X79940017Y-109065017D01*
X79908777Y-109090654D01*
X79873138Y-109109704D01*
X79834468Y-109121435D01*
X79788112Y-109126000D01*
X79136888Y-109126000D01*
X79090532Y-109121435D01*
X79051862Y-109109704D01*
X79016223Y-109090654D01*
X78984983Y-109065017D01*
X78959346Y-109033777D01*
X78940296Y-108998138D01*
X78928565Y-108959468D01*
X78924000Y-108913112D01*
X78924000Y-107836888D01*
X78928565Y-107790532D01*
X78940296Y-107751862D01*
X78959346Y-107716223D01*
X78984983Y-107684983D01*
X79016223Y-107659346D01*
X79051862Y-107640296D01*
X79090532Y-107628565D01*
X79136888Y-107624000D01*
X79788112Y-107624000D01*
X79834468Y-107628565D01*
G37*
G36*
X81709468Y-107628565D02*
G01*
X81748138Y-107640296D01*
X81783777Y-107659346D01*
X81815017Y-107684983D01*
X81840654Y-107716223D01*
X81859704Y-107751862D01*
X81871435Y-107790532D01*
X81876000Y-107836888D01*
X81876000Y-108913112D01*
X81871435Y-108959468D01*
X81859704Y-108998138D01*
X81840654Y-109033777D01*
X81815017Y-109065017D01*
X81783777Y-109090654D01*
X81748138Y-109109704D01*
X81709468Y-109121435D01*
X81663112Y-109126000D01*
X81011888Y-109126000D01*
X80965532Y-109121435D01*
X80926862Y-109109704D01*
X80891223Y-109090654D01*
X80859983Y-109065017D01*
X80834346Y-109033777D01*
X80815296Y-108998138D01*
X80803565Y-108959468D01*
X80799000Y-108913112D01*
X80799000Y-107836888D01*
X80803565Y-107790532D01*
X80815296Y-107751862D01*
X80834346Y-107716223D01*
X80859983Y-107684983D01*
X80891223Y-107659346D01*
X80926862Y-107640296D01*
X80965532Y-107628565D01*
X81011888Y-107624000D01*
X81663112Y-107624000D01*
X81709468Y-107628565D01*
G37*
G36*
X100426000Y-109076000D02*
G01*
X99274000Y-109076000D01*
X99274000Y-108374000D01*
X100426000Y-108374000D01*
X100426000Y-109076000D01*
G37*
G36*
X97376000Y-109076000D02*
G01*
X96224000Y-109076000D01*
X96224000Y-108374000D01*
X97376000Y-108374000D01*
X97376000Y-109076000D01*
G37*
G36*
X95781938Y-108346716D02*
G01*
X95802557Y-108352971D01*
X95821553Y-108363124D01*
X95838208Y-108376792D01*
X95851876Y-108393447D01*
X95862029Y-108412443D01*
X95868284Y-108433062D01*
X95871000Y-108460640D01*
X95871000Y-108919360D01*
X95868284Y-108946938D01*
X95862029Y-108967557D01*
X95851876Y-108986553D01*
X95838208Y-109003208D01*
X95821553Y-109016876D01*
X95802557Y-109027029D01*
X95781938Y-109033284D01*
X95754360Y-109036000D01*
X95245640Y-109036000D01*
X95218062Y-109033284D01*
X95197443Y-109027029D01*
X95178447Y-109016876D01*
X95161792Y-109003208D01*
X95148124Y-108986553D01*
X95137971Y-108967557D01*
X95131716Y-108946938D01*
X95129000Y-108919360D01*
X95129000Y-108460640D01*
X95131716Y-108433062D01*
X95137971Y-108412443D01*
X95148124Y-108393447D01*
X95161792Y-108376792D01*
X95178447Y-108363124D01*
X95197443Y-108352971D01*
X95218062Y-108346716D01*
X95245640Y-108344000D01*
X95754360Y-108344000D01*
X95781938Y-108346716D01*
G37*
G36*
X84141938Y-108031716D02*
G01*
X84162557Y-108037971D01*
X84181553Y-108048124D01*
X84198208Y-108061792D01*
X84211876Y-108078447D01*
X84222029Y-108097443D01*
X84228284Y-108118062D01*
X84231000Y-108145640D01*
X84231000Y-108654360D01*
X84228284Y-108681938D01*
X84222029Y-108702557D01*
X84211876Y-108721553D01*
X84198208Y-108738208D01*
X84181553Y-108751876D01*
X84162557Y-108762029D01*
X84141938Y-108768284D01*
X84114360Y-108771000D01*
X83655640Y-108771000D01*
X83628062Y-108768284D01*
X83607443Y-108762029D01*
X83588447Y-108751876D01*
X83571792Y-108738208D01*
X83558124Y-108721553D01*
X83547971Y-108702557D01*
X83541716Y-108681938D01*
X83539000Y-108654360D01*
X83539000Y-108145640D01*
X83541716Y-108118062D01*
X83547971Y-108097443D01*
X83558124Y-108078447D01*
X83571792Y-108061792D01*
X83588447Y-108048124D01*
X83607443Y-108037971D01*
X83628062Y-108031716D01*
X83655640Y-108029000D01*
X84114360Y-108029000D01*
X84141938Y-108031716D01*
G37*
G36*
X83171938Y-108031716D02*
G01*
X83192557Y-108037971D01*
X83211553Y-108048124D01*
X83228208Y-108061792D01*
X83241876Y-108078447D01*
X83252029Y-108097443D01*
X83258284Y-108118062D01*
X83261000Y-108145640D01*
X83261000Y-108654360D01*
X83258284Y-108681938D01*
X83252029Y-108702557D01*
X83241876Y-108721553D01*
X83228208Y-108738208D01*
X83211553Y-108751876D01*
X83192557Y-108762029D01*
X83171938Y-108768284D01*
X83144360Y-108771000D01*
X82685640Y-108771000D01*
X82658062Y-108768284D01*
X82637443Y-108762029D01*
X82618447Y-108751876D01*
X82601792Y-108738208D01*
X82588124Y-108721553D01*
X82577971Y-108702557D01*
X82571716Y-108681938D01*
X82569000Y-108654360D01*
X82569000Y-108145640D01*
X82571716Y-108118062D01*
X82577971Y-108097443D01*
X82588124Y-108078447D01*
X82601792Y-108061792D01*
X82618447Y-108048124D01*
X82637443Y-108037971D01*
X82658062Y-108031716D01*
X82685640Y-108029000D01*
X83144360Y-108029000D01*
X83171938Y-108031716D01*
G37*
G36*
X100426000Y-108076000D02*
G01*
X99274000Y-108076000D01*
X99274000Y-107374000D01*
X100426000Y-107374000D01*
X100426000Y-108076000D01*
G37*
G36*
X97376000Y-108076000D02*
G01*
X96224000Y-108076000D01*
X96224000Y-107374000D01*
X97376000Y-107374000D01*
X97376000Y-108076000D01*
G37*
G36*
X95781938Y-107366716D02*
G01*
X95802557Y-107372971D01*
X95821553Y-107383124D01*
X95838208Y-107396792D01*
X95851876Y-107413447D01*
X95862029Y-107432443D01*
X95868284Y-107453062D01*
X95871000Y-107480640D01*
X95871000Y-107939360D01*
X95868284Y-107966938D01*
X95862029Y-107987557D01*
X95851876Y-108006553D01*
X95838208Y-108023208D01*
X95821553Y-108036876D01*
X95802557Y-108047029D01*
X95781938Y-108053284D01*
X95754360Y-108056000D01*
X95245640Y-108056000D01*
X95218062Y-108053284D01*
X95197443Y-108047029D01*
X95178447Y-108036876D01*
X95161792Y-108023208D01*
X95148124Y-108006553D01*
X95137971Y-107987557D01*
X95131716Y-107966938D01*
X95129000Y-107939360D01*
X95129000Y-107480640D01*
X95131716Y-107453062D01*
X95137971Y-107432443D01*
X95148124Y-107413447D01*
X95161792Y-107396792D01*
X95178447Y-107383124D01*
X95197443Y-107372971D01*
X95218062Y-107366716D01*
X95245640Y-107364000D01*
X95754360Y-107364000D01*
X95781938Y-107366716D01*
G37*
G36*
X104979591Y-106878085D02*
G01*
X105013569Y-106888393D01*
X105044890Y-106905134D01*
X105072339Y-106927661D01*
X105094866Y-106955110D01*
X105111607Y-106986431D01*
X105121915Y-107020409D01*
X105126000Y-107061890D01*
X105126000Y-107738110D01*
X105121915Y-107779591D01*
X105111607Y-107813569D01*
X105094866Y-107844890D01*
X105072339Y-107872339D01*
X105044890Y-107894866D01*
X105013569Y-107911607D01*
X104979591Y-107921915D01*
X104938110Y-107926000D01*
X104336890Y-107926000D01*
X104295409Y-107921915D01*
X104261431Y-107911607D01*
X104230110Y-107894866D01*
X104202661Y-107872339D01*
X104180134Y-107844890D01*
X104163393Y-107813569D01*
X104153085Y-107779591D01*
X104149000Y-107738110D01*
X104149000Y-107061890D01*
X104153085Y-107020409D01*
X104163393Y-106986431D01*
X104180134Y-106955110D01*
X104202661Y-106927661D01*
X104230110Y-106905134D01*
X104261431Y-106888393D01*
X104295409Y-106878085D01*
X104336890Y-106874000D01*
X104938110Y-106874000D01*
X104979591Y-106878085D01*
G37*
G36*
X106984468Y-106853565D02*
G01*
X107023138Y-106865296D01*
X107058777Y-106884346D01*
X107090017Y-106909983D01*
X107115654Y-106941223D01*
X107134704Y-106976862D01*
X107146435Y-107015532D01*
X107151000Y-107061888D01*
X107151000Y-107713112D01*
X107146435Y-107759468D01*
X107134704Y-107798138D01*
X107115654Y-107833777D01*
X107090017Y-107865017D01*
X107058777Y-107890654D01*
X107023138Y-107909704D01*
X106984468Y-107921435D01*
X106938112Y-107926000D01*
X105861888Y-107926000D01*
X105815532Y-107921435D01*
X105776862Y-107909704D01*
X105741223Y-107890654D01*
X105709983Y-107865017D01*
X105684346Y-107833777D01*
X105665296Y-107798138D01*
X105653565Y-107759468D01*
X105649000Y-107713112D01*
X105649000Y-107061888D01*
X105653565Y-107015532D01*
X105665296Y-106976862D01*
X105684346Y-106941223D01*
X105709983Y-106909983D01*
X105741223Y-106884346D01*
X105776862Y-106865296D01*
X105815532Y-106853565D01*
X105861888Y-106849000D01*
X106938112Y-106849000D01*
X106984468Y-106853565D01*
G37*
G36*
X103404591Y-106878085D02*
G01*
X103438569Y-106888393D01*
X103469890Y-106905134D01*
X103497339Y-106927661D01*
X103519866Y-106955110D01*
X103536607Y-106986431D01*
X103546915Y-107020409D01*
X103551000Y-107061890D01*
X103551000Y-107738110D01*
X103546915Y-107779591D01*
X103536607Y-107813569D01*
X103519866Y-107844890D01*
X103497339Y-107872339D01*
X103469890Y-107894866D01*
X103438569Y-107911607D01*
X103404591Y-107921915D01*
X103363110Y-107926000D01*
X102761890Y-107926000D01*
X102720409Y-107921915D01*
X102686431Y-107911607D01*
X102655110Y-107894866D01*
X102627661Y-107872339D01*
X102605134Y-107844890D01*
X102588393Y-107813569D01*
X102578085Y-107779591D01*
X102574000Y-107738110D01*
X102574000Y-107061890D01*
X102578085Y-107020409D01*
X102588393Y-106986431D01*
X102605134Y-106955110D01*
X102627661Y-106927661D01*
X102655110Y-106905134D01*
X102686431Y-106888393D01*
X102720409Y-106878085D01*
X102761890Y-106874000D01*
X103363110Y-106874000D01*
X103404591Y-106878085D01*
G37*
G36*
X101929591Y-106953085D02*
G01*
X101963569Y-106963393D01*
X101994890Y-106980134D01*
X102022339Y-107002661D01*
X102044866Y-107030110D01*
X102061607Y-107061431D01*
X102071915Y-107095409D01*
X102076000Y-107136890D01*
X102076000Y-107738110D01*
X102071915Y-107779591D01*
X102061607Y-107813569D01*
X102044866Y-107844890D01*
X102022339Y-107872339D01*
X101994890Y-107894866D01*
X101963569Y-107911607D01*
X101929591Y-107921915D01*
X101888110Y-107926000D01*
X101211890Y-107926000D01*
X101170409Y-107921915D01*
X101136431Y-107911607D01*
X101105110Y-107894866D01*
X101077661Y-107872339D01*
X101055134Y-107844890D01*
X101038393Y-107813569D01*
X101028085Y-107779591D01*
X101024000Y-107738110D01*
X101024000Y-107136890D01*
X101028085Y-107095409D01*
X101038393Y-107061431D01*
X101055134Y-107030110D01*
X101077661Y-107002661D01*
X101105110Y-106980134D01*
X101136431Y-106963393D01*
X101170409Y-106953085D01*
X101211890Y-106949000D01*
X101888110Y-106949000D01*
X101929591Y-106953085D01*
G37*
G36*
X85431938Y-106641716D02*
G01*
X85452557Y-106647971D01*
X85471553Y-106658124D01*
X85488208Y-106671792D01*
X85501876Y-106688447D01*
X85512029Y-106707443D01*
X85518284Y-106728062D01*
X85521000Y-106755640D01*
X85521000Y-107214360D01*
X85518284Y-107241938D01*
X85512029Y-107262557D01*
X85501876Y-107281553D01*
X85488208Y-107298208D01*
X85471553Y-107311876D01*
X85452557Y-107322029D01*
X85431938Y-107328284D01*
X85404360Y-107331000D01*
X84895640Y-107331000D01*
X84868062Y-107328284D01*
X84847443Y-107322029D01*
X84828447Y-107311876D01*
X84811792Y-107298208D01*
X84798124Y-107281553D01*
X84787971Y-107262557D01*
X84781716Y-107241938D01*
X84779000Y-107214360D01*
X84779000Y-106755640D01*
X84781716Y-106728062D01*
X84787971Y-106707443D01*
X84798124Y-106688447D01*
X84811792Y-106671792D01*
X84828447Y-106658124D01*
X84847443Y-106647971D01*
X84868062Y-106641716D01*
X84895640Y-106639000D01*
X85404360Y-106639000D01*
X85431938Y-106641716D01*
G37*
G36*
X91681938Y-106641716D02*
G01*
X91702557Y-106647971D01*
X91721553Y-106658124D01*
X91738208Y-106671792D01*
X91751876Y-106688447D01*
X91762029Y-106707443D01*
X91768284Y-106728062D01*
X91771000Y-106755640D01*
X91771000Y-107214360D01*
X91768284Y-107241938D01*
X91762029Y-107262557D01*
X91751876Y-107281553D01*
X91738208Y-107298208D01*
X91721553Y-107311876D01*
X91702557Y-107322029D01*
X91681938Y-107328284D01*
X91654360Y-107331000D01*
X91145640Y-107331000D01*
X91118062Y-107328284D01*
X91097443Y-107322029D01*
X91078447Y-107311876D01*
X91061792Y-107298208D01*
X91048124Y-107281553D01*
X91037971Y-107262557D01*
X91031716Y-107241938D01*
X91029000Y-107214360D01*
X91029000Y-106755640D01*
X91031716Y-106728062D01*
X91037971Y-106707443D01*
X91048124Y-106688447D01*
X91061792Y-106671792D01*
X91078447Y-106658124D01*
X91097443Y-106647971D01*
X91118062Y-106641716D01*
X91145640Y-106639000D01*
X91654360Y-106639000D01*
X91681938Y-106641716D01*
G37*
G36*
X84251000Y-107251000D02*
G01*
X83449000Y-107251000D01*
X83449000Y-106549000D01*
X84251000Y-106549000D01*
X84251000Y-107251000D01*
G37*
G36*
X90529591Y-106253085D02*
G01*
X90563569Y-106263393D01*
X90594890Y-106280134D01*
X90622339Y-106302661D01*
X90644866Y-106330110D01*
X90661607Y-106361431D01*
X90671915Y-106395409D01*
X90676000Y-106436890D01*
X90676000Y-107038110D01*
X90671915Y-107079591D01*
X90661607Y-107113569D01*
X90644866Y-107144890D01*
X90622339Y-107172339D01*
X90594890Y-107194866D01*
X90563569Y-107211607D01*
X90529591Y-107221915D01*
X90488110Y-107226000D01*
X89811890Y-107226000D01*
X89770409Y-107221915D01*
X89736431Y-107211607D01*
X89705110Y-107194866D01*
X89677661Y-107172339D01*
X89655134Y-107144890D01*
X89638393Y-107113569D01*
X89628085Y-107079591D01*
X89624000Y-107038110D01*
X89624000Y-106436890D01*
X89628085Y-106395409D01*
X89638393Y-106361431D01*
X89655134Y-106330110D01*
X89677661Y-106302661D01*
X89705110Y-106280134D01*
X89736431Y-106263393D01*
X89770409Y-106253085D01*
X89811890Y-106249000D01*
X90488110Y-106249000D01*
X90529591Y-106253085D01*
G37*
G36*
X86929591Y-106253085D02*
G01*
X86963569Y-106263393D01*
X86994890Y-106280134D01*
X87022339Y-106302661D01*
X87044866Y-106330110D01*
X87061607Y-106361431D01*
X87071915Y-106395409D01*
X87076000Y-106436890D01*
X87076000Y-107038110D01*
X87071915Y-107079591D01*
X87061607Y-107113569D01*
X87044866Y-107144890D01*
X87022339Y-107172339D01*
X86994890Y-107194866D01*
X86963569Y-107211607D01*
X86929591Y-107221915D01*
X86888110Y-107226000D01*
X86211890Y-107226000D01*
X86170409Y-107221915D01*
X86136431Y-107211607D01*
X86105110Y-107194866D01*
X86077661Y-107172339D01*
X86055134Y-107144890D01*
X86038393Y-107113569D01*
X86028085Y-107079591D01*
X86024000Y-107038110D01*
X86024000Y-106436890D01*
X86028085Y-106395409D01*
X86038393Y-106361431D01*
X86055134Y-106330110D01*
X86077661Y-106302661D01*
X86105110Y-106280134D01*
X86136431Y-106263393D01*
X86170409Y-106253085D01*
X86211890Y-106249000D01*
X86888110Y-106249000D01*
X86929591Y-106253085D01*
G37*
G36*
X117533048Y-105613122D02*
G01*
X117567387Y-105623539D01*
X117599036Y-105640456D01*
X117626778Y-105663222D01*
X117649544Y-105690964D01*
X117666461Y-105722613D01*
X117676878Y-105756952D01*
X117681000Y-105798807D01*
X117681000Y-107021193D01*
X117676878Y-107063048D01*
X117666461Y-107097387D01*
X117649544Y-107129036D01*
X117626778Y-107156778D01*
X117599036Y-107179544D01*
X117567387Y-107196461D01*
X117533048Y-107206878D01*
X117491193Y-107211000D01*
X114368807Y-107211000D01*
X114326952Y-107206878D01*
X114292613Y-107196461D01*
X114260964Y-107179544D01*
X114233222Y-107156778D01*
X114210456Y-107129036D01*
X114193539Y-107097387D01*
X114183122Y-107063048D01*
X114179000Y-107021193D01*
X114179000Y-105798807D01*
X114183122Y-105756952D01*
X114193539Y-105722613D01*
X114210456Y-105690964D01*
X114233222Y-105663222D01*
X114260964Y-105640456D01*
X114292613Y-105623539D01*
X114326952Y-105613122D01*
X114368807Y-105609000D01*
X117491193Y-105609000D01*
X117533048Y-105613122D01*
G37*
G36*
X81709468Y-105628565D02*
G01*
X81748138Y-105640296D01*
X81783777Y-105659346D01*
X81815017Y-105684983D01*
X81840654Y-105716223D01*
X81859704Y-105751862D01*
X81871435Y-105790532D01*
X81876000Y-105836888D01*
X81876000Y-106913112D01*
X81871435Y-106959468D01*
X81859704Y-106998138D01*
X81840654Y-107033777D01*
X81815017Y-107065017D01*
X81783777Y-107090654D01*
X81748138Y-107109704D01*
X81709468Y-107121435D01*
X81663112Y-107126000D01*
X81011888Y-107126000D01*
X80965532Y-107121435D01*
X80926862Y-107109704D01*
X80891223Y-107090654D01*
X80859983Y-107065017D01*
X80834346Y-107033777D01*
X80815296Y-106998138D01*
X80803565Y-106959468D01*
X80799000Y-106913112D01*
X80799000Y-105836888D01*
X80803565Y-105790532D01*
X80815296Y-105751862D01*
X80834346Y-105716223D01*
X80859983Y-105684983D01*
X80891223Y-105659346D01*
X80926862Y-105640296D01*
X80965532Y-105628565D01*
X81011888Y-105624000D01*
X81663112Y-105624000D01*
X81709468Y-105628565D01*
G37*
G36*
X79834468Y-105628565D02*
G01*
X79873138Y-105640296D01*
X79908777Y-105659346D01*
X79940017Y-105684983D01*
X79965654Y-105716223D01*
X79984704Y-105751862D01*
X79996435Y-105790532D01*
X80001000Y-105836888D01*
X80001000Y-106913112D01*
X79996435Y-106959468D01*
X79984704Y-106998138D01*
X79965654Y-107033777D01*
X79940017Y-107065017D01*
X79908777Y-107090654D01*
X79873138Y-107109704D01*
X79834468Y-107121435D01*
X79788112Y-107126000D01*
X79136888Y-107126000D01*
X79090532Y-107121435D01*
X79051862Y-107109704D01*
X79016223Y-107090654D01*
X78984983Y-107065017D01*
X78959346Y-107033777D01*
X78940296Y-106998138D01*
X78928565Y-106959468D01*
X78924000Y-106913112D01*
X78924000Y-105836888D01*
X78928565Y-105790532D01*
X78940296Y-105751862D01*
X78959346Y-105716223D01*
X78984983Y-105684983D01*
X79016223Y-105659346D01*
X79051862Y-105640296D01*
X79090532Y-105628565D01*
X79136888Y-105624000D01*
X79788112Y-105624000D01*
X79834468Y-105628565D01*
G37*
G36*
X95781938Y-106396716D02*
G01*
X95802557Y-106402971D01*
X95821553Y-106413124D01*
X95838208Y-106426792D01*
X95851876Y-106443447D01*
X95862029Y-106462443D01*
X95868284Y-106483062D01*
X95871000Y-106510640D01*
X95871000Y-106969360D01*
X95868284Y-106996938D01*
X95862029Y-107017557D01*
X95851876Y-107036553D01*
X95838208Y-107053208D01*
X95821553Y-107066876D01*
X95802557Y-107077029D01*
X95781938Y-107083284D01*
X95754360Y-107086000D01*
X95245640Y-107086000D01*
X95218062Y-107083284D01*
X95197443Y-107077029D01*
X95178447Y-107066876D01*
X95161792Y-107053208D01*
X95148124Y-107036553D01*
X95137971Y-107017557D01*
X95131716Y-106996938D01*
X95129000Y-106969360D01*
X95129000Y-106510640D01*
X95131716Y-106483062D01*
X95137971Y-106462443D01*
X95148124Y-106443447D01*
X95161792Y-106426792D01*
X95178447Y-106413124D01*
X95197443Y-106402971D01*
X95218062Y-106396716D01*
X95245640Y-106394000D01*
X95754360Y-106394000D01*
X95781938Y-106396716D01*
G37*
G36*
X76900493Y-105035650D02*
G01*
X76909305Y-105035711D01*
X76921249Y-105036421D01*
X77081625Y-105054410D01*
X77103432Y-105059045D01*
X77254549Y-105106983D01*
X77275033Y-105115762D01*
X77413975Y-105192146D01*
X77432354Y-105204731D01*
X77553817Y-105306650D01*
X77569405Y-105322568D01*
X77668746Y-105446123D01*
X77680952Y-105464776D01*
X77754403Y-105605276D01*
X77762758Y-105625953D01*
X77807517Y-105778034D01*
X77811692Y-105799922D01*
X77825887Y-105955886D01*
X77825878Y-105958746D01*
X77826852Y-105968637D01*
X77826852Y-106831360D01*
X77825263Y-106847499D01*
X77822348Y-106857108D01*
X77817610Y-106865972D01*
X77811237Y-106873737D01*
X77803472Y-106880110D01*
X77794608Y-106884848D01*
X77784999Y-106887763D01*
X77768860Y-106889352D01*
X73281140Y-106889352D01*
X73265001Y-106887763D01*
X73255392Y-106884848D01*
X73246528Y-106880110D01*
X73238763Y-106873737D01*
X73232390Y-106865972D01*
X73227652Y-106857108D01*
X73224737Y-106847499D01*
X73223148Y-106831360D01*
X73223148Y-105968646D01*
X73223427Y-105965814D01*
X73224026Y-105954428D01*
X73224092Y-105944886D01*
X73240664Y-105787220D01*
X73245147Y-105765383D01*
X73292029Y-105613930D01*
X73300668Y-105593381D01*
X73376071Y-105453924D01*
X73388534Y-105435446D01*
X73489597Y-105313284D01*
X73505411Y-105297580D01*
X73628269Y-105197379D01*
X73646843Y-105185038D01*
X73786815Y-105110613D01*
X73807432Y-105102115D01*
X73959211Y-105056291D01*
X73981070Y-105051963D01*
X74141888Y-105036194D01*
X74153059Y-105035648D01*
X76899901Y-105035648D01*
X76900493Y-105035650D01*
G37*
G36*
X91681938Y-105671716D02*
G01*
X91702557Y-105677971D01*
X91721553Y-105688124D01*
X91738208Y-105701792D01*
X91751876Y-105718447D01*
X91762029Y-105737443D01*
X91768284Y-105758062D01*
X91771000Y-105785640D01*
X91771000Y-106244360D01*
X91768284Y-106271938D01*
X91762029Y-106292557D01*
X91751876Y-106311553D01*
X91738208Y-106328208D01*
X91721553Y-106341876D01*
X91702557Y-106352029D01*
X91681938Y-106358284D01*
X91654360Y-106361000D01*
X91145640Y-106361000D01*
X91118062Y-106358284D01*
X91097443Y-106352029D01*
X91078447Y-106341876D01*
X91061792Y-106328208D01*
X91048124Y-106311553D01*
X91037971Y-106292557D01*
X91031716Y-106271938D01*
X91029000Y-106244360D01*
X91029000Y-105785640D01*
X91031716Y-105758062D01*
X91037971Y-105737443D01*
X91048124Y-105718447D01*
X91061792Y-105701792D01*
X91078447Y-105688124D01*
X91097443Y-105677971D01*
X91118062Y-105671716D01*
X91145640Y-105669000D01*
X91654360Y-105669000D01*
X91681938Y-105671716D01*
G37*
G36*
X85431938Y-105671716D02*
G01*
X85452557Y-105677971D01*
X85471553Y-105688124D01*
X85488208Y-105701792D01*
X85501876Y-105718447D01*
X85512029Y-105737443D01*
X85518284Y-105758062D01*
X85521000Y-105785640D01*
X85521000Y-106244360D01*
X85518284Y-106271938D01*
X85512029Y-106292557D01*
X85501876Y-106311553D01*
X85488208Y-106328208D01*
X85471553Y-106341876D01*
X85452557Y-106352029D01*
X85431938Y-106358284D01*
X85404360Y-106361000D01*
X84895640Y-106361000D01*
X84868062Y-106358284D01*
X84847443Y-106352029D01*
X84828447Y-106341876D01*
X84811792Y-106328208D01*
X84798124Y-106311553D01*
X84787971Y-106292557D01*
X84781716Y-106271938D01*
X84779000Y-106244360D01*
X84779000Y-105785640D01*
X84781716Y-105758062D01*
X84787971Y-105737443D01*
X84798124Y-105718447D01*
X84811792Y-105701792D01*
X84828447Y-105688124D01*
X84847443Y-105677971D01*
X84868062Y-105671716D01*
X84895640Y-105669000D01*
X85404360Y-105669000D01*
X85431938Y-105671716D01*
G37*
G36*
X101929591Y-105378085D02*
G01*
X101963569Y-105388393D01*
X101994890Y-105405134D01*
X102022339Y-105427661D01*
X102044866Y-105455110D01*
X102061607Y-105486431D01*
X102071915Y-105520409D01*
X102076000Y-105561890D01*
X102076000Y-106163110D01*
X102071915Y-106204591D01*
X102061607Y-106238569D01*
X102044866Y-106269890D01*
X102022339Y-106297339D01*
X101994890Y-106319866D01*
X101963569Y-106336607D01*
X101929591Y-106346915D01*
X101888110Y-106351000D01*
X101211890Y-106351000D01*
X101170409Y-106346915D01*
X101136431Y-106336607D01*
X101105110Y-106319866D01*
X101077661Y-106297339D01*
X101055134Y-106269890D01*
X101038393Y-106238569D01*
X101028085Y-106204591D01*
X101024000Y-106163110D01*
X101024000Y-105561890D01*
X101028085Y-105520409D01*
X101038393Y-105486431D01*
X101055134Y-105455110D01*
X101077661Y-105427661D01*
X101105110Y-105405134D01*
X101136431Y-105388393D01*
X101170409Y-105378085D01*
X101211890Y-105374000D01*
X101888110Y-105374000D01*
X101929591Y-105378085D01*
G37*
G36*
X100541938Y-105481716D02*
G01*
X100562557Y-105487971D01*
X100581553Y-105498124D01*
X100598208Y-105511792D01*
X100611876Y-105528447D01*
X100622029Y-105547443D01*
X100628284Y-105568062D01*
X100631000Y-105595640D01*
X100631000Y-106104360D01*
X100628284Y-106131938D01*
X100622029Y-106152557D01*
X100611876Y-106171553D01*
X100598208Y-106188208D01*
X100581553Y-106201876D01*
X100562557Y-106212029D01*
X100541938Y-106218284D01*
X100514360Y-106221000D01*
X100055640Y-106221000D01*
X100028062Y-106218284D01*
X100007443Y-106212029D01*
X99988447Y-106201876D01*
X99971792Y-106188208D01*
X99958124Y-106171553D01*
X99947971Y-106152557D01*
X99941716Y-106131938D01*
X99939000Y-106104360D01*
X99939000Y-105595640D01*
X99941716Y-105568062D01*
X99947971Y-105547443D01*
X99958124Y-105528447D01*
X99971792Y-105511792D01*
X99988447Y-105498124D01*
X100007443Y-105487971D01*
X100028062Y-105481716D01*
X100055640Y-105479000D01*
X100514360Y-105479000D01*
X100541938Y-105481716D01*
G37*
G36*
X99571938Y-105481716D02*
G01*
X99592557Y-105487971D01*
X99611553Y-105498124D01*
X99628208Y-105511792D01*
X99641876Y-105528447D01*
X99652029Y-105547443D01*
X99658284Y-105568062D01*
X99661000Y-105595640D01*
X99661000Y-106104360D01*
X99658284Y-106131938D01*
X99652029Y-106152557D01*
X99641876Y-106171553D01*
X99628208Y-106188208D01*
X99611553Y-106201876D01*
X99592557Y-106212029D01*
X99571938Y-106218284D01*
X99544360Y-106221000D01*
X99085640Y-106221000D01*
X99058062Y-106218284D01*
X99037443Y-106212029D01*
X99018447Y-106201876D01*
X99001792Y-106188208D01*
X98988124Y-106171553D01*
X98977971Y-106152557D01*
X98971716Y-106131938D01*
X98969000Y-106104360D01*
X98969000Y-105595640D01*
X98971716Y-105568062D01*
X98977971Y-105547443D01*
X98988124Y-105528447D01*
X99001792Y-105511792D01*
X99018447Y-105498124D01*
X99037443Y-105487971D01*
X99058062Y-105481716D01*
X99085640Y-105479000D01*
X99544360Y-105479000D01*
X99571938Y-105481716D01*
G37*
G36*
X88106938Y-105531716D02*
G01*
X88127557Y-105537971D01*
X88146553Y-105548124D01*
X88163208Y-105561792D01*
X88176876Y-105578447D01*
X88187029Y-105597443D01*
X88193284Y-105618062D01*
X88196000Y-105645640D01*
X88196000Y-106104360D01*
X88193284Y-106131938D01*
X88187029Y-106152557D01*
X88176876Y-106171553D01*
X88163208Y-106188208D01*
X88146553Y-106201876D01*
X88127557Y-106212029D01*
X88106938Y-106218284D01*
X88079360Y-106221000D01*
X87570640Y-106221000D01*
X87543062Y-106218284D01*
X87522443Y-106212029D01*
X87503447Y-106201876D01*
X87486792Y-106188208D01*
X87473124Y-106171553D01*
X87462971Y-106152557D01*
X87456716Y-106131938D01*
X87454000Y-106104360D01*
X87454000Y-105645640D01*
X87456716Y-105618062D01*
X87462971Y-105597443D01*
X87473124Y-105578447D01*
X87486792Y-105561792D01*
X87503447Y-105548124D01*
X87522443Y-105537971D01*
X87543062Y-105531716D01*
X87570640Y-105529000D01*
X88079360Y-105529000D01*
X88106938Y-105531716D01*
G37*
G36*
X89156938Y-105516716D02*
G01*
X89177557Y-105522971D01*
X89196553Y-105533124D01*
X89213208Y-105546792D01*
X89226876Y-105563447D01*
X89237029Y-105582443D01*
X89243284Y-105603062D01*
X89246000Y-105630640D01*
X89246000Y-106089360D01*
X89243284Y-106116938D01*
X89237029Y-106137557D01*
X89226876Y-106156553D01*
X89213208Y-106173208D01*
X89196553Y-106186876D01*
X89177557Y-106197029D01*
X89156938Y-106203284D01*
X89129360Y-106206000D01*
X88620640Y-106206000D01*
X88593062Y-106203284D01*
X88572443Y-106197029D01*
X88553447Y-106186876D01*
X88536792Y-106173208D01*
X88523124Y-106156553D01*
X88512971Y-106137557D01*
X88506716Y-106116938D01*
X88504000Y-106089360D01*
X88504000Y-105630640D01*
X88506716Y-105603062D01*
X88512971Y-105582443D01*
X88523124Y-105563447D01*
X88536792Y-105546792D01*
X88553447Y-105533124D01*
X88572443Y-105522971D01*
X88593062Y-105516716D01*
X88620640Y-105514000D01*
X89129360Y-105514000D01*
X89156938Y-105516716D01*
G37*
G36*
X106984468Y-104978565D02*
G01*
X107023138Y-104990296D01*
X107058777Y-105009346D01*
X107090017Y-105034983D01*
X107115654Y-105066223D01*
X107134704Y-105101862D01*
X107146435Y-105140532D01*
X107151000Y-105186888D01*
X107151000Y-105838112D01*
X107146435Y-105884468D01*
X107134704Y-105923138D01*
X107115654Y-105958777D01*
X107090017Y-105990017D01*
X107058777Y-106015654D01*
X107023138Y-106034704D01*
X106984468Y-106046435D01*
X106938112Y-106051000D01*
X105861888Y-106051000D01*
X105815532Y-106046435D01*
X105776862Y-106034704D01*
X105741223Y-106015654D01*
X105709983Y-105990017D01*
X105684346Y-105958777D01*
X105665296Y-105923138D01*
X105653565Y-105884468D01*
X105649000Y-105838112D01*
X105649000Y-105186888D01*
X105653565Y-105140532D01*
X105665296Y-105101862D01*
X105684346Y-105066223D01*
X105709983Y-105034983D01*
X105741223Y-105009346D01*
X105776862Y-104990296D01*
X105815532Y-104978565D01*
X105861888Y-104974000D01*
X106938112Y-104974000D01*
X106984468Y-104978565D01*
G37*
G36*
X104171938Y-105131716D02*
G01*
X104192557Y-105137971D01*
X104211553Y-105148124D01*
X104228208Y-105161792D01*
X104241876Y-105178447D01*
X104252029Y-105197443D01*
X104258284Y-105218062D01*
X104261000Y-105245640D01*
X104261000Y-105754360D01*
X104258284Y-105781938D01*
X104252029Y-105802557D01*
X104241876Y-105821553D01*
X104228208Y-105838208D01*
X104211553Y-105851876D01*
X104192557Y-105862029D01*
X104171938Y-105868284D01*
X104144360Y-105871000D01*
X103685640Y-105871000D01*
X103658062Y-105868284D01*
X103637443Y-105862029D01*
X103618447Y-105851876D01*
X103601792Y-105838208D01*
X103588124Y-105821553D01*
X103577971Y-105802557D01*
X103571716Y-105781938D01*
X103569000Y-105754360D01*
X103569000Y-105245640D01*
X103571716Y-105218062D01*
X103577971Y-105197443D01*
X103588124Y-105178447D01*
X103601792Y-105161792D01*
X103618447Y-105148124D01*
X103637443Y-105137971D01*
X103658062Y-105131716D01*
X103685640Y-105129000D01*
X104144360Y-105129000D01*
X104171938Y-105131716D01*
G37*
G36*
X105141938Y-105131716D02*
G01*
X105162557Y-105137971D01*
X105181553Y-105148124D01*
X105198208Y-105161792D01*
X105211876Y-105178447D01*
X105222029Y-105197443D01*
X105228284Y-105218062D01*
X105231000Y-105245640D01*
X105231000Y-105754360D01*
X105228284Y-105781938D01*
X105222029Y-105802557D01*
X105211876Y-105821553D01*
X105198208Y-105838208D01*
X105181553Y-105851876D01*
X105162557Y-105862029D01*
X105141938Y-105868284D01*
X105114360Y-105871000D01*
X104655640Y-105871000D01*
X104628062Y-105868284D01*
X104607443Y-105862029D01*
X104588447Y-105851876D01*
X104571792Y-105838208D01*
X104558124Y-105821553D01*
X104547971Y-105802557D01*
X104541716Y-105781938D01*
X104539000Y-105754360D01*
X104539000Y-105245640D01*
X104541716Y-105218062D01*
X104547971Y-105197443D01*
X104558124Y-105178447D01*
X104571792Y-105161792D01*
X104588447Y-105148124D01*
X104607443Y-105137971D01*
X104628062Y-105131716D01*
X104655640Y-105129000D01*
X105114360Y-105129000D01*
X105141938Y-105131716D01*
G37*
G36*
X84251000Y-105851000D02*
G01*
X83449000Y-105851000D01*
X83449000Y-105149000D01*
X84251000Y-105149000D01*
X84251000Y-105851000D01*
G37*
G36*
X90529591Y-104678085D02*
G01*
X90563569Y-104688393D01*
X90594890Y-104705134D01*
X90622339Y-104727661D01*
X90644866Y-104755110D01*
X90661607Y-104786431D01*
X90671915Y-104820409D01*
X90676000Y-104861890D01*
X90676000Y-105463110D01*
X90671915Y-105504591D01*
X90661607Y-105538569D01*
X90644866Y-105569890D01*
X90622339Y-105597339D01*
X90594890Y-105619866D01*
X90563569Y-105636607D01*
X90529591Y-105646915D01*
X90488110Y-105651000D01*
X89811890Y-105651000D01*
X89770409Y-105646915D01*
X89736431Y-105636607D01*
X89705110Y-105619866D01*
X89677661Y-105597339D01*
X89655134Y-105569890D01*
X89638393Y-105538569D01*
X89628085Y-105504591D01*
X89624000Y-105463110D01*
X89624000Y-104861890D01*
X89628085Y-104820409D01*
X89638393Y-104786431D01*
X89655134Y-104755110D01*
X89677661Y-104727661D01*
X89705110Y-104705134D01*
X89736431Y-104688393D01*
X89770409Y-104678085D01*
X89811890Y-104674000D01*
X90488110Y-104674000D01*
X90529591Y-104678085D01*
G37*
G36*
X86929591Y-104678085D02*
G01*
X86963569Y-104688393D01*
X86994890Y-104705134D01*
X87022339Y-104727661D01*
X87044866Y-104755110D01*
X87061607Y-104786431D01*
X87071915Y-104820409D01*
X87076000Y-104861890D01*
X87076000Y-105463110D01*
X87071915Y-105504591D01*
X87061607Y-105538569D01*
X87044866Y-105569890D01*
X87022339Y-105597339D01*
X86994890Y-105619866D01*
X86963569Y-105636607D01*
X86929591Y-105646915D01*
X86888110Y-105651000D01*
X86211890Y-105651000D01*
X86170409Y-105646915D01*
X86136431Y-105636607D01*
X86105110Y-105619866D01*
X86077661Y-105597339D01*
X86055134Y-105569890D01*
X86038393Y-105538569D01*
X86028085Y-105504591D01*
X86024000Y-105463110D01*
X86024000Y-104861890D01*
X86028085Y-104820409D01*
X86038393Y-104786431D01*
X86055134Y-104755110D01*
X86077661Y-104727661D01*
X86105110Y-104705134D01*
X86136431Y-104688393D01*
X86170409Y-104678085D01*
X86211890Y-104674000D01*
X86888110Y-104674000D01*
X86929591Y-104678085D01*
G37*
G36*
X88106938Y-104561716D02*
G01*
X88127557Y-104567971D01*
X88146553Y-104578124D01*
X88163208Y-104591792D01*
X88176876Y-104608447D01*
X88187029Y-104627443D01*
X88193284Y-104648062D01*
X88196000Y-104675640D01*
X88196000Y-105134360D01*
X88193284Y-105161938D01*
X88187029Y-105182557D01*
X88176876Y-105201553D01*
X88163208Y-105218208D01*
X88146553Y-105231876D01*
X88127557Y-105242029D01*
X88106938Y-105248284D01*
X88079360Y-105251000D01*
X87570640Y-105251000D01*
X87543062Y-105248284D01*
X87522443Y-105242029D01*
X87503447Y-105231876D01*
X87486792Y-105218208D01*
X87473124Y-105201553D01*
X87462971Y-105182557D01*
X87456716Y-105161938D01*
X87454000Y-105134360D01*
X87454000Y-104675640D01*
X87456716Y-104648062D01*
X87462971Y-104627443D01*
X87473124Y-104608447D01*
X87486792Y-104591792D01*
X87503447Y-104578124D01*
X87522443Y-104567971D01*
X87543062Y-104561716D01*
X87570640Y-104559000D01*
X88079360Y-104559000D01*
X88106938Y-104561716D01*
G37*
G36*
X89156938Y-104546716D02*
G01*
X89177557Y-104552971D01*
X89196553Y-104563124D01*
X89213208Y-104576792D01*
X89226876Y-104593447D01*
X89237029Y-104612443D01*
X89243284Y-104633062D01*
X89246000Y-104660640D01*
X89246000Y-105119360D01*
X89243284Y-105146938D01*
X89237029Y-105167557D01*
X89226876Y-105186553D01*
X89213208Y-105203208D01*
X89196553Y-105216876D01*
X89177557Y-105227029D01*
X89156938Y-105233284D01*
X89129360Y-105236000D01*
X88620640Y-105236000D01*
X88593062Y-105233284D01*
X88572443Y-105227029D01*
X88553447Y-105216876D01*
X88536792Y-105203208D01*
X88523124Y-105186553D01*
X88512971Y-105167557D01*
X88506716Y-105146938D01*
X88504000Y-105119360D01*
X88504000Y-104660640D01*
X88506716Y-104633062D01*
X88512971Y-104612443D01*
X88523124Y-104593447D01*
X88536792Y-104576792D01*
X88553447Y-104563124D01*
X88572443Y-104552971D01*
X88593062Y-104546716D01*
X88620640Y-104544000D01*
X89129360Y-104544000D01*
X89156938Y-104546716D01*
G37*
G36*
X70294579Y-100964112D02*
G01*
X70420544Y-100989168D01*
X70567991Y-101050243D01*
X70776512Y-101136615D01*
X70776513Y-101136616D01*
X71096877Y-101350676D01*
X71369324Y-101623123D01*
X71512355Y-101837184D01*
X71583385Y-101943488D01*
X71730832Y-102299457D01*
X71806000Y-102677349D01*
X71806000Y-103062651D01*
X71730832Y-103440543D01*
X71583385Y-103796512D01*
X71583384Y-103796513D01*
X71369324Y-104116877D01*
X71096877Y-104389324D01*
X70882816Y-104532355D01*
X70776512Y-104603385D01*
X70638286Y-104660640D01*
X70420544Y-104750832D01*
X70294579Y-104775888D01*
X70042651Y-104826000D01*
X69657349Y-104826000D01*
X69405421Y-104775888D01*
X69279456Y-104750832D01*
X69061714Y-104660640D01*
X68923488Y-104603385D01*
X68817184Y-104532355D01*
X68603123Y-104389324D01*
X68330676Y-104116877D01*
X68116616Y-103796513D01*
X68116615Y-103796512D01*
X67969168Y-103440543D01*
X67894000Y-103062651D01*
X67894000Y-102677349D01*
X67969168Y-102299457D01*
X68116615Y-101943488D01*
X68187645Y-101837184D01*
X68330676Y-101623123D01*
X68603123Y-101350676D01*
X68923487Y-101136616D01*
X68923488Y-101136615D01*
X69132009Y-101050243D01*
X69279456Y-100989168D01*
X69405421Y-100964112D01*
X69657349Y-100914000D01*
X70042651Y-100914000D01*
X70294579Y-100964112D01*
G37*
G36*
X104156938Y-104081716D02*
G01*
X104177557Y-104087971D01*
X104196553Y-104098124D01*
X104213208Y-104111792D01*
X104226876Y-104128447D01*
X104237029Y-104147443D01*
X104243284Y-104168062D01*
X104246000Y-104195640D01*
X104246000Y-104704360D01*
X104243284Y-104731938D01*
X104237029Y-104752557D01*
X104226876Y-104771553D01*
X104213208Y-104788208D01*
X104196553Y-104801876D01*
X104177557Y-104812029D01*
X104156938Y-104818284D01*
X104129360Y-104821000D01*
X103670640Y-104821000D01*
X103643062Y-104818284D01*
X103622443Y-104812029D01*
X103603447Y-104801876D01*
X103586792Y-104788208D01*
X103573124Y-104771553D01*
X103562971Y-104752557D01*
X103556716Y-104731938D01*
X103554000Y-104704360D01*
X103554000Y-104195640D01*
X103556716Y-104168062D01*
X103562971Y-104147443D01*
X103573124Y-104128447D01*
X103586792Y-104111792D01*
X103603447Y-104098124D01*
X103622443Y-104087971D01*
X103643062Y-104081716D01*
X103670640Y-104079000D01*
X104129360Y-104079000D01*
X104156938Y-104081716D01*
G37*
G36*
X105126938Y-104081716D02*
G01*
X105147557Y-104087971D01*
X105166553Y-104098124D01*
X105183208Y-104111792D01*
X105196876Y-104128447D01*
X105207029Y-104147443D01*
X105213284Y-104168062D01*
X105216000Y-104195640D01*
X105216000Y-104704360D01*
X105213284Y-104731938D01*
X105207029Y-104752557D01*
X105196876Y-104771553D01*
X105183208Y-104788208D01*
X105166553Y-104801876D01*
X105147557Y-104812029D01*
X105126938Y-104818284D01*
X105099360Y-104821000D01*
X104640640Y-104821000D01*
X104613062Y-104818284D01*
X104592443Y-104812029D01*
X104573447Y-104801876D01*
X104556792Y-104788208D01*
X104543124Y-104771553D01*
X104532971Y-104752557D01*
X104526716Y-104731938D01*
X104524000Y-104704360D01*
X104524000Y-104195640D01*
X104526716Y-104168062D01*
X104532971Y-104147443D01*
X104543124Y-104128447D01*
X104556792Y-104111792D01*
X104573447Y-104098124D01*
X104592443Y-104087971D01*
X104613062Y-104081716D01*
X104640640Y-104079000D01*
X105099360Y-104079000D01*
X105126938Y-104081716D01*
G37*
G36*
X115827715Y-101574383D02*
G01*
X115955322Y-101599765D01*
X116096148Y-101658097D01*
X116195727Y-101699344D01*
X116195728Y-101699345D01*
X116412089Y-101843912D01*
X116596088Y-102027911D01*
X116692685Y-102172479D01*
X116740656Y-102244273D01*
X116763513Y-102299456D01*
X116840235Y-102484678D01*
X116853029Y-102549000D01*
X116891000Y-102739891D01*
X116891000Y-103000109D01*
X116865618Y-103127714D01*
X116840235Y-103255322D01*
X116781903Y-103396148D01*
X116740656Y-103495727D01*
X116740655Y-103495728D01*
X116596088Y-103712089D01*
X116412089Y-103896088D01*
X116267521Y-103992685D01*
X116195727Y-104040656D01*
X116103156Y-104079000D01*
X115955322Y-104140235D01*
X115876638Y-104155886D01*
X115700109Y-104191000D01*
X115439891Y-104191000D01*
X115263362Y-104155886D01*
X115184678Y-104140235D01*
X115036844Y-104079000D01*
X114944273Y-104040656D01*
X114872479Y-103992685D01*
X114727911Y-103896088D01*
X114543912Y-103712089D01*
X114399345Y-103495728D01*
X114399344Y-103495727D01*
X114358097Y-103396148D01*
X114299765Y-103255322D01*
X114274382Y-103127714D01*
X114249000Y-103000109D01*
X114249000Y-102739891D01*
X114286971Y-102549000D01*
X114299765Y-102484678D01*
X114376487Y-102299456D01*
X114399344Y-102244273D01*
X114447315Y-102172479D01*
X114543912Y-102027911D01*
X114727911Y-101843912D01*
X114944272Y-101699345D01*
X114944273Y-101699344D01*
X115043852Y-101658097D01*
X115184678Y-101599765D01*
X115312285Y-101574383D01*
X115439891Y-101549000D01*
X115700109Y-101549000D01*
X115827715Y-101574383D01*
G37*
G36*
X77026000Y-103851000D02*
G01*
X76024000Y-103851000D01*
X76024000Y-102549000D01*
X77026000Y-102549000D01*
X77026000Y-103851000D01*
G37*
G36*
X73726000Y-103851000D02*
G01*
X72724000Y-103851000D01*
X72724000Y-102549000D01*
X73726000Y-102549000D01*
X73726000Y-103851000D01*
G37*
G36*
X78476000Y-103851000D02*
G01*
X77474000Y-103851000D01*
X77474000Y-102549000D01*
X78476000Y-102549000D01*
X78476000Y-103851000D01*
G37*
G36*
X81776000Y-103851000D02*
G01*
X80774000Y-103851000D01*
X80774000Y-102549000D01*
X81776000Y-102549000D01*
X81776000Y-103851000D01*
G37*
G36*
X109333512Y-100703927D02*
G01*
X109482812Y-100733624D01*
X109646784Y-100801544D01*
X109794354Y-100900147D01*
X109919853Y-101025646D01*
X110018456Y-101173216D01*
X110086376Y-101337188D01*
X110121000Y-101511259D01*
X110121000Y-101688741D01*
X110086376Y-101862812D01*
X110018456Y-102026784D01*
X109919853Y-102174354D01*
X109794354Y-102299853D01*
X109646784Y-102398456D01*
X109482812Y-102466376D01*
X109333512Y-102496073D01*
X109308742Y-102501000D01*
X109131258Y-102501000D01*
X109106488Y-102496073D01*
X108957188Y-102466376D01*
X108793216Y-102398456D01*
X108645646Y-102299853D01*
X108520147Y-102174354D01*
X108421544Y-102026784D01*
X108353624Y-101862812D01*
X108319000Y-101688741D01*
X108319000Y-101511259D01*
X108353624Y-101337188D01*
X108421544Y-101173216D01*
X108520147Y-101025646D01*
X108645646Y-100900147D01*
X108793216Y-100801544D01*
X108957188Y-100733624D01*
X109106488Y-100703927D01*
X109131258Y-100699000D01*
X109308742Y-100699000D01*
X109333512Y-100703927D01*
G37*
G36*
X83933512Y-100703927D02*
G01*
X84082812Y-100733624D01*
X84246784Y-100801544D01*
X84394354Y-100900147D01*
X84519853Y-101025646D01*
X84618456Y-101173216D01*
X84686376Y-101337188D01*
X84721000Y-101511259D01*
X84721000Y-101688741D01*
X84686376Y-101862812D01*
X84618456Y-102026784D01*
X84519853Y-102174354D01*
X84394354Y-102299853D01*
X84246784Y-102398456D01*
X84082812Y-102466376D01*
X83933512Y-102496073D01*
X83908742Y-102501000D01*
X83731258Y-102501000D01*
X83706488Y-102496073D01*
X83557188Y-102466376D01*
X83393216Y-102398456D01*
X83245646Y-102299853D01*
X83120147Y-102174354D01*
X83021544Y-102026784D01*
X82953624Y-101862812D01*
X82919000Y-101688741D01*
X82919000Y-101511259D01*
X82953624Y-101337188D01*
X83021544Y-101173216D01*
X83120147Y-101025646D01*
X83245646Y-100900147D01*
X83393216Y-100801544D01*
X83557188Y-100733624D01*
X83706488Y-100703927D01*
X83731258Y-100699000D01*
X83908742Y-100699000D01*
X83933512Y-100703927D01*
G37*
G36*
X86473512Y-100703927D02*
G01*
X86622812Y-100733624D01*
X86786784Y-100801544D01*
X86934354Y-100900147D01*
X87059853Y-101025646D01*
X87158456Y-101173216D01*
X87226376Y-101337188D01*
X87261000Y-101511259D01*
X87261000Y-101688741D01*
X87226376Y-101862812D01*
X87158456Y-102026784D01*
X87059853Y-102174354D01*
X86934354Y-102299853D01*
X86786784Y-102398456D01*
X86622812Y-102466376D01*
X86473512Y-102496073D01*
X86448742Y-102501000D01*
X86271258Y-102501000D01*
X86246488Y-102496073D01*
X86097188Y-102466376D01*
X85933216Y-102398456D01*
X85785646Y-102299853D01*
X85660147Y-102174354D01*
X85561544Y-102026784D01*
X85493624Y-101862812D01*
X85459000Y-101688741D01*
X85459000Y-101511259D01*
X85493624Y-101337188D01*
X85561544Y-101173216D01*
X85660147Y-101025646D01*
X85785646Y-100900147D01*
X85933216Y-100801544D01*
X86097188Y-100733624D01*
X86246488Y-100703927D01*
X86271258Y-100699000D01*
X86448742Y-100699000D01*
X86473512Y-100703927D01*
G37*
G36*
X89013512Y-100703927D02*
G01*
X89162812Y-100733624D01*
X89326784Y-100801544D01*
X89474354Y-100900147D01*
X89599853Y-101025646D01*
X89698456Y-101173216D01*
X89766376Y-101337188D01*
X89801000Y-101511259D01*
X89801000Y-101688741D01*
X89766376Y-101862812D01*
X89698456Y-102026784D01*
X89599853Y-102174354D01*
X89474354Y-102299853D01*
X89326784Y-102398456D01*
X89162812Y-102466376D01*
X89013512Y-102496073D01*
X88988742Y-102501000D01*
X88811258Y-102501000D01*
X88786488Y-102496073D01*
X88637188Y-102466376D01*
X88473216Y-102398456D01*
X88325646Y-102299853D01*
X88200147Y-102174354D01*
X88101544Y-102026784D01*
X88033624Y-101862812D01*
X87999000Y-101688741D01*
X87999000Y-101511259D01*
X88033624Y-101337188D01*
X88101544Y-101173216D01*
X88200147Y-101025646D01*
X88325646Y-100900147D01*
X88473216Y-100801544D01*
X88637188Y-100733624D01*
X88786488Y-100703927D01*
X88811258Y-100699000D01*
X88988742Y-100699000D01*
X89013512Y-100703927D01*
G37*
G36*
X91553512Y-100703927D02*
G01*
X91702812Y-100733624D01*
X91866784Y-100801544D01*
X92014354Y-100900147D01*
X92139853Y-101025646D01*
X92238456Y-101173216D01*
X92306376Y-101337188D01*
X92341000Y-101511259D01*
X92341000Y-101688741D01*
X92306376Y-101862812D01*
X92238456Y-102026784D01*
X92139853Y-102174354D01*
X92014354Y-102299853D01*
X91866784Y-102398456D01*
X91702812Y-102466376D01*
X91553512Y-102496073D01*
X91528742Y-102501000D01*
X91351258Y-102501000D01*
X91326488Y-102496073D01*
X91177188Y-102466376D01*
X91013216Y-102398456D01*
X90865646Y-102299853D01*
X90740147Y-102174354D01*
X90641544Y-102026784D01*
X90573624Y-101862812D01*
X90539000Y-101688741D01*
X90539000Y-101511259D01*
X90573624Y-101337188D01*
X90641544Y-101173216D01*
X90740147Y-101025646D01*
X90865646Y-100900147D01*
X91013216Y-100801544D01*
X91177188Y-100733624D01*
X91326488Y-100703927D01*
X91351258Y-100699000D01*
X91528742Y-100699000D01*
X91553512Y-100703927D01*
G37*
G36*
X94093512Y-100703927D02*
G01*
X94242812Y-100733624D01*
X94406784Y-100801544D01*
X94554354Y-100900147D01*
X94679853Y-101025646D01*
X94778456Y-101173216D01*
X94846376Y-101337188D01*
X94881000Y-101511259D01*
X94881000Y-101688741D01*
X94846376Y-101862812D01*
X94778456Y-102026784D01*
X94679853Y-102174354D01*
X94554354Y-102299853D01*
X94406784Y-102398456D01*
X94242812Y-102466376D01*
X94093512Y-102496073D01*
X94068742Y-102501000D01*
X93891258Y-102501000D01*
X93866488Y-102496073D01*
X93717188Y-102466376D01*
X93553216Y-102398456D01*
X93405646Y-102299853D01*
X93280147Y-102174354D01*
X93181544Y-102026784D01*
X93113624Y-101862812D01*
X93079000Y-101688741D01*
X93079000Y-101511259D01*
X93113624Y-101337188D01*
X93181544Y-101173216D01*
X93280147Y-101025646D01*
X93405646Y-100900147D01*
X93553216Y-100801544D01*
X93717188Y-100733624D01*
X93866488Y-100703927D01*
X93891258Y-100699000D01*
X94068742Y-100699000D01*
X94093512Y-100703927D01*
G37*
G36*
X96633512Y-100703927D02*
G01*
X96782812Y-100733624D01*
X96946784Y-100801544D01*
X97094354Y-100900147D01*
X97219853Y-101025646D01*
X97318456Y-101173216D01*
X97386376Y-101337188D01*
X97421000Y-101511259D01*
X97421000Y-101688741D01*
X97386376Y-101862812D01*
X97318456Y-102026784D01*
X97219853Y-102174354D01*
X97094354Y-102299853D01*
X96946784Y-102398456D01*
X96782812Y-102466376D01*
X96633512Y-102496073D01*
X96608742Y-102501000D01*
X96431258Y-102501000D01*
X96406488Y-102496073D01*
X96257188Y-102466376D01*
X96093216Y-102398456D01*
X95945646Y-102299853D01*
X95820147Y-102174354D01*
X95721544Y-102026784D01*
X95653624Y-101862812D01*
X95619000Y-101688741D01*
X95619000Y-101511259D01*
X95653624Y-101337188D01*
X95721544Y-101173216D01*
X95820147Y-101025646D01*
X95945646Y-100900147D01*
X96093216Y-100801544D01*
X96257188Y-100733624D01*
X96406488Y-100703927D01*
X96431258Y-100699000D01*
X96608742Y-100699000D01*
X96633512Y-100703927D01*
G37*
G36*
X99173512Y-100703927D02*
G01*
X99322812Y-100733624D01*
X99486784Y-100801544D01*
X99634354Y-100900147D01*
X99759853Y-101025646D01*
X99858456Y-101173216D01*
X99926376Y-101337188D01*
X99961000Y-101511259D01*
X99961000Y-101688741D01*
X99926376Y-101862812D01*
X99858456Y-102026784D01*
X99759853Y-102174354D01*
X99634354Y-102299853D01*
X99486784Y-102398456D01*
X99322812Y-102466376D01*
X99173512Y-102496073D01*
X99148742Y-102501000D01*
X98971258Y-102501000D01*
X98946488Y-102496073D01*
X98797188Y-102466376D01*
X98633216Y-102398456D01*
X98485646Y-102299853D01*
X98360147Y-102174354D01*
X98261544Y-102026784D01*
X98193624Y-101862812D01*
X98159000Y-101688741D01*
X98159000Y-101511259D01*
X98193624Y-101337188D01*
X98261544Y-101173216D01*
X98360147Y-101025646D01*
X98485646Y-100900147D01*
X98633216Y-100801544D01*
X98797188Y-100733624D01*
X98946488Y-100703927D01*
X98971258Y-100699000D01*
X99148742Y-100699000D01*
X99173512Y-100703927D01*
G37*
G36*
X101713512Y-100703927D02*
G01*
X101862812Y-100733624D01*
X102026784Y-100801544D01*
X102174354Y-100900147D01*
X102299853Y-101025646D01*
X102398456Y-101173216D01*
X102466376Y-101337188D01*
X102501000Y-101511259D01*
X102501000Y-101688741D01*
X102466376Y-101862812D01*
X102398456Y-102026784D01*
X102299853Y-102174354D01*
X102174354Y-102299853D01*
X102026784Y-102398456D01*
X101862812Y-102466376D01*
X101713512Y-102496073D01*
X101688742Y-102501000D01*
X101511258Y-102501000D01*
X101486488Y-102496073D01*
X101337188Y-102466376D01*
X101173216Y-102398456D01*
X101025646Y-102299853D01*
X100900147Y-102174354D01*
X100801544Y-102026784D01*
X100733624Y-101862812D01*
X100699000Y-101688741D01*
X100699000Y-101511259D01*
X100733624Y-101337188D01*
X100801544Y-101173216D01*
X100900147Y-101025646D01*
X101025646Y-100900147D01*
X101173216Y-100801544D01*
X101337188Y-100733624D01*
X101486488Y-100703927D01*
X101511258Y-100699000D01*
X101688742Y-100699000D01*
X101713512Y-100703927D01*
G37*
G36*
X104253512Y-100703927D02*
G01*
X104402812Y-100733624D01*
X104566784Y-100801544D01*
X104714354Y-100900147D01*
X104839853Y-101025646D01*
X104938456Y-101173216D01*
X105006376Y-101337188D01*
X105041000Y-101511259D01*
X105041000Y-101688741D01*
X105006376Y-101862812D01*
X104938456Y-102026784D01*
X104839853Y-102174354D01*
X104714354Y-102299853D01*
X104566784Y-102398456D01*
X104402812Y-102466376D01*
X104253512Y-102496073D01*
X104228742Y-102501000D01*
X104051258Y-102501000D01*
X104026488Y-102496073D01*
X103877188Y-102466376D01*
X103713216Y-102398456D01*
X103565646Y-102299853D01*
X103440147Y-102174354D01*
X103341544Y-102026784D01*
X103273624Y-101862812D01*
X103239000Y-101688741D01*
X103239000Y-101511259D01*
X103273624Y-101337188D01*
X103341544Y-101173216D01*
X103440147Y-101025646D01*
X103565646Y-100900147D01*
X103713216Y-100801544D01*
X103877188Y-100733624D01*
X104026488Y-100703927D01*
X104051258Y-100699000D01*
X104228742Y-100699000D01*
X104253512Y-100703927D01*
G37*
G36*
X106793512Y-100703927D02*
G01*
X106942812Y-100733624D01*
X107106784Y-100801544D01*
X107254354Y-100900147D01*
X107379853Y-101025646D01*
X107478456Y-101173216D01*
X107546376Y-101337188D01*
X107581000Y-101511259D01*
X107581000Y-101688741D01*
X107546376Y-101862812D01*
X107478456Y-102026784D01*
X107379853Y-102174354D01*
X107254354Y-102299853D01*
X107106784Y-102398456D01*
X106942812Y-102466376D01*
X106793512Y-102496073D01*
X106768742Y-102501000D01*
X106591258Y-102501000D01*
X106566488Y-102496073D01*
X106417188Y-102466376D01*
X106253216Y-102398456D01*
X106105646Y-102299853D01*
X105980147Y-102174354D01*
X105881544Y-102026784D01*
X105813624Y-101862812D01*
X105779000Y-101688741D01*
X105779000Y-101511259D01*
X105813624Y-101337188D01*
X105881544Y-101173216D01*
X105980147Y-101025646D01*
X106105646Y-100900147D01*
X106253216Y-100801544D01*
X106417188Y-100733624D01*
X106566488Y-100703927D01*
X106591258Y-100699000D01*
X106768742Y-100699000D01*
X106793512Y-100703927D01*
G37*
G36*
X111873512Y-100703927D02*
G01*
X112022812Y-100733624D01*
X112186784Y-100801544D01*
X112334354Y-100900147D01*
X112459853Y-101025646D01*
X112558456Y-101173216D01*
X112626376Y-101337188D01*
X112661000Y-101511259D01*
X112661000Y-101688741D01*
X112626376Y-101862812D01*
X112558456Y-102026784D01*
X112459853Y-102174354D01*
X112334354Y-102299853D01*
X112186784Y-102398456D01*
X112022812Y-102466376D01*
X111873512Y-102496073D01*
X111848742Y-102501000D01*
X111671258Y-102501000D01*
X111646488Y-102496073D01*
X111497188Y-102466376D01*
X111333216Y-102398456D01*
X111185646Y-102299853D01*
X111060147Y-102174354D01*
X110961544Y-102026784D01*
X110893624Y-101862812D01*
X110859000Y-101688741D01*
X110859000Y-101511259D01*
X110893624Y-101337188D01*
X110961544Y-101173216D01*
X111060147Y-101025646D01*
X111185646Y-100900147D01*
X111333216Y-100801544D01*
X111497188Y-100733624D01*
X111646488Y-100703927D01*
X111671258Y-100699000D01*
X111848742Y-100699000D01*
X111873512Y-100703927D01*
G37*
M02*
