G04 #@! TF.GenerationSoftware,KiCad,Pcbnew,(5.1.5)-2*
G04 #@! TF.CreationDate,2019-12-06T12:22:02+01:00*
G04 #@! TF.ProjectId,A2BFeatherWing,41324246-6561-4746-9865-7257696e672e,rev?*
G04 #@! TF.SameCoordinates,Original*
G04 #@! TF.FileFunction,Copper,L2,Bot*
G04 #@! TF.FilePolarity,Positive*
%FSLAX46Y46*%
G04 Gerber Fmt 4.6, Leading zero omitted, Abs format (unit mm)*
G04 Created by KiCad (PCBNEW (5.1.5)-2) date 2019-12-06 12:22:02*
%MOMM*%
%LPD*%
G04 APERTURE LIST*
%ADD10C,0.100000*%
%ADD11R,1.000000X1.500000*%
%ADD12R,1.500000X1.000000*%
%ADD13O,1.700000X1.700000*%
%ADD14C,3.810000*%
%ADD15C,0.600000*%
%ADD16C,0.800000*%
%ADD17C,0.200000*%
%ADD18C,0.300000*%
%ADD19C,0.254000*%
G04 APERTURE END LIST*
D10*
G36*
X85250000Y-117250000D02*
G01*
X85250000Y-116750000D01*
X84650000Y-116750000D01*
X84650000Y-117250000D01*
X85250000Y-117250000D01*
G37*
G36*
X81875000Y-115425000D02*
G01*
X81875000Y-115925000D01*
X82475000Y-115925000D01*
X82475000Y-115425000D01*
X81875000Y-115425000D01*
G37*
G36*
X98760000Y-105414000D02*
G01*
X98760000Y-105914000D01*
X99360000Y-105914000D01*
X99360000Y-105414000D01*
X98760000Y-105414000D01*
G37*
G36*
X93680000Y-105450000D02*
G01*
X93680000Y-105950000D01*
X94280000Y-105950000D01*
X94280000Y-105450000D01*
X93680000Y-105450000D01*
G37*
G36*
X96200000Y-105414000D02*
G01*
X96200000Y-105914000D01*
X96800000Y-105914000D01*
X96800000Y-105414000D01*
X96200000Y-105414000D01*
G37*
G36*
X105800000Y-119000000D02*
G01*
X106300000Y-119000000D01*
X106300000Y-118400000D01*
X105800000Y-118400000D01*
X105800000Y-119000000D01*
G37*
D11*
X93975000Y-115850000D03*
X92675000Y-115850000D03*
X91375000Y-115850000D03*
D12*
X84950000Y-116350000D03*
X84950000Y-115050000D03*
X84950000Y-117650000D03*
X82175000Y-116325000D03*
X82175000Y-117625000D03*
X82175000Y-115025000D03*
X99060000Y-106314000D03*
X99060000Y-105014000D03*
X93980000Y-106350000D03*
X93980000Y-105050000D03*
X96500000Y-106314000D03*
X96500000Y-105014000D03*
D11*
X106700000Y-118700000D03*
X108000000Y-118700000D03*
X105400000Y-118700000D03*
D13*
X83820000Y-101600000D03*
X86360000Y-101600000D03*
X88900000Y-101600000D03*
X91440000Y-101600000D03*
X93980000Y-101600000D03*
X96520000Y-101600000D03*
X99060000Y-101600000D03*
X101600000Y-101600000D03*
X104140000Y-101600000D03*
X106680000Y-101600000D03*
X109220000Y-101600000D03*
X111760000Y-101600000D03*
X111760000Y-121920000D03*
X109220000Y-121920000D03*
X106680000Y-121920000D03*
X104140000Y-121920000D03*
X101600000Y-121920000D03*
X99060000Y-121920000D03*
X96520000Y-121920000D03*
X93980000Y-121920000D03*
X91440000Y-121920000D03*
X88900000Y-121920000D03*
X86360000Y-121920000D03*
X83820000Y-121920000D03*
X81280000Y-121920000D03*
X78740000Y-121920000D03*
X76200000Y-121920000D03*
X73660000Y-121920000D03*
D14*
X69850000Y-120650000D03*
X69850000Y-102870000D03*
D15*
X87600000Y-113110000D03*
X90337077Y-108404408D03*
X92050000Y-103859990D03*
X103250000Y-104450000D03*
X104775000Y-110150000D03*
X93410000Y-118910000D03*
X100107111Y-118479990D03*
X84324479Y-119876437D03*
X89275000Y-112775000D03*
X89300000Y-110625000D03*
X71125000Y-112000000D03*
X71125000Y-114125000D03*
X80200000Y-110675000D03*
X108675000Y-104575000D03*
X111650000Y-106550000D03*
X115175000Y-109225000D03*
X115125000Y-114300000D03*
X111100000Y-119050000D03*
X70225000Y-116500000D03*
X74525000Y-119600000D03*
X79975000Y-116900000D03*
X81950000Y-119300000D03*
X79800000Y-114650000D03*
X97450000Y-117625000D03*
X96550000Y-109880000D03*
X96640000Y-113620000D03*
X78580000Y-104920000D03*
X85080000Y-102540000D03*
X73090000Y-116330000D03*
X75030000Y-116740000D03*
X91920000Y-114370000D03*
X100340000Y-121040000D03*
X95220000Y-120970000D03*
X85141649Y-108179807D03*
X90903634Y-108969237D03*
X100830000Y-113820000D03*
X105420000Y-121030000D03*
X98980000Y-111490000D03*
X107610000Y-117060000D03*
X102925000Y-118200000D03*
X104950000Y-113525000D03*
X76325000Y-118925000D03*
X78674989Y-116902127D03*
X84950000Y-115050000D03*
X91477202Y-111642821D03*
X88108897Y-107299646D03*
X90813531Y-107761749D03*
X80890000Y-113170000D03*
X101761918Y-111149980D03*
X101550000Y-105100010D03*
X101625000Y-118450000D03*
X101744671Y-112400010D03*
X83825000Y-104725000D03*
D16*
X69875000Y-113100000D03*
D15*
X85100000Y-119680000D03*
X88859389Y-107650207D03*
X85907870Y-119646228D03*
X89459209Y-108179579D03*
X108000000Y-118700000D03*
X87559272Y-117570728D03*
X80725000Y-115275000D03*
X85300000Y-116325000D03*
X84099989Y-112190000D03*
X90020000Y-103500002D03*
X81730000Y-111540000D03*
X88975000Y-103214470D03*
X89009406Y-115202050D03*
X87780043Y-115984248D03*
X90260000Y-115260000D03*
X91920000Y-117840000D03*
X84400000Y-113120000D03*
X102390000Y-104500000D03*
X90940000Y-104040000D03*
D17*
X90337077Y-108404408D02*
X90158803Y-108226134D01*
X90158803Y-106175451D02*
X92050000Y-104284254D01*
X92050000Y-104284254D02*
X92050000Y-103859990D01*
X90158803Y-108226134D02*
X90158803Y-106175451D01*
X103250000Y-104450000D02*
X103250000Y-108625000D01*
X103250000Y-108625000D02*
X104775000Y-110150000D01*
X100107111Y-112832889D02*
X100107111Y-118055726D01*
X104775000Y-110150000D02*
X103150000Y-111775000D01*
X100107111Y-118055726D02*
X100107111Y-118479990D01*
X103150000Y-111775000D02*
X101165000Y-111775000D01*
X101165000Y-111775000D02*
X100107111Y-112832889D01*
X84728043Y-120280001D02*
X84624478Y-120176436D01*
X84624478Y-120176436D02*
X84324479Y-119876437D01*
X92039999Y-120280001D02*
X84728043Y-120280001D01*
X93410000Y-118910000D02*
X92039999Y-120280001D01*
D18*
X81925000Y-115025000D02*
X81100000Y-114200000D01*
X82175000Y-115025000D02*
X81925000Y-115025000D01*
X80250000Y-114200000D02*
X79800000Y-114650000D01*
X81100000Y-114200000D02*
X80250000Y-114200000D01*
D17*
X98980000Y-111914264D02*
X98950000Y-111944264D01*
X98980000Y-111490000D02*
X98980000Y-111914264D01*
X98950000Y-111944264D02*
X98950000Y-118850000D01*
X98950000Y-118850000D02*
X99180000Y-119080000D01*
X99180000Y-119080000D02*
X103040000Y-119080000D01*
X103040000Y-119080000D02*
X105060000Y-117060000D01*
X105060000Y-117060000D02*
X107610000Y-117060000D01*
X102925000Y-118200000D02*
X104950000Y-116175000D01*
X104950000Y-116175000D02*
X104950000Y-113525000D01*
X78347873Y-116902127D02*
X78674989Y-116902127D01*
X76325000Y-118925000D02*
X78347873Y-116902127D01*
D18*
X83600000Y-117250000D02*
X83225000Y-117625000D01*
X83225000Y-117625000D02*
X82175000Y-117625000D01*
X83600000Y-115350000D02*
X83600000Y-117250000D01*
X84950000Y-115050000D02*
X83900000Y-115050000D01*
X83900000Y-115050000D02*
X83600000Y-115350000D01*
X86049989Y-112106421D02*
X87849977Y-110306434D01*
X87849977Y-107982830D02*
X88108897Y-107723910D01*
X91777201Y-108725419D02*
X91113530Y-108061748D01*
X84950000Y-115050000D02*
X86000000Y-115050000D01*
X91477202Y-111642821D02*
X91777201Y-111342822D01*
X91777201Y-111342822D02*
X91777201Y-108725419D01*
X87849977Y-110306434D02*
X87849977Y-107982830D01*
X86049989Y-115000011D02*
X86049989Y-112106421D01*
X88108897Y-107723910D02*
X88108897Y-107299646D01*
X86000000Y-115050000D02*
X86049989Y-115000011D01*
X91113530Y-108061748D02*
X90813531Y-107761749D01*
X80890000Y-113170000D02*
X79460000Y-113170000D01*
X79460000Y-113170000D02*
X78860000Y-113770000D01*
X81125000Y-117625000D02*
X82175000Y-117625000D01*
X79324999Y-117212001D02*
X79737998Y-117625000D01*
X79324999Y-116484999D02*
X79324999Y-117212001D01*
X78860000Y-116020000D02*
X79324999Y-116484999D01*
X78860000Y-113770000D02*
X78860000Y-116020000D01*
X79737998Y-117625000D02*
X81125000Y-117625000D01*
D17*
X101761918Y-105311928D02*
X101550000Y-105100010D01*
X101761918Y-111149980D02*
X101761918Y-105311928D01*
X101625000Y-118450000D02*
X101625000Y-112519681D01*
X101625000Y-112519681D02*
X101744671Y-112400010D01*
D18*
X83425001Y-105124999D02*
X81975001Y-105124999D01*
X83825000Y-104725000D02*
X83425001Y-105124999D01*
X81975001Y-105124999D02*
X74000000Y-113100000D01*
X74000000Y-113100000D02*
X69875000Y-113100000D01*
D17*
X88559390Y-107950206D02*
X88859389Y-107650207D01*
X88299988Y-108209608D02*
X88559390Y-107950206D01*
X86500000Y-117855736D02*
X86500000Y-112292820D01*
X86500000Y-112292820D02*
X88299988Y-110492834D01*
X85100000Y-119680000D02*
X85100000Y-119255736D01*
X85100000Y-119255736D02*
X86500000Y-117855736D01*
X88299988Y-110492834D02*
X88299988Y-108209608D01*
X88699999Y-108938789D02*
X89159210Y-108479578D01*
X85907870Y-119646228D02*
X86919999Y-118634099D01*
X89159210Y-108479578D02*
X89459209Y-108179579D01*
X86919999Y-112438521D02*
X88699999Y-110658523D01*
X88699999Y-110658523D02*
X88699999Y-108938789D01*
X86919999Y-118634099D02*
X86919999Y-112438521D01*
X106700000Y-121900000D02*
X106680000Y-121920000D01*
X106700000Y-118700000D02*
X106700000Y-121900000D01*
X89659999Y-115470001D02*
X87859271Y-117270729D01*
X99060000Y-106314000D02*
X98810000Y-106314000D01*
X89659999Y-114971999D02*
X89659999Y-115470001D01*
X89971999Y-114659999D02*
X89659999Y-114971999D01*
X90464001Y-114659999D02*
X89971999Y-114659999D01*
X98810000Y-106314000D02*
X90464001Y-114659999D01*
X87859271Y-117270729D02*
X87559272Y-117570728D01*
X96500000Y-101620000D02*
X96520000Y-101600000D01*
X96500000Y-105014000D02*
X96500000Y-101620000D01*
X93980000Y-104300000D02*
X93980000Y-101600000D01*
X93980000Y-105050000D02*
X93980000Y-104300000D01*
X99060000Y-105014000D02*
X99060000Y-101600000D01*
X81175000Y-116325000D02*
X82175000Y-116325000D01*
X80725000Y-115875000D02*
X81175000Y-116325000D01*
X80725000Y-115275000D02*
X80725000Y-115875000D01*
X84975000Y-116325000D02*
X85300000Y-116325000D01*
X84950000Y-116350000D02*
X84975000Y-116325000D01*
X84099989Y-112190000D02*
X84099989Y-108333465D01*
X89690003Y-103829999D02*
X89720001Y-103800001D01*
X89720001Y-103800001D02*
X90020000Y-103500002D01*
X88603455Y-103829999D02*
X89690003Y-103829999D01*
X84099989Y-108333465D02*
X88603455Y-103829999D01*
X88550736Y-103214470D02*
X88975000Y-103214470D01*
X81730000Y-111540000D02*
X81730000Y-110035206D01*
X81730000Y-110035206D02*
X88550736Y-103214470D01*
X96500000Y-106314000D02*
X96500000Y-108049406D01*
X89009406Y-114928952D02*
X89009406Y-115202050D01*
X89938381Y-113999977D02*
X89009406Y-114928952D01*
X90549429Y-113999977D02*
X89938381Y-113999977D01*
X96500000Y-108049406D02*
X90549429Y-113999977D01*
X87780043Y-115559984D02*
X87780043Y-115984248D01*
X93980000Y-110003706D02*
X91708715Y-112274991D01*
X91065036Y-112274991D02*
X87780043Y-115559984D01*
X93980000Y-106350000D02*
X93980000Y-110003706D01*
X91708715Y-112274991D02*
X91065036Y-112274991D01*
X90240000Y-117048004D02*
X91631998Y-118440002D01*
X90260000Y-115260000D02*
X90260000Y-115684264D01*
X93975000Y-116800000D02*
X93975000Y-115850000D01*
X90260000Y-115684264D02*
X90240000Y-115704264D01*
X91631998Y-118440002D02*
X92334998Y-118440002D01*
X92334998Y-118440002D02*
X93975000Y-116800000D01*
X90240000Y-115704264D02*
X90240000Y-117048004D01*
X100750001Y-102449999D02*
X101600000Y-101600000D01*
X100315689Y-110500011D02*
X100975021Y-109840679D01*
X92675000Y-115850000D02*
X92675000Y-113300000D01*
X95474989Y-110500011D02*
X100315689Y-110500011D01*
X100750001Y-106460021D02*
X100750001Y-102449999D01*
X100975021Y-106685041D02*
X100750001Y-106460021D01*
X92675000Y-113300000D02*
X95474989Y-110500011D01*
X100975021Y-109840679D02*
X100975021Y-106685041D01*
X91375000Y-115850000D02*
X91375000Y-117295000D01*
X91375000Y-117295000D02*
X91920000Y-117840000D01*
X102689999Y-103050001D02*
X103290001Y-102449999D01*
X102689999Y-104200001D02*
X102689999Y-103050001D01*
X103290001Y-102449999D02*
X104140000Y-101600000D01*
X102390000Y-104500000D02*
X102689999Y-104200001D01*
X87399966Y-107155770D02*
X90515736Y-104040000D01*
X87399966Y-110120034D02*
X87399966Y-107155770D01*
X90515736Y-104040000D02*
X90940000Y-104040000D01*
X84400000Y-113120000D02*
X87399966Y-110120034D01*
D19*
G36*
X83069706Y-100685764D02*
G01*
X82905764Y-100849706D01*
X82776956Y-101042481D01*
X82688231Y-101256682D01*
X82643000Y-101484076D01*
X82643000Y-101715924D01*
X82688231Y-101943318D01*
X82776956Y-102157519D01*
X82905764Y-102350294D01*
X83069706Y-102514236D01*
X83262481Y-102643044D01*
X83476682Y-102731769D01*
X83704076Y-102777000D01*
X83935924Y-102777000D01*
X84163318Y-102731769D01*
X84377519Y-102643044D01*
X84570294Y-102514236D01*
X84734236Y-102350294D01*
X84863044Y-102157519D01*
X84951769Y-101943318D01*
X84997000Y-101715924D01*
X84997000Y-101484076D01*
X84951769Y-101256682D01*
X84863044Y-101042481D01*
X84734236Y-100849706D01*
X84570294Y-100685764D01*
X84564661Y-100682000D01*
X85615339Y-100682000D01*
X85609706Y-100685764D01*
X85445764Y-100849706D01*
X85316956Y-101042481D01*
X85228231Y-101256682D01*
X85183000Y-101484076D01*
X85183000Y-101715924D01*
X85228231Y-101943318D01*
X85316956Y-102157519D01*
X85445764Y-102350294D01*
X85609706Y-102514236D01*
X85802481Y-102643044D01*
X86016682Y-102731769D01*
X86244076Y-102777000D01*
X86475924Y-102777000D01*
X86703318Y-102731769D01*
X86917519Y-102643044D01*
X87110294Y-102514236D01*
X87274236Y-102350294D01*
X87403044Y-102157519D01*
X87491769Y-101943318D01*
X87537000Y-101715924D01*
X87537000Y-101484076D01*
X87491769Y-101256682D01*
X87403044Y-101042481D01*
X87274236Y-100849706D01*
X87110294Y-100685764D01*
X87104661Y-100682000D01*
X88155339Y-100682000D01*
X88149706Y-100685764D01*
X87985764Y-100849706D01*
X87856956Y-101042481D01*
X87768231Y-101256682D01*
X87723000Y-101484076D01*
X87723000Y-101715924D01*
X87768231Y-101943318D01*
X87856956Y-102157519D01*
X87985764Y-102350294D01*
X88149706Y-102514236D01*
X88342481Y-102643044D01*
X88556682Y-102731769D01*
X88568615Y-102734143D01*
X88513707Y-102789051D01*
X88467029Y-102793648D01*
X88386540Y-102818065D01*
X88353639Y-102835651D01*
X88312359Y-102857715D01*
X88263634Y-102897702D01*
X88263625Y-102897711D01*
X88247341Y-102911075D01*
X88233977Y-102927359D01*
X81442896Y-109718442D01*
X81426606Y-109731811D01*
X81413237Y-109748101D01*
X81413232Y-109748106D01*
X81373245Y-109796830D01*
X81343220Y-109853004D01*
X81333596Y-109871010D01*
X81309179Y-109951499D01*
X81305800Y-109985804D01*
X81300935Y-110035206D01*
X81303001Y-110056183D01*
X81303000Y-111080288D01*
X81242977Y-111140311D01*
X81174360Y-111243004D01*
X81127095Y-111357111D01*
X81103000Y-111478246D01*
X81103000Y-111601754D01*
X81127095Y-111722889D01*
X81174360Y-111836996D01*
X81242977Y-111939689D01*
X81330311Y-112027023D01*
X81433004Y-112095640D01*
X81547111Y-112142905D01*
X81668246Y-112167000D01*
X81791754Y-112167000D01*
X81912889Y-112142905D01*
X82026996Y-112095640D01*
X82129689Y-112027023D01*
X82217023Y-111939689D01*
X82285640Y-111836996D01*
X82332905Y-111722889D01*
X82357000Y-111601754D01*
X82357000Y-111478246D01*
X82332905Y-111357111D01*
X82285640Y-111243004D01*
X82217023Y-111140311D01*
X82157000Y-111080288D01*
X82157000Y-110212074D01*
X83672990Y-108696085D01*
X83672989Y-111730288D01*
X83612966Y-111790311D01*
X83544349Y-111893004D01*
X83497084Y-112007111D01*
X83472989Y-112128246D01*
X83472989Y-112251754D01*
X83497084Y-112372889D01*
X83544349Y-112486996D01*
X83612966Y-112589689D01*
X83700300Y-112677023D01*
X83802993Y-112745640D01*
X83875880Y-112775831D01*
X83844360Y-112823004D01*
X83797095Y-112937111D01*
X83773000Y-113058246D01*
X83773000Y-113181754D01*
X83797095Y-113302889D01*
X83844360Y-113416996D01*
X83912977Y-113519689D01*
X84000311Y-113607023D01*
X84103004Y-113675640D01*
X84217111Y-113722905D01*
X84338246Y-113747000D01*
X84461754Y-113747000D01*
X84582889Y-113722905D01*
X84696996Y-113675640D01*
X84799689Y-113607023D01*
X84887023Y-113519689D01*
X84955640Y-113416996D01*
X85002905Y-113302889D01*
X85027000Y-113181754D01*
X85027000Y-113096868D01*
X85572990Y-112550878D01*
X85572989Y-114221418D01*
X84200000Y-114221418D01*
X84135897Y-114227732D01*
X84074257Y-114246430D01*
X84017450Y-114276794D01*
X83967657Y-114317657D01*
X83926794Y-114367450D01*
X83896430Y-114424257D01*
X83877732Y-114485897D01*
X83871418Y-114550000D01*
X83871418Y-114573508D01*
X83806492Y-114579903D01*
X83716577Y-114607178D01*
X83633711Y-114651471D01*
X83561079Y-114711079D01*
X83560392Y-114711916D01*
X83563072Y-114525000D01*
X83550812Y-114400518D01*
X83514502Y-114280820D01*
X83455537Y-114170506D01*
X83376185Y-114073815D01*
X83279494Y-113994463D01*
X83169180Y-113935498D01*
X83049482Y-113899188D01*
X82925000Y-113886928D01*
X82460750Y-113890000D01*
X82302000Y-114048750D01*
X82302000Y-114898000D01*
X82322000Y-114898000D01*
X82322000Y-115098000D01*
X82028000Y-115098000D01*
X82028000Y-114898000D01*
X82048000Y-114898000D01*
X82048000Y-114048750D01*
X81889250Y-113890000D01*
X81425000Y-113886928D01*
X81300518Y-113899188D01*
X81180820Y-113935498D01*
X81070506Y-113994463D01*
X80973815Y-114073815D01*
X80894463Y-114170506D01*
X80835498Y-114280820D01*
X80799188Y-114400518D01*
X80786928Y-114525000D01*
X80788697Y-114648387D01*
X80786754Y-114648000D01*
X80663246Y-114648000D01*
X80542111Y-114672095D01*
X80428004Y-114719360D01*
X80325311Y-114787977D01*
X80237977Y-114875311D01*
X80169360Y-114978004D01*
X80122095Y-115092111D01*
X80098000Y-115213246D01*
X80098000Y-115336754D01*
X80122095Y-115457889D01*
X80169360Y-115571996D01*
X80237977Y-115674689D01*
X80298001Y-115734713D01*
X80298001Y-115854023D01*
X80295935Y-115875000D01*
X80298001Y-115895977D01*
X80298001Y-115895978D01*
X80304179Y-115958707D01*
X80313900Y-115990752D01*
X80328596Y-116039196D01*
X80368245Y-116113376D01*
X80408232Y-116162100D01*
X80408237Y-116162105D01*
X80421606Y-116178395D01*
X80437895Y-116191763D01*
X80858236Y-116612105D01*
X80871605Y-116628395D01*
X80887895Y-116641764D01*
X80887899Y-116641768D01*
X80936623Y-116681755D01*
X80968541Y-116698815D01*
X81010804Y-116721405D01*
X81091293Y-116745822D01*
X81096418Y-116746327D01*
X81096418Y-116825000D01*
X81102732Y-116889103D01*
X81121430Y-116950743D01*
X81134396Y-116975000D01*
X81121430Y-116999257D01*
X81102732Y-117060897D01*
X81096418Y-117125000D01*
X81096418Y-117148000D01*
X79935578Y-117148000D01*
X79801999Y-117014422D01*
X79801999Y-116508414D01*
X79804305Y-116484999D01*
X79801999Y-116461584D01*
X79801999Y-116461576D01*
X79795096Y-116391491D01*
X79767821Y-116301576D01*
X79723528Y-116218710D01*
X79663920Y-116146078D01*
X79645728Y-116131148D01*
X79337000Y-115822421D01*
X79337000Y-113967579D01*
X79657580Y-113647000D01*
X80480288Y-113647000D01*
X80490311Y-113657023D01*
X80593004Y-113725640D01*
X80707111Y-113772905D01*
X80828246Y-113797000D01*
X80951754Y-113797000D01*
X81072889Y-113772905D01*
X81186996Y-113725640D01*
X81289689Y-113657023D01*
X81377023Y-113569689D01*
X81445640Y-113466996D01*
X81492905Y-113352889D01*
X81517000Y-113231754D01*
X81517000Y-113108246D01*
X81492905Y-112987111D01*
X81445640Y-112873004D01*
X81377023Y-112770311D01*
X81289689Y-112682977D01*
X81186996Y-112614360D01*
X81072889Y-112567095D01*
X80951754Y-112543000D01*
X80828246Y-112543000D01*
X80707111Y-112567095D01*
X80593004Y-112614360D01*
X80490311Y-112682977D01*
X80480288Y-112693000D01*
X79483414Y-112693000D01*
X79459999Y-112690694D01*
X79436584Y-112693000D01*
X79436577Y-112693000D01*
X79366492Y-112699903D01*
X79276577Y-112727178D01*
X79193711Y-112771471D01*
X79121079Y-112831079D01*
X79106149Y-112849271D01*
X78539276Y-113416145D01*
X78521079Y-113431079D01*
X78461471Y-113503711D01*
X78417178Y-113586578D01*
X78389903Y-113676493D01*
X78383000Y-113746578D01*
X78383000Y-113746585D01*
X78380694Y-113770000D01*
X78383000Y-113793415D01*
X78383001Y-115996575D01*
X78380694Y-116020000D01*
X78389903Y-116113507D01*
X78417178Y-116203422D01*
X78417179Y-116203423D01*
X78461472Y-116286289D01*
X78477163Y-116305409D01*
X78377993Y-116346487D01*
X78275300Y-116415104D01*
X78187966Y-116502438D01*
X78186304Y-116504925D01*
X78183677Y-116505722D01*
X78163762Y-116516367D01*
X78109496Y-116545372D01*
X78060771Y-116585360D01*
X78060768Y-116585363D01*
X78044478Y-116598732D01*
X78031109Y-116615022D01*
X76348132Y-118298000D01*
X76263246Y-118298000D01*
X76142111Y-118322095D01*
X76028004Y-118369360D01*
X75925311Y-118437977D01*
X75837977Y-118525311D01*
X75769360Y-118628004D01*
X75722095Y-118742111D01*
X75698000Y-118863246D01*
X75698000Y-118986754D01*
X75722095Y-119107889D01*
X75769360Y-119221996D01*
X75837977Y-119324689D01*
X75925311Y-119412023D01*
X76028004Y-119480640D01*
X76142111Y-119527905D01*
X76263246Y-119552000D01*
X76386754Y-119552000D01*
X76507889Y-119527905D01*
X76621996Y-119480640D01*
X76724689Y-119412023D01*
X76812023Y-119324689D01*
X76880640Y-119221996D01*
X76927905Y-119107889D01*
X76952000Y-118986754D01*
X76952000Y-118901868D01*
X78390798Y-117463071D01*
X78492100Y-117505032D01*
X78613235Y-117529127D01*
X78736743Y-117529127D01*
X78857878Y-117505032D01*
X78925740Y-117476922D01*
X78926471Y-117478290D01*
X78951761Y-117509106D01*
X78970134Y-117531493D01*
X78986079Y-117550922D01*
X79004270Y-117565851D01*
X79384147Y-117945729D01*
X79399077Y-117963921D01*
X79417268Y-117978850D01*
X79417270Y-117978852D01*
X79434469Y-117992967D01*
X79471709Y-118023529D01*
X79554575Y-118067822D01*
X79644490Y-118095097D01*
X79714575Y-118102000D01*
X79714583Y-118102000D01*
X79737998Y-118104306D01*
X79761413Y-118102000D01*
X81096418Y-118102000D01*
X81096418Y-118125000D01*
X81102732Y-118189103D01*
X81121430Y-118250743D01*
X81151794Y-118307550D01*
X81192657Y-118357343D01*
X81242450Y-118398206D01*
X81299257Y-118428570D01*
X81360897Y-118447268D01*
X81425000Y-118453582D01*
X82925000Y-118453582D01*
X82989103Y-118447268D01*
X83050743Y-118428570D01*
X83107550Y-118398206D01*
X83157343Y-118357343D01*
X83198206Y-118307550D01*
X83228570Y-118250743D01*
X83247268Y-118189103D01*
X83253582Y-118125000D01*
X83253582Y-118101492D01*
X83318508Y-118095097D01*
X83408423Y-118067822D01*
X83491289Y-118023529D01*
X83563921Y-117963921D01*
X83564608Y-117963084D01*
X83561928Y-118150000D01*
X83574188Y-118274482D01*
X83610498Y-118394180D01*
X83669463Y-118504494D01*
X83748815Y-118601185D01*
X83845506Y-118680537D01*
X83955820Y-118739502D01*
X84075518Y-118775812D01*
X84200000Y-118788072D01*
X84664250Y-118785000D01*
X84823000Y-118626250D01*
X84823000Y-117777000D01*
X84803000Y-117777000D01*
X84803000Y-117577000D01*
X85097000Y-117577000D01*
X85097000Y-117777000D01*
X85077000Y-117777000D01*
X85077000Y-118626250D01*
X85101309Y-118650559D01*
X84812895Y-118938972D01*
X84796606Y-118952341D01*
X84783237Y-118968631D01*
X84783232Y-118968636D01*
X84743245Y-119017360D01*
X84717380Y-119065752D01*
X84703596Y-119091540D01*
X84679179Y-119172029D01*
X84674581Y-119218707D01*
X84612977Y-119280311D01*
X84593631Y-119309264D01*
X84507368Y-119273532D01*
X84386233Y-119249437D01*
X84262725Y-119249437D01*
X84141590Y-119273532D01*
X84027483Y-119320797D01*
X83924790Y-119389414D01*
X83837456Y-119476748D01*
X83768839Y-119579441D01*
X83721574Y-119693548D01*
X83697479Y-119814683D01*
X83697479Y-119938191D01*
X83721574Y-120059326D01*
X83768839Y-120173433D01*
X83837456Y-120276126D01*
X83924790Y-120363460D01*
X84027483Y-120432077D01*
X84141590Y-120479342D01*
X84262725Y-120503437D01*
X84347611Y-120503437D01*
X84411275Y-120567101D01*
X84424648Y-120583396D01*
X84489667Y-120636756D01*
X84563847Y-120676406D01*
X84644336Y-120700823D01*
X84707065Y-120707001D01*
X84707075Y-120707001D01*
X84728042Y-120709066D01*
X84749009Y-120707001D01*
X92019032Y-120707001D01*
X92039999Y-120709066D01*
X92060966Y-120707001D01*
X92060977Y-120707001D01*
X92123706Y-120700823D01*
X92204195Y-120676406D01*
X92278375Y-120636756D01*
X92343394Y-120583396D01*
X92356767Y-120567101D01*
X93386869Y-119537000D01*
X93471754Y-119537000D01*
X93592889Y-119512905D01*
X93706996Y-119465640D01*
X93809689Y-119397023D01*
X93897023Y-119309689D01*
X93965640Y-119206996D01*
X94012905Y-119092889D01*
X94037000Y-118971754D01*
X94037000Y-118848246D01*
X94012905Y-118727111D01*
X93965640Y-118613004D01*
X93897023Y-118510311D01*
X93809689Y-118422977D01*
X93706996Y-118354360D01*
X93592889Y-118307095D01*
X93471754Y-118283000D01*
X93348246Y-118283000D01*
X93227111Y-118307095D01*
X93113004Y-118354360D01*
X93010311Y-118422977D01*
X92922977Y-118510311D01*
X92854360Y-118613004D01*
X92807095Y-118727111D01*
X92783000Y-118848246D01*
X92783000Y-118933131D01*
X91863131Y-119853001D01*
X86500882Y-119853001D01*
X86510775Y-119829117D01*
X86534870Y-119707982D01*
X86534870Y-119623096D01*
X87207105Y-118950862D01*
X87223394Y-118937494D01*
X87236763Y-118921204D01*
X87236767Y-118921200D01*
X87276755Y-118872475D01*
X87316404Y-118798296D01*
X87329001Y-118756769D01*
X87340821Y-118717806D01*
X87346999Y-118655077D01*
X87346999Y-118655066D01*
X87349064Y-118634099D01*
X87346999Y-118613132D01*
X87346999Y-118161462D01*
X87376383Y-118173633D01*
X87497518Y-118197728D01*
X87621026Y-118197728D01*
X87742161Y-118173633D01*
X87856268Y-118126368D01*
X87958961Y-118057751D01*
X88046295Y-117970417D01*
X88114912Y-117867724D01*
X88162177Y-117753617D01*
X88186272Y-117632482D01*
X88186272Y-117547596D01*
X89813000Y-115920869D01*
X89813001Y-117027027D01*
X89810935Y-117048004D01*
X89813001Y-117068981D01*
X89813001Y-117068982D01*
X89819179Y-117131711D01*
X89839629Y-117199123D01*
X89843596Y-117212200D01*
X89883245Y-117286380D01*
X89923232Y-117335104D01*
X89923237Y-117335109D01*
X89936606Y-117351399D01*
X89952895Y-117364768D01*
X91315234Y-118727107D01*
X91328603Y-118743397D01*
X91344893Y-118756766D01*
X91344896Y-118756769D01*
X91393621Y-118796757D01*
X91431763Y-118817144D01*
X91467802Y-118836407D01*
X91548291Y-118860824D01*
X91611020Y-118867002D01*
X91611032Y-118867002D01*
X91631997Y-118869067D01*
X91652962Y-118867002D01*
X92314031Y-118867002D01*
X92334998Y-118869067D01*
X92355965Y-118867002D01*
X92355976Y-118867002D01*
X92418705Y-118860824D01*
X92499194Y-118836407D01*
X92573374Y-118796757D01*
X92638393Y-118743397D01*
X92651766Y-118727102D01*
X94262106Y-117116763D01*
X94278395Y-117103395D01*
X94291764Y-117087105D01*
X94291768Y-117087101D01*
X94331755Y-117038377D01*
X94361018Y-116983629D01*
X94371405Y-116964196D01*
X94382209Y-116928582D01*
X94475000Y-116928582D01*
X94539103Y-116922268D01*
X94600743Y-116903570D01*
X94657550Y-116873206D01*
X94707343Y-116832343D01*
X94748206Y-116782550D01*
X94778570Y-116725743D01*
X94797268Y-116664103D01*
X94803582Y-116600000D01*
X94803582Y-115100000D01*
X94797268Y-115035897D01*
X94778570Y-114974257D01*
X94748206Y-114917450D01*
X94707343Y-114867657D01*
X94657550Y-114826794D01*
X94600743Y-114796430D01*
X94539103Y-114777732D01*
X94475000Y-114771418D01*
X93475000Y-114771418D01*
X93410897Y-114777732D01*
X93349257Y-114796430D01*
X93325000Y-114809396D01*
X93300743Y-114796430D01*
X93239103Y-114777732D01*
X93175000Y-114771418D01*
X93102000Y-114771418D01*
X93102000Y-113476868D01*
X95651858Y-110927011D01*
X98700746Y-110927011D01*
X98683004Y-110934360D01*
X98580311Y-111002977D01*
X98492977Y-111090311D01*
X98424360Y-111193004D01*
X98377095Y-111307111D01*
X98353000Y-111428246D01*
X98353000Y-111551754D01*
X98377095Y-111672889D01*
X98424360Y-111786996D01*
X98492977Y-111889689D01*
X98523321Y-111920033D01*
X98523000Y-111923287D01*
X98523000Y-111923297D01*
X98520935Y-111944264D01*
X98523000Y-111965231D01*
X98523000Y-113948000D01*
X96300000Y-113948000D01*
X96275224Y-113950440D01*
X96251399Y-113957667D01*
X96229443Y-113969403D01*
X96210197Y-113985197D01*
X96194403Y-114004443D01*
X96182667Y-114026399D01*
X96175440Y-114050224D01*
X96173000Y-114075000D01*
X96173000Y-116600000D01*
X96175440Y-116624776D01*
X96182667Y-116648601D01*
X96194403Y-116670557D01*
X96210197Y-116689803D01*
X96229443Y-116705597D01*
X96251399Y-116717333D01*
X96275224Y-116724560D01*
X96300000Y-116727000D01*
X98523001Y-116727000D01*
X98523001Y-118829023D01*
X98520935Y-118850000D01*
X98523001Y-118870977D01*
X98523001Y-118870978D01*
X98529179Y-118933707D01*
X98548165Y-118996293D01*
X98553596Y-119014196D01*
X98593245Y-119088376D01*
X98633232Y-119137100D01*
X98633237Y-119137105D01*
X98646606Y-119153395D01*
X98662896Y-119166764D01*
X98863232Y-119367100D01*
X98876605Y-119383395D01*
X98941624Y-119436755D01*
X99015804Y-119476405D01*
X99096293Y-119500822D01*
X99159022Y-119507000D01*
X99159032Y-119507000D01*
X99179999Y-119509065D01*
X99200966Y-119507000D01*
X103019033Y-119507000D01*
X103040000Y-119509065D01*
X103060967Y-119507000D01*
X103060978Y-119507000D01*
X103123707Y-119500822D01*
X103204196Y-119476405D01*
X103278376Y-119436755D01*
X103343395Y-119383395D01*
X103356768Y-119367100D01*
X104571418Y-118152451D01*
X104571418Y-119450000D01*
X104577732Y-119514103D01*
X104596430Y-119575743D01*
X104626794Y-119632550D01*
X104667657Y-119682343D01*
X104717450Y-119723206D01*
X104774257Y-119753570D01*
X104835897Y-119772268D01*
X104900000Y-119778582D01*
X105900000Y-119778582D01*
X105964103Y-119772268D01*
X106025743Y-119753570D01*
X106050000Y-119740604D01*
X106074257Y-119753570D01*
X106135897Y-119772268D01*
X106200000Y-119778582D01*
X106273000Y-119778582D01*
X106273001Y-120814609D01*
X106122481Y-120876956D01*
X105929706Y-121005764D01*
X105765764Y-121169706D01*
X105636956Y-121362481D01*
X105548231Y-121576682D01*
X105503000Y-121804076D01*
X105503000Y-122035924D01*
X105548231Y-122263318D01*
X105636956Y-122477519D01*
X105765764Y-122670294D01*
X105929706Y-122834236D01*
X105935339Y-122838000D01*
X104884661Y-122838000D01*
X104890294Y-122834236D01*
X105054236Y-122670294D01*
X105183044Y-122477519D01*
X105271769Y-122263318D01*
X105317000Y-122035924D01*
X105317000Y-121804076D01*
X105271769Y-121576682D01*
X105183044Y-121362481D01*
X105054236Y-121169706D01*
X104890294Y-121005764D01*
X104697519Y-120876956D01*
X104483318Y-120788231D01*
X104255924Y-120743000D01*
X104024076Y-120743000D01*
X103796682Y-120788231D01*
X103582481Y-120876956D01*
X103389706Y-121005764D01*
X103225764Y-121169706D01*
X103096956Y-121362481D01*
X103008231Y-121576682D01*
X102963000Y-121804076D01*
X102963000Y-122035924D01*
X103008231Y-122263318D01*
X103096956Y-122477519D01*
X103225764Y-122670294D01*
X103389706Y-122834236D01*
X103395339Y-122838000D01*
X102344661Y-122838000D01*
X102350294Y-122834236D01*
X102514236Y-122670294D01*
X102643044Y-122477519D01*
X102731769Y-122263318D01*
X102777000Y-122035924D01*
X102777000Y-121804076D01*
X102731769Y-121576682D01*
X102643044Y-121362481D01*
X102514236Y-121169706D01*
X102350294Y-121005764D01*
X102157519Y-120876956D01*
X101943318Y-120788231D01*
X101715924Y-120743000D01*
X101484076Y-120743000D01*
X101256682Y-120788231D01*
X101042481Y-120876956D01*
X100849706Y-121005764D01*
X100685764Y-121169706D01*
X100556956Y-121362481D01*
X100468231Y-121576682D01*
X100423000Y-121804076D01*
X100423000Y-122035924D01*
X100468231Y-122263318D01*
X100556956Y-122477519D01*
X100685764Y-122670294D01*
X100849706Y-122834236D01*
X100855339Y-122838000D01*
X99804661Y-122838000D01*
X99810294Y-122834236D01*
X99974236Y-122670294D01*
X100103044Y-122477519D01*
X100191769Y-122263318D01*
X100237000Y-122035924D01*
X100237000Y-121804076D01*
X100191769Y-121576682D01*
X100103044Y-121362481D01*
X99974236Y-121169706D01*
X99810294Y-121005764D01*
X99617519Y-120876956D01*
X99403318Y-120788231D01*
X99175924Y-120743000D01*
X98944076Y-120743000D01*
X98716682Y-120788231D01*
X98502481Y-120876956D01*
X98309706Y-121005764D01*
X98145764Y-121169706D01*
X98016956Y-121362481D01*
X97928231Y-121576682D01*
X97883000Y-121804076D01*
X97883000Y-122035924D01*
X97928231Y-122263318D01*
X98016956Y-122477519D01*
X98145764Y-122670294D01*
X98309706Y-122834236D01*
X98315339Y-122838000D01*
X97264661Y-122838000D01*
X97270294Y-122834236D01*
X97434236Y-122670294D01*
X97563044Y-122477519D01*
X97651769Y-122263318D01*
X97697000Y-122035924D01*
X97697000Y-121804076D01*
X97651769Y-121576682D01*
X97563044Y-121362481D01*
X97434236Y-121169706D01*
X97270294Y-121005764D01*
X97077519Y-120876956D01*
X96863318Y-120788231D01*
X96635924Y-120743000D01*
X96404076Y-120743000D01*
X96176682Y-120788231D01*
X95962481Y-120876956D01*
X95769706Y-121005764D01*
X95605764Y-121169706D01*
X95476956Y-121362481D01*
X95388231Y-121576682D01*
X95343000Y-121804076D01*
X95343000Y-122035924D01*
X95388231Y-122263318D01*
X95476956Y-122477519D01*
X95605764Y-122670294D01*
X95769706Y-122834236D01*
X95775339Y-122838000D01*
X94724661Y-122838000D01*
X94730294Y-122834236D01*
X94894236Y-122670294D01*
X95023044Y-122477519D01*
X95111769Y-122263318D01*
X95157000Y-122035924D01*
X95157000Y-121804076D01*
X95111769Y-121576682D01*
X95023044Y-121362481D01*
X94894236Y-121169706D01*
X94730294Y-121005764D01*
X94537519Y-120876956D01*
X94323318Y-120788231D01*
X94095924Y-120743000D01*
X93864076Y-120743000D01*
X93636682Y-120788231D01*
X93422481Y-120876956D01*
X93229706Y-121005764D01*
X93065764Y-121169706D01*
X92936956Y-121362481D01*
X92848231Y-121576682D01*
X92803000Y-121804076D01*
X92803000Y-122035924D01*
X92848231Y-122263318D01*
X92936956Y-122477519D01*
X93065764Y-122670294D01*
X93229706Y-122834236D01*
X93235339Y-122838000D01*
X92184661Y-122838000D01*
X92190294Y-122834236D01*
X92354236Y-122670294D01*
X92483044Y-122477519D01*
X92571769Y-122263318D01*
X92617000Y-122035924D01*
X92617000Y-121804076D01*
X92571769Y-121576682D01*
X92483044Y-121362481D01*
X92354236Y-121169706D01*
X92190294Y-121005764D01*
X91997519Y-120876956D01*
X91783318Y-120788231D01*
X91555924Y-120743000D01*
X91324076Y-120743000D01*
X91096682Y-120788231D01*
X90882481Y-120876956D01*
X90689706Y-121005764D01*
X90525764Y-121169706D01*
X90396956Y-121362481D01*
X90308231Y-121576682D01*
X90263000Y-121804076D01*
X90263000Y-122035924D01*
X90308231Y-122263318D01*
X90396956Y-122477519D01*
X90525764Y-122670294D01*
X90689706Y-122834236D01*
X90695339Y-122838000D01*
X89644661Y-122838000D01*
X89650294Y-122834236D01*
X89814236Y-122670294D01*
X89943044Y-122477519D01*
X90031769Y-122263318D01*
X90077000Y-122035924D01*
X90077000Y-121804076D01*
X90031769Y-121576682D01*
X89943044Y-121362481D01*
X89814236Y-121169706D01*
X89650294Y-121005764D01*
X89457519Y-120876956D01*
X89243318Y-120788231D01*
X89015924Y-120743000D01*
X88784076Y-120743000D01*
X88556682Y-120788231D01*
X88342481Y-120876956D01*
X88149706Y-121005764D01*
X87985764Y-121169706D01*
X87856956Y-121362481D01*
X87768231Y-121576682D01*
X87723000Y-121804076D01*
X87723000Y-122035924D01*
X87768231Y-122263318D01*
X87856956Y-122477519D01*
X87985764Y-122670294D01*
X88149706Y-122834236D01*
X88155339Y-122838000D01*
X87104661Y-122838000D01*
X87110294Y-122834236D01*
X87274236Y-122670294D01*
X87403044Y-122477519D01*
X87491769Y-122263318D01*
X87537000Y-122035924D01*
X87537000Y-121804076D01*
X87491769Y-121576682D01*
X87403044Y-121362481D01*
X87274236Y-121169706D01*
X87110294Y-121005764D01*
X86917519Y-120876956D01*
X86703318Y-120788231D01*
X86475924Y-120743000D01*
X86244076Y-120743000D01*
X86016682Y-120788231D01*
X85802481Y-120876956D01*
X85609706Y-121005764D01*
X85445764Y-121169706D01*
X85316956Y-121362481D01*
X85228231Y-121576682D01*
X85183000Y-121804076D01*
X85183000Y-122035924D01*
X85228231Y-122263318D01*
X85316956Y-122477519D01*
X85445764Y-122670294D01*
X85609706Y-122834236D01*
X85615339Y-122838000D01*
X84564661Y-122838000D01*
X84570294Y-122834236D01*
X84734236Y-122670294D01*
X84863044Y-122477519D01*
X84951769Y-122263318D01*
X84997000Y-122035924D01*
X84997000Y-121804076D01*
X84951769Y-121576682D01*
X84863044Y-121362481D01*
X84734236Y-121169706D01*
X84570294Y-121005764D01*
X84377519Y-120876956D01*
X84163318Y-120788231D01*
X83935924Y-120743000D01*
X83704076Y-120743000D01*
X83476682Y-120788231D01*
X83262481Y-120876956D01*
X83069706Y-121005764D01*
X82905764Y-121169706D01*
X82776956Y-121362481D01*
X82688231Y-121576682D01*
X82643000Y-121804076D01*
X82643000Y-122035924D01*
X82688231Y-122263318D01*
X82776956Y-122477519D01*
X82905764Y-122670294D01*
X83069706Y-122834236D01*
X83075339Y-122838000D01*
X82024661Y-122838000D01*
X82030294Y-122834236D01*
X82194236Y-122670294D01*
X82323044Y-122477519D01*
X82411769Y-122263318D01*
X82457000Y-122035924D01*
X82457000Y-121804076D01*
X82411769Y-121576682D01*
X82323044Y-121362481D01*
X82194236Y-121169706D01*
X82030294Y-121005764D01*
X81837519Y-120876956D01*
X81623318Y-120788231D01*
X81395924Y-120743000D01*
X81164076Y-120743000D01*
X80936682Y-120788231D01*
X80722481Y-120876956D01*
X80529706Y-121005764D01*
X80365764Y-121169706D01*
X80236956Y-121362481D01*
X80148231Y-121576682D01*
X80103000Y-121804076D01*
X80103000Y-122035924D01*
X80148231Y-122263318D01*
X80236956Y-122477519D01*
X80365764Y-122670294D01*
X80529706Y-122834236D01*
X80535339Y-122838000D01*
X79484661Y-122838000D01*
X79490294Y-122834236D01*
X79654236Y-122670294D01*
X79783044Y-122477519D01*
X79871769Y-122263318D01*
X79917000Y-122035924D01*
X79917000Y-121804076D01*
X79871769Y-121576682D01*
X79783044Y-121362481D01*
X79654236Y-121169706D01*
X79490294Y-121005764D01*
X79297519Y-120876956D01*
X79083318Y-120788231D01*
X78855924Y-120743000D01*
X78624076Y-120743000D01*
X78396682Y-120788231D01*
X78182481Y-120876956D01*
X77989706Y-121005764D01*
X77825764Y-121169706D01*
X77696956Y-121362481D01*
X77608231Y-121576682D01*
X77563000Y-121804076D01*
X77563000Y-122035924D01*
X77608231Y-122263318D01*
X77696956Y-122477519D01*
X77825764Y-122670294D01*
X77989706Y-122834236D01*
X77995339Y-122838000D01*
X76944661Y-122838000D01*
X76950294Y-122834236D01*
X77114236Y-122670294D01*
X77243044Y-122477519D01*
X77331769Y-122263318D01*
X77377000Y-122035924D01*
X77377000Y-121804076D01*
X77331769Y-121576682D01*
X77243044Y-121362481D01*
X77114236Y-121169706D01*
X76950294Y-121005764D01*
X76757519Y-120876956D01*
X76543318Y-120788231D01*
X76315924Y-120743000D01*
X76084076Y-120743000D01*
X75856682Y-120788231D01*
X75642481Y-120876956D01*
X75449706Y-121005764D01*
X75285764Y-121169706D01*
X75156956Y-121362481D01*
X75068231Y-121576682D01*
X75023000Y-121804076D01*
X75023000Y-122035924D01*
X75068231Y-122263318D01*
X75156956Y-122477519D01*
X75285764Y-122670294D01*
X75449706Y-122834236D01*
X75455339Y-122838000D01*
X74404661Y-122838000D01*
X74410294Y-122834236D01*
X74574236Y-122670294D01*
X74703044Y-122477519D01*
X74791769Y-122263318D01*
X74837000Y-122035924D01*
X74837000Y-121804076D01*
X74791769Y-121576682D01*
X74703044Y-121362481D01*
X74574236Y-121169706D01*
X74410294Y-121005764D01*
X74217519Y-120876956D01*
X74003318Y-120788231D01*
X73775924Y-120743000D01*
X73544076Y-120743000D01*
X73316682Y-120788231D01*
X73102481Y-120876956D01*
X72909706Y-121005764D01*
X72745764Y-121169706D01*
X72616956Y-121362481D01*
X72528231Y-121576682D01*
X72483000Y-121804076D01*
X72483000Y-122035924D01*
X72528231Y-122263318D01*
X72616956Y-122477519D01*
X72745764Y-122670294D01*
X72909706Y-122834236D01*
X72915339Y-122838000D01*
X70291037Y-122838000D01*
X70501050Y-122796226D01*
X70907249Y-122627973D01*
X71272817Y-122383708D01*
X71583708Y-122072817D01*
X71827973Y-121707249D01*
X71996226Y-121301050D01*
X72082000Y-120869833D01*
X72082000Y-120430167D01*
X71996226Y-119998950D01*
X71827973Y-119592751D01*
X71583708Y-119227183D01*
X71272817Y-118916292D01*
X70907249Y-118672027D01*
X70501050Y-118503774D01*
X70069833Y-118418000D01*
X69630167Y-118418000D01*
X69198950Y-118503774D01*
X68792751Y-118672027D01*
X68427183Y-118916292D01*
X68116292Y-119227183D01*
X67872027Y-119592751D01*
X67703774Y-119998950D01*
X67662000Y-120208963D01*
X67662000Y-113028397D01*
X69148000Y-113028397D01*
X69148000Y-113171603D01*
X69175938Y-113312058D01*
X69230741Y-113444364D01*
X69310302Y-113563436D01*
X69411564Y-113664698D01*
X69530636Y-113744259D01*
X69662942Y-113799062D01*
X69803397Y-113827000D01*
X69946603Y-113827000D01*
X70087058Y-113799062D01*
X70219364Y-113744259D01*
X70338436Y-113664698D01*
X70426134Y-113577000D01*
X73976585Y-113577000D01*
X74000000Y-113579306D01*
X74023415Y-113577000D01*
X74023423Y-113577000D01*
X74093508Y-113570097D01*
X74183423Y-113542822D01*
X74266289Y-113498529D01*
X74338921Y-113438921D01*
X74353855Y-113420724D01*
X77497579Y-110277000D01*
X77975000Y-110277000D01*
X77999776Y-110274560D01*
X78023601Y-110267333D01*
X78045557Y-110255597D01*
X78064803Y-110239803D01*
X78080597Y-110220557D01*
X78092333Y-110198601D01*
X78099560Y-110174776D01*
X78102000Y-110150000D01*
X78102000Y-109672579D01*
X82172581Y-105601999D01*
X83401586Y-105601999D01*
X83425001Y-105604305D01*
X83448416Y-105601999D01*
X83448424Y-105601999D01*
X83518509Y-105595096D01*
X83608424Y-105567821D01*
X83691290Y-105523528D01*
X83763922Y-105463920D01*
X83778856Y-105445723D01*
X83872579Y-105352000D01*
X83886754Y-105352000D01*
X84007889Y-105327905D01*
X84121996Y-105280640D01*
X84224689Y-105212023D01*
X84312023Y-105124689D01*
X84380640Y-105021996D01*
X84427905Y-104907889D01*
X84452000Y-104786754D01*
X84452000Y-104663246D01*
X84427905Y-104542111D01*
X84380640Y-104428004D01*
X84312023Y-104325311D01*
X84224689Y-104237977D01*
X84121996Y-104169360D01*
X84007889Y-104122095D01*
X83886754Y-104098000D01*
X83763246Y-104098000D01*
X83642111Y-104122095D01*
X83528004Y-104169360D01*
X83425311Y-104237977D01*
X83337977Y-104325311D01*
X83269360Y-104428004D01*
X83222095Y-104542111D01*
X83201033Y-104647999D01*
X81998416Y-104647999D01*
X81975001Y-104645693D01*
X81951586Y-104647999D01*
X81951578Y-104647999D01*
X81881493Y-104654902D01*
X81791578Y-104682177D01*
X81708712Y-104726470D01*
X81688260Y-104743255D01*
X81636080Y-104786078D01*
X81621151Y-104804269D01*
X78102000Y-108323420D01*
X78102000Y-105025000D01*
X78099560Y-105000224D01*
X78092333Y-104976399D01*
X78080597Y-104954443D01*
X78064803Y-104935197D01*
X78045557Y-104919403D01*
X78023601Y-104907667D01*
X77999776Y-104900440D01*
X77975000Y-104898000D01*
X73075000Y-104898000D01*
X73050224Y-104900440D01*
X73026399Y-104907667D01*
X73004443Y-104919403D01*
X72985197Y-104935197D01*
X72969403Y-104954443D01*
X72957667Y-104976399D01*
X72950440Y-105000224D01*
X72948000Y-105025000D01*
X72948000Y-110150000D01*
X72950440Y-110174776D01*
X72957667Y-110198601D01*
X72969403Y-110220557D01*
X72985197Y-110239803D01*
X73004443Y-110255597D01*
X73026399Y-110267333D01*
X73050224Y-110274560D01*
X73075000Y-110277000D01*
X76148421Y-110277000D01*
X73802421Y-112623000D01*
X70426134Y-112623000D01*
X70338436Y-112535302D01*
X70219364Y-112455741D01*
X70087058Y-112400938D01*
X69946603Y-112373000D01*
X69803397Y-112373000D01*
X69662942Y-112400938D01*
X69530636Y-112455741D01*
X69411564Y-112535302D01*
X69310302Y-112636564D01*
X69230741Y-112755636D01*
X69175938Y-112887942D01*
X69148000Y-113028397D01*
X67662000Y-113028397D01*
X67662000Y-103311037D01*
X67703774Y-103521050D01*
X67872027Y-103927249D01*
X68116292Y-104292817D01*
X68427183Y-104603708D01*
X68792751Y-104847973D01*
X69198950Y-105016226D01*
X69630167Y-105102000D01*
X70069833Y-105102000D01*
X70501050Y-105016226D01*
X70907249Y-104847973D01*
X71272817Y-104603708D01*
X71583708Y-104292817D01*
X71827973Y-103927249D01*
X71996226Y-103521050D01*
X72082000Y-103089833D01*
X72082000Y-102650167D01*
X71996226Y-102218950D01*
X71827973Y-101812751D01*
X71583708Y-101447183D01*
X71272817Y-101136292D01*
X70907249Y-100892027D01*
X70501050Y-100723774D01*
X70291037Y-100682000D01*
X83075339Y-100682000D01*
X83069706Y-100685764D01*
G37*
X83069706Y-100685764D02*
X82905764Y-100849706D01*
X82776956Y-101042481D01*
X82688231Y-101256682D01*
X82643000Y-101484076D01*
X82643000Y-101715924D01*
X82688231Y-101943318D01*
X82776956Y-102157519D01*
X82905764Y-102350294D01*
X83069706Y-102514236D01*
X83262481Y-102643044D01*
X83476682Y-102731769D01*
X83704076Y-102777000D01*
X83935924Y-102777000D01*
X84163318Y-102731769D01*
X84377519Y-102643044D01*
X84570294Y-102514236D01*
X84734236Y-102350294D01*
X84863044Y-102157519D01*
X84951769Y-101943318D01*
X84997000Y-101715924D01*
X84997000Y-101484076D01*
X84951769Y-101256682D01*
X84863044Y-101042481D01*
X84734236Y-100849706D01*
X84570294Y-100685764D01*
X84564661Y-100682000D01*
X85615339Y-100682000D01*
X85609706Y-100685764D01*
X85445764Y-100849706D01*
X85316956Y-101042481D01*
X85228231Y-101256682D01*
X85183000Y-101484076D01*
X85183000Y-101715924D01*
X85228231Y-101943318D01*
X85316956Y-102157519D01*
X85445764Y-102350294D01*
X85609706Y-102514236D01*
X85802481Y-102643044D01*
X86016682Y-102731769D01*
X86244076Y-102777000D01*
X86475924Y-102777000D01*
X86703318Y-102731769D01*
X86917519Y-102643044D01*
X87110294Y-102514236D01*
X87274236Y-102350294D01*
X87403044Y-102157519D01*
X87491769Y-101943318D01*
X87537000Y-101715924D01*
X87537000Y-101484076D01*
X87491769Y-101256682D01*
X87403044Y-101042481D01*
X87274236Y-100849706D01*
X87110294Y-100685764D01*
X87104661Y-100682000D01*
X88155339Y-100682000D01*
X88149706Y-100685764D01*
X87985764Y-100849706D01*
X87856956Y-101042481D01*
X87768231Y-101256682D01*
X87723000Y-101484076D01*
X87723000Y-101715924D01*
X87768231Y-101943318D01*
X87856956Y-102157519D01*
X87985764Y-102350294D01*
X88149706Y-102514236D01*
X88342481Y-102643044D01*
X88556682Y-102731769D01*
X88568615Y-102734143D01*
X88513707Y-102789051D01*
X88467029Y-102793648D01*
X88386540Y-102818065D01*
X88353639Y-102835651D01*
X88312359Y-102857715D01*
X88263634Y-102897702D01*
X88263625Y-102897711D01*
X88247341Y-102911075D01*
X88233977Y-102927359D01*
X81442896Y-109718442D01*
X81426606Y-109731811D01*
X81413237Y-109748101D01*
X81413232Y-109748106D01*
X81373245Y-109796830D01*
X81343220Y-109853004D01*
X81333596Y-109871010D01*
X81309179Y-109951499D01*
X81305800Y-109985804D01*
X81300935Y-110035206D01*
X81303001Y-110056183D01*
X81303000Y-111080288D01*
X81242977Y-111140311D01*
X81174360Y-111243004D01*
X81127095Y-111357111D01*
X81103000Y-111478246D01*
X81103000Y-111601754D01*
X81127095Y-111722889D01*
X81174360Y-111836996D01*
X81242977Y-111939689D01*
X81330311Y-112027023D01*
X81433004Y-112095640D01*
X81547111Y-112142905D01*
X81668246Y-112167000D01*
X81791754Y-112167000D01*
X81912889Y-112142905D01*
X82026996Y-112095640D01*
X82129689Y-112027023D01*
X82217023Y-111939689D01*
X82285640Y-111836996D01*
X82332905Y-111722889D01*
X82357000Y-111601754D01*
X82357000Y-111478246D01*
X82332905Y-111357111D01*
X82285640Y-111243004D01*
X82217023Y-111140311D01*
X82157000Y-111080288D01*
X82157000Y-110212074D01*
X83672990Y-108696085D01*
X83672989Y-111730288D01*
X83612966Y-111790311D01*
X83544349Y-111893004D01*
X83497084Y-112007111D01*
X83472989Y-112128246D01*
X83472989Y-112251754D01*
X83497084Y-112372889D01*
X83544349Y-112486996D01*
X83612966Y-112589689D01*
X83700300Y-112677023D01*
X83802993Y-112745640D01*
X83875880Y-112775831D01*
X83844360Y-112823004D01*
X83797095Y-112937111D01*
X83773000Y-113058246D01*
X83773000Y-113181754D01*
X83797095Y-113302889D01*
X83844360Y-113416996D01*
X83912977Y-113519689D01*
X84000311Y-113607023D01*
X84103004Y-113675640D01*
X84217111Y-113722905D01*
X84338246Y-113747000D01*
X84461754Y-113747000D01*
X84582889Y-113722905D01*
X84696996Y-113675640D01*
X84799689Y-113607023D01*
X84887023Y-113519689D01*
X84955640Y-113416996D01*
X85002905Y-113302889D01*
X85027000Y-113181754D01*
X85027000Y-113096868D01*
X85572990Y-112550878D01*
X85572989Y-114221418D01*
X84200000Y-114221418D01*
X84135897Y-114227732D01*
X84074257Y-114246430D01*
X84017450Y-114276794D01*
X83967657Y-114317657D01*
X83926794Y-114367450D01*
X83896430Y-114424257D01*
X83877732Y-114485897D01*
X83871418Y-114550000D01*
X83871418Y-114573508D01*
X83806492Y-114579903D01*
X83716577Y-114607178D01*
X83633711Y-114651471D01*
X83561079Y-114711079D01*
X83560392Y-114711916D01*
X83563072Y-114525000D01*
X83550812Y-114400518D01*
X83514502Y-114280820D01*
X83455537Y-114170506D01*
X83376185Y-114073815D01*
X83279494Y-113994463D01*
X83169180Y-113935498D01*
X83049482Y-113899188D01*
X82925000Y-113886928D01*
X82460750Y-113890000D01*
X82302000Y-114048750D01*
X82302000Y-114898000D01*
X82322000Y-114898000D01*
X82322000Y-115098000D01*
X82028000Y-115098000D01*
X82028000Y-114898000D01*
X82048000Y-114898000D01*
X82048000Y-114048750D01*
X81889250Y-113890000D01*
X81425000Y-113886928D01*
X81300518Y-113899188D01*
X81180820Y-113935498D01*
X81070506Y-113994463D01*
X80973815Y-114073815D01*
X80894463Y-114170506D01*
X80835498Y-114280820D01*
X80799188Y-114400518D01*
X80786928Y-114525000D01*
X80788697Y-114648387D01*
X80786754Y-114648000D01*
X80663246Y-114648000D01*
X80542111Y-114672095D01*
X80428004Y-114719360D01*
X80325311Y-114787977D01*
X80237977Y-114875311D01*
X80169360Y-114978004D01*
X80122095Y-115092111D01*
X80098000Y-115213246D01*
X80098000Y-115336754D01*
X80122095Y-115457889D01*
X80169360Y-115571996D01*
X80237977Y-115674689D01*
X80298001Y-115734713D01*
X80298001Y-115854023D01*
X80295935Y-115875000D01*
X80298001Y-115895977D01*
X80298001Y-115895978D01*
X80304179Y-115958707D01*
X80313900Y-115990752D01*
X80328596Y-116039196D01*
X80368245Y-116113376D01*
X80408232Y-116162100D01*
X80408237Y-116162105D01*
X80421606Y-116178395D01*
X80437895Y-116191763D01*
X80858236Y-116612105D01*
X80871605Y-116628395D01*
X80887895Y-116641764D01*
X80887899Y-116641768D01*
X80936623Y-116681755D01*
X80968541Y-116698815D01*
X81010804Y-116721405D01*
X81091293Y-116745822D01*
X81096418Y-116746327D01*
X81096418Y-116825000D01*
X81102732Y-116889103D01*
X81121430Y-116950743D01*
X81134396Y-116975000D01*
X81121430Y-116999257D01*
X81102732Y-117060897D01*
X81096418Y-117125000D01*
X81096418Y-117148000D01*
X79935578Y-117148000D01*
X79801999Y-117014422D01*
X79801999Y-116508414D01*
X79804305Y-116484999D01*
X79801999Y-116461584D01*
X79801999Y-116461576D01*
X79795096Y-116391491D01*
X79767821Y-116301576D01*
X79723528Y-116218710D01*
X79663920Y-116146078D01*
X79645728Y-116131148D01*
X79337000Y-115822421D01*
X79337000Y-113967579D01*
X79657580Y-113647000D01*
X80480288Y-113647000D01*
X80490311Y-113657023D01*
X80593004Y-113725640D01*
X80707111Y-113772905D01*
X80828246Y-113797000D01*
X80951754Y-113797000D01*
X81072889Y-113772905D01*
X81186996Y-113725640D01*
X81289689Y-113657023D01*
X81377023Y-113569689D01*
X81445640Y-113466996D01*
X81492905Y-113352889D01*
X81517000Y-113231754D01*
X81517000Y-113108246D01*
X81492905Y-112987111D01*
X81445640Y-112873004D01*
X81377023Y-112770311D01*
X81289689Y-112682977D01*
X81186996Y-112614360D01*
X81072889Y-112567095D01*
X80951754Y-112543000D01*
X80828246Y-112543000D01*
X80707111Y-112567095D01*
X80593004Y-112614360D01*
X80490311Y-112682977D01*
X80480288Y-112693000D01*
X79483414Y-112693000D01*
X79459999Y-112690694D01*
X79436584Y-112693000D01*
X79436577Y-112693000D01*
X79366492Y-112699903D01*
X79276577Y-112727178D01*
X79193711Y-112771471D01*
X79121079Y-112831079D01*
X79106149Y-112849271D01*
X78539276Y-113416145D01*
X78521079Y-113431079D01*
X78461471Y-113503711D01*
X78417178Y-113586578D01*
X78389903Y-113676493D01*
X78383000Y-113746578D01*
X78383000Y-113746585D01*
X78380694Y-113770000D01*
X78383000Y-113793415D01*
X78383001Y-115996575D01*
X78380694Y-116020000D01*
X78389903Y-116113507D01*
X78417178Y-116203422D01*
X78417179Y-116203423D01*
X78461472Y-116286289D01*
X78477163Y-116305409D01*
X78377993Y-116346487D01*
X78275300Y-116415104D01*
X78187966Y-116502438D01*
X78186304Y-116504925D01*
X78183677Y-116505722D01*
X78163762Y-116516367D01*
X78109496Y-116545372D01*
X78060771Y-116585360D01*
X78060768Y-116585363D01*
X78044478Y-116598732D01*
X78031109Y-116615022D01*
X76348132Y-118298000D01*
X76263246Y-118298000D01*
X76142111Y-118322095D01*
X76028004Y-118369360D01*
X75925311Y-118437977D01*
X75837977Y-118525311D01*
X75769360Y-118628004D01*
X75722095Y-118742111D01*
X75698000Y-118863246D01*
X75698000Y-118986754D01*
X75722095Y-119107889D01*
X75769360Y-119221996D01*
X75837977Y-119324689D01*
X75925311Y-119412023D01*
X76028004Y-119480640D01*
X76142111Y-119527905D01*
X76263246Y-119552000D01*
X76386754Y-119552000D01*
X76507889Y-119527905D01*
X76621996Y-119480640D01*
X76724689Y-119412023D01*
X76812023Y-119324689D01*
X76880640Y-119221996D01*
X76927905Y-119107889D01*
X76952000Y-118986754D01*
X76952000Y-118901868D01*
X78390798Y-117463071D01*
X78492100Y-117505032D01*
X78613235Y-117529127D01*
X78736743Y-117529127D01*
X78857878Y-117505032D01*
X78925740Y-117476922D01*
X78926471Y-117478290D01*
X78951761Y-117509106D01*
X78970134Y-117531493D01*
X78986079Y-117550922D01*
X79004270Y-117565851D01*
X79384147Y-117945729D01*
X79399077Y-117963921D01*
X79417268Y-117978850D01*
X79417270Y-117978852D01*
X79434469Y-117992967D01*
X79471709Y-118023529D01*
X79554575Y-118067822D01*
X79644490Y-118095097D01*
X79714575Y-118102000D01*
X79714583Y-118102000D01*
X79737998Y-118104306D01*
X79761413Y-118102000D01*
X81096418Y-118102000D01*
X81096418Y-118125000D01*
X81102732Y-118189103D01*
X81121430Y-118250743D01*
X81151794Y-118307550D01*
X81192657Y-118357343D01*
X81242450Y-118398206D01*
X81299257Y-118428570D01*
X81360897Y-118447268D01*
X81425000Y-118453582D01*
X82925000Y-118453582D01*
X82989103Y-118447268D01*
X83050743Y-118428570D01*
X83107550Y-118398206D01*
X83157343Y-118357343D01*
X83198206Y-118307550D01*
X83228570Y-118250743D01*
X83247268Y-118189103D01*
X83253582Y-118125000D01*
X83253582Y-118101492D01*
X83318508Y-118095097D01*
X83408423Y-118067822D01*
X83491289Y-118023529D01*
X83563921Y-117963921D01*
X83564608Y-117963084D01*
X83561928Y-118150000D01*
X83574188Y-118274482D01*
X83610498Y-118394180D01*
X83669463Y-118504494D01*
X83748815Y-118601185D01*
X83845506Y-118680537D01*
X83955820Y-118739502D01*
X84075518Y-118775812D01*
X84200000Y-118788072D01*
X84664250Y-118785000D01*
X84823000Y-118626250D01*
X84823000Y-117777000D01*
X84803000Y-117777000D01*
X84803000Y-117577000D01*
X85097000Y-117577000D01*
X85097000Y-117777000D01*
X85077000Y-117777000D01*
X85077000Y-118626250D01*
X85101309Y-118650559D01*
X84812895Y-118938972D01*
X84796606Y-118952341D01*
X84783237Y-118968631D01*
X84783232Y-118968636D01*
X84743245Y-119017360D01*
X84717380Y-119065752D01*
X84703596Y-119091540D01*
X84679179Y-119172029D01*
X84674581Y-119218707D01*
X84612977Y-119280311D01*
X84593631Y-119309264D01*
X84507368Y-119273532D01*
X84386233Y-119249437D01*
X84262725Y-119249437D01*
X84141590Y-119273532D01*
X84027483Y-119320797D01*
X83924790Y-119389414D01*
X83837456Y-119476748D01*
X83768839Y-119579441D01*
X83721574Y-119693548D01*
X83697479Y-119814683D01*
X83697479Y-119938191D01*
X83721574Y-120059326D01*
X83768839Y-120173433D01*
X83837456Y-120276126D01*
X83924790Y-120363460D01*
X84027483Y-120432077D01*
X84141590Y-120479342D01*
X84262725Y-120503437D01*
X84347611Y-120503437D01*
X84411275Y-120567101D01*
X84424648Y-120583396D01*
X84489667Y-120636756D01*
X84563847Y-120676406D01*
X84644336Y-120700823D01*
X84707065Y-120707001D01*
X84707075Y-120707001D01*
X84728042Y-120709066D01*
X84749009Y-120707001D01*
X92019032Y-120707001D01*
X92039999Y-120709066D01*
X92060966Y-120707001D01*
X92060977Y-120707001D01*
X92123706Y-120700823D01*
X92204195Y-120676406D01*
X92278375Y-120636756D01*
X92343394Y-120583396D01*
X92356767Y-120567101D01*
X93386869Y-119537000D01*
X93471754Y-119537000D01*
X93592889Y-119512905D01*
X93706996Y-119465640D01*
X93809689Y-119397023D01*
X93897023Y-119309689D01*
X93965640Y-119206996D01*
X94012905Y-119092889D01*
X94037000Y-118971754D01*
X94037000Y-118848246D01*
X94012905Y-118727111D01*
X93965640Y-118613004D01*
X93897023Y-118510311D01*
X93809689Y-118422977D01*
X93706996Y-118354360D01*
X93592889Y-118307095D01*
X93471754Y-118283000D01*
X93348246Y-118283000D01*
X93227111Y-118307095D01*
X93113004Y-118354360D01*
X93010311Y-118422977D01*
X92922977Y-118510311D01*
X92854360Y-118613004D01*
X92807095Y-118727111D01*
X92783000Y-118848246D01*
X92783000Y-118933131D01*
X91863131Y-119853001D01*
X86500882Y-119853001D01*
X86510775Y-119829117D01*
X86534870Y-119707982D01*
X86534870Y-119623096D01*
X87207105Y-118950862D01*
X87223394Y-118937494D01*
X87236763Y-118921204D01*
X87236767Y-118921200D01*
X87276755Y-118872475D01*
X87316404Y-118798296D01*
X87329001Y-118756769D01*
X87340821Y-118717806D01*
X87346999Y-118655077D01*
X87346999Y-118655066D01*
X87349064Y-118634099D01*
X87346999Y-118613132D01*
X87346999Y-118161462D01*
X87376383Y-118173633D01*
X87497518Y-118197728D01*
X87621026Y-118197728D01*
X87742161Y-118173633D01*
X87856268Y-118126368D01*
X87958961Y-118057751D01*
X88046295Y-117970417D01*
X88114912Y-117867724D01*
X88162177Y-117753617D01*
X88186272Y-117632482D01*
X88186272Y-117547596D01*
X89813000Y-115920869D01*
X89813001Y-117027027D01*
X89810935Y-117048004D01*
X89813001Y-117068981D01*
X89813001Y-117068982D01*
X89819179Y-117131711D01*
X89839629Y-117199123D01*
X89843596Y-117212200D01*
X89883245Y-117286380D01*
X89923232Y-117335104D01*
X89923237Y-117335109D01*
X89936606Y-117351399D01*
X89952895Y-117364768D01*
X91315234Y-118727107D01*
X91328603Y-118743397D01*
X91344893Y-118756766D01*
X91344896Y-118756769D01*
X91393621Y-118796757D01*
X91431763Y-118817144D01*
X91467802Y-118836407D01*
X91548291Y-118860824D01*
X91611020Y-118867002D01*
X91611032Y-118867002D01*
X91631997Y-118869067D01*
X91652962Y-118867002D01*
X92314031Y-118867002D01*
X92334998Y-118869067D01*
X92355965Y-118867002D01*
X92355976Y-118867002D01*
X92418705Y-118860824D01*
X92499194Y-118836407D01*
X92573374Y-118796757D01*
X92638393Y-118743397D01*
X92651766Y-118727102D01*
X94262106Y-117116763D01*
X94278395Y-117103395D01*
X94291764Y-117087105D01*
X94291768Y-117087101D01*
X94331755Y-117038377D01*
X94361018Y-116983629D01*
X94371405Y-116964196D01*
X94382209Y-116928582D01*
X94475000Y-116928582D01*
X94539103Y-116922268D01*
X94600743Y-116903570D01*
X94657550Y-116873206D01*
X94707343Y-116832343D01*
X94748206Y-116782550D01*
X94778570Y-116725743D01*
X94797268Y-116664103D01*
X94803582Y-116600000D01*
X94803582Y-115100000D01*
X94797268Y-115035897D01*
X94778570Y-114974257D01*
X94748206Y-114917450D01*
X94707343Y-114867657D01*
X94657550Y-114826794D01*
X94600743Y-114796430D01*
X94539103Y-114777732D01*
X94475000Y-114771418D01*
X93475000Y-114771418D01*
X93410897Y-114777732D01*
X93349257Y-114796430D01*
X93325000Y-114809396D01*
X93300743Y-114796430D01*
X93239103Y-114777732D01*
X93175000Y-114771418D01*
X93102000Y-114771418D01*
X93102000Y-113476868D01*
X95651858Y-110927011D01*
X98700746Y-110927011D01*
X98683004Y-110934360D01*
X98580311Y-111002977D01*
X98492977Y-111090311D01*
X98424360Y-111193004D01*
X98377095Y-111307111D01*
X98353000Y-111428246D01*
X98353000Y-111551754D01*
X98377095Y-111672889D01*
X98424360Y-111786996D01*
X98492977Y-111889689D01*
X98523321Y-111920033D01*
X98523000Y-111923287D01*
X98523000Y-111923297D01*
X98520935Y-111944264D01*
X98523000Y-111965231D01*
X98523000Y-113948000D01*
X96300000Y-113948000D01*
X96275224Y-113950440D01*
X96251399Y-113957667D01*
X96229443Y-113969403D01*
X96210197Y-113985197D01*
X96194403Y-114004443D01*
X96182667Y-114026399D01*
X96175440Y-114050224D01*
X96173000Y-114075000D01*
X96173000Y-116600000D01*
X96175440Y-116624776D01*
X96182667Y-116648601D01*
X96194403Y-116670557D01*
X96210197Y-116689803D01*
X96229443Y-116705597D01*
X96251399Y-116717333D01*
X96275224Y-116724560D01*
X96300000Y-116727000D01*
X98523001Y-116727000D01*
X98523001Y-118829023D01*
X98520935Y-118850000D01*
X98523001Y-118870977D01*
X98523001Y-118870978D01*
X98529179Y-118933707D01*
X98548165Y-118996293D01*
X98553596Y-119014196D01*
X98593245Y-119088376D01*
X98633232Y-119137100D01*
X98633237Y-119137105D01*
X98646606Y-119153395D01*
X98662896Y-119166764D01*
X98863232Y-119367100D01*
X98876605Y-119383395D01*
X98941624Y-119436755D01*
X99015804Y-119476405D01*
X99096293Y-119500822D01*
X99159022Y-119507000D01*
X99159032Y-119507000D01*
X99179999Y-119509065D01*
X99200966Y-119507000D01*
X103019033Y-119507000D01*
X103040000Y-119509065D01*
X103060967Y-119507000D01*
X103060978Y-119507000D01*
X103123707Y-119500822D01*
X103204196Y-119476405D01*
X103278376Y-119436755D01*
X103343395Y-119383395D01*
X103356768Y-119367100D01*
X104571418Y-118152451D01*
X104571418Y-119450000D01*
X104577732Y-119514103D01*
X104596430Y-119575743D01*
X104626794Y-119632550D01*
X104667657Y-119682343D01*
X104717450Y-119723206D01*
X104774257Y-119753570D01*
X104835897Y-119772268D01*
X104900000Y-119778582D01*
X105900000Y-119778582D01*
X105964103Y-119772268D01*
X106025743Y-119753570D01*
X106050000Y-119740604D01*
X106074257Y-119753570D01*
X106135897Y-119772268D01*
X106200000Y-119778582D01*
X106273000Y-119778582D01*
X106273001Y-120814609D01*
X106122481Y-120876956D01*
X105929706Y-121005764D01*
X105765764Y-121169706D01*
X105636956Y-121362481D01*
X105548231Y-121576682D01*
X105503000Y-121804076D01*
X105503000Y-122035924D01*
X105548231Y-122263318D01*
X105636956Y-122477519D01*
X105765764Y-122670294D01*
X105929706Y-122834236D01*
X105935339Y-122838000D01*
X104884661Y-122838000D01*
X104890294Y-122834236D01*
X105054236Y-122670294D01*
X105183044Y-122477519D01*
X105271769Y-122263318D01*
X105317000Y-122035924D01*
X105317000Y-121804076D01*
X105271769Y-121576682D01*
X105183044Y-121362481D01*
X105054236Y-121169706D01*
X104890294Y-121005764D01*
X104697519Y-120876956D01*
X104483318Y-120788231D01*
X104255924Y-120743000D01*
X104024076Y-120743000D01*
X103796682Y-120788231D01*
X103582481Y-120876956D01*
X103389706Y-121005764D01*
X103225764Y-121169706D01*
X103096956Y-121362481D01*
X103008231Y-121576682D01*
X102963000Y-121804076D01*
X102963000Y-122035924D01*
X103008231Y-122263318D01*
X103096956Y-122477519D01*
X103225764Y-122670294D01*
X103389706Y-122834236D01*
X103395339Y-122838000D01*
X102344661Y-122838000D01*
X102350294Y-122834236D01*
X102514236Y-122670294D01*
X102643044Y-122477519D01*
X102731769Y-122263318D01*
X102777000Y-122035924D01*
X102777000Y-121804076D01*
X102731769Y-121576682D01*
X102643044Y-121362481D01*
X102514236Y-121169706D01*
X102350294Y-121005764D01*
X102157519Y-120876956D01*
X101943318Y-120788231D01*
X101715924Y-120743000D01*
X101484076Y-120743000D01*
X101256682Y-120788231D01*
X101042481Y-120876956D01*
X100849706Y-121005764D01*
X100685764Y-121169706D01*
X100556956Y-121362481D01*
X100468231Y-121576682D01*
X100423000Y-121804076D01*
X100423000Y-122035924D01*
X100468231Y-122263318D01*
X100556956Y-122477519D01*
X100685764Y-122670294D01*
X100849706Y-122834236D01*
X100855339Y-122838000D01*
X99804661Y-122838000D01*
X99810294Y-122834236D01*
X99974236Y-122670294D01*
X100103044Y-122477519D01*
X100191769Y-122263318D01*
X100237000Y-122035924D01*
X100237000Y-121804076D01*
X100191769Y-121576682D01*
X100103044Y-121362481D01*
X99974236Y-121169706D01*
X99810294Y-121005764D01*
X99617519Y-120876956D01*
X99403318Y-120788231D01*
X99175924Y-120743000D01*
X98944076Y-120743000D01*
X98716682Y-120788231D01*
X98502481Y-120876956D01*
X98309706Y-121005764D01*
X98145764Y-121169706D01*
X98016956Y-121362481D01*
X97928231Y-121576682D01*
X97883000Y-121804076D01*
X97883000Y-122035924D01*
X97928231Y-122263318D01*
X98016956Y-122477519D01*
X98145764Y-122670294D01*
X98309706Y-122834236D01*
X98315339Y-122838000D01*
X97264661Y-122838000D01*
X97270294Y-122834236D01*
X97434236Y-122670294D01*
X97563044Y-122477519D01*
X97651769Y-122263318D01*
X97697000Y-122035924D01*
X97697000Y-121804076D01*
X97651769Y-121576682D01*
X97563044Y-121362481D01*
X97434236Y-121169706D01*
X97270294Y-121005764D01*
X97077519Y-120876956D01*
X96863318Y-120788231D01*
X96635924Y-120743000D01*
X96404076Y-120743000D01*
X96176682Y-120788231D01*
X95962481Y-120876956D01*
X95769706Y-121005764D01*
X95605764Y-121169706D01*
X95476956Y-121362481D01*
X95388231Y-121576682D01*
X95343000Y-121804076D01*
X95343000Y-122035924D01*
X95388231Y-122263318D01*
X95476956Y-122477519D01*
X95605764Y-122670294D01*
X95769706Y-122834236D01*
X95775339Y-122838000D01*
X94724661Y-122838000D01*
X94730294Y-122834236D01*
X94894236Y-122670294D01*
X95023044Y-122477519D01*
X95111769Y-122263318D01*
X95157000Y-122035924D01*
X95157000Y-121804076D01*
X95111769Y-121576682D01*
X95023044Y-121362481D01*
X94894236Y-121169706D01*
X94730294Y-121005764D01*
X94537519Y-120876956D01*
X94323318Y-120788231D01*
X94095924Y-120743000D01*
X93864076Y-120743000D01*
X93636682Y-120788231D01*
X93422481Y-120876956D01*
X93229706Y-121005764D01*
X93065764Y-121169706D01*
X92936956Y-121362481D01*
X92848231Y-121576682D01*
X92803000Y-121804076D01*
X92803000Y-122035924D01*
X92848231Y-122263318D01*
X92936956Y-122477519D01*
X93065764Y-122670294D01*
X93229706Y-122834236D01*
X93235339Y-122838000D01*
X92184661Y-122838000D01*
X92190294Y-122834236D01*
X92354236Y-122670294D01*
X92483044Y-122477519D01*
X92571769Y-122263318D01*
X92617000Y-122035924D01*
X92617000Y-121804076D01*
X92571769Y-121576682D01*
X92483044Y-121362481D01*
X92354236Y-121169706D01*
X92190294Y-121005764D01*
X91997519Y-120876956D01*
X91783318Y-120788231D01*
X91555924Y-120743000D01*
X91324076Y-120743000D01*
X91096682Y-120788231D01*
X90882481Y-120876956D01*
X90689706Y-121005764D01*
X90525764Y-121169706D01*
X90396956Y-121362481D01*
X90308231Y-121576682D01*
X90263000Y-121804076D01*
X90263000Y-122035924D01*
X90308231Y-122263318D01*
X90396956Y-122477519D01*
X90525764Y-122670294D01*
X90689706Y-122834236D01*
X90695339Y-122838000D01*
X89644661Y-122838000D01*
X89650294Y-122834236D01*
X89814236Y-122670294D01*
X89943044Y-122477519D01*
X90031769Y-122263318D01*
X90077000Y-122035924D01*
X90077000Y-121804076D01*
X90031769Y-121576682D01*
X89943044Y-121362481D01*
X89814236Y-121169706D01*
X89650294Y-121005764D01*
X89457519Y-120876956D01*
X89243318Y-120788231D01*
X89015924Y-120743000D01*
X88784076Y-120743000D01*
X88556682Y-120788231D01*
X88342481Y-120876956D01*
X88149706Y-121005764D01*
X87985764Y-121169706D01*
X87856956Y-121362481D01*
X87768231Y-121576682D01*
X87723000Y-121804076D01*
X87723000Y-122035924D01*
X87768231Y-122263318D01*
X87856956Y-122477519D01*
X87985764Y-122670294D01*
X88149706Y-122834236D01*
X88155339Y-122838000D01*
X87104661Y-122838000D01*
X87110294Y-122834236D01*
X87274236Y-122670294D01*
X87403044Y-122477519D01*
X87491769Y-122263318D01*
X87537000Y-122035924D01*
X87537000Y-121804076D01*
X87491769Y-121576682D01*
X87403044Y-121362481D01*
X87274236Y-121169706D01*
X87110294Y-121005764D01*
X86917519Y-120876956D01*
X86703318Y-120788231D01*
X86475924Y-120743000D01*
X86244076Y-120743000D01*
X86016682Y-120788231D01*
X85802481Y-120876956D01*
X85609706Y-121005764D01*
X85445764Y-121169706D01*
X85316956Y-121362481D01*
X85228231Y-121576682D01*
X85183000Y-121804076D01*
X85183000Y-122035924D01*
X85228231Y-122263318D01*
X85316956Y-122477519D01*
X85445764Y-122670294D01*
X85609706Y-122834236D01*
X85615339Y-122838000D01*
X84564661Y-122838000D01*
X84570294Y-122834236D01*
X84734236Y-122670294D01*
X84863044Y-122477519D01*
X84951769Y-122263318D01*
X84997000Y-122035924D01*
X84997000Y-121804076D01*
X84951769Y-121576682D01*
X84863044Y-121362481D01*
X84734236Y-121169706D01*
X84570294Y-121005764D01*
X84377519Y-120876956D01*
X84163318Y-120788231D01*
X83935924Y-120743000D01*
X83704076Y-120743000D01*
X83476682Y-120788231D01*
X83262481Y-120876956D01*
X83069706Y-121005764D01*
X82905764Y-121169706D01*
X82776956Y-121362481D01*
X82688231Y-121576682D01*
X82643000Y-121804076D01*
X82643000Y-122035924D01*
X82688231Y-122263318D01*
X82776956Y-122477519D01*
X82905764Y-122670294D01*
X83069706Y-122834236D01*
X83075339Y-122838000D01*
X82024661Y-122838000D01*
X82030294Y-122834236D01*
X82194236Y-122670294D01*
X82323044Y-122477519D01*
X82411769Y-122263318D01*
X82457000Y-122035924D01*
X82457000Y-121804076D01*
X82411769Y-121576682D01*
X82323044Y-121362481D01*
X82194236Y-121169706D01*
X82030294Y-121005764D01*
X81837519Y-120876956D01*
X81623318Y-120788231D01*
X81395924Y-120743000D01*
X81164076Y-120743000D01*
X80936682Y-120788231D01*
X80722481Y-120876956D01*
X80529706Y-121005764D01*
X80365764Y-121169706D01*
X80236956Y-121362481D01*
X80148231Y-121576682D01*
X80103000Y-121804076D01*
X80103000Y-122035924D01*
X80148231Y-122263318D01*
X80236956Y-122477519D01*
X80365764Y-122670294D01*
X80529706Y-122834236D01*
X80535339Y-122838000D01*
X79484661Y-122838000D01*
X79490294Y-122834236D01*
X79654236Y-122670294D01*
X79783044Y-122477519D01*
X79871769Y-122263318D01*
X79917000Y-122035924D01*
X79917000Y-121804076D01*
X79871769Y-121576682D01*
X79783044Y-121362481D01*
X79654236Y-121169706D01*
X79490294Y-121005764D01*
X79297519Y-120876956D01*
X79083318Y-120788231D01*
X78855924Y-120743000D01*
X78624076Y-120743000D01*
X78396682Y-120788231D01*
X78182481Y-120876956D01*
X77989706Y-121005764D01*
X77825764Y-121169706D01*
X77696956Y-121362481D01*
X77608231Y-121576682D01*
X77563000Y-121804076D01*
X77563000Y-122035924D01*
X77608231Y-122263318D01*
X77696956Y-122477519D01*
X77825764Y-122670294D01*
X77989706Y-122834236D01*
X77995339Y-122838000D01*
X76944661Y-122838000D01*
X76950294Y-122834236D01*
X77114236Y-122670294D01*
X77243044Y-122477519D01*
X77331769Y-122263318D01*
X77377000Y-122035924D01*
X77377000Y-121804076D01*
X77331769Y-121576682D01*
X77243044Y-121362481D01*
X77114236Y-121169706D01*
X76950294Y-121005764D01*
X76757519Y-120876956D01*
X76543318Y-120788231D01*
X76315924Y-120743000D01*
X76084076Y-120743000D01*
X75856682Y-120788231D01*
X75642481Y-120876956D01*
X75449706Y-121005764D01*
X75285764Y-121169706D01*
X75156956Y-121362481D01*
X75068231Y-121576682D01*
X75023000Y-121804076D01*
X75023000Y-122035924D01*
X75068231Y-122263318D01*
X75156956Y-122477519D01*
X75285764Y-122670294D01*
X75449706Y-122834236D01*
X75455339Y-122838000D01*
X74404661Y-122838000D01*
X74410294Y-122834236D01*
X74574236Y-122670294D01*
X74703044Y-122477519D01*
X74791769Y-122263318D01*
X74837000Y-122035924D01*
X74837000Y-121804076D01*
X74791769Y-121576682D01*
X74703044Y-121362481D01*
X74574236Y-121169706D01*
X74410294Y-121005764D01*
X74217519Y-120876956D01*
X74003318Y-120788231D01*
X73775924Y-120743000D01*
X73544076Y-120743000D01*
X73316682Y-120788231D01*
X73102481Y-120876956D01*
X72909706Y-121005764D01*
X72745764Y-121169706D01*
X72616956Y-121362481D01*
X72528231Y-121576682D01*
X72483000Y-121804076D01*
X72483000Y-122035924D01*
X72528231Y-122263318D01*
X72616956Y-122477519D01*
X72745764Y-122670294D01*
X72909706Y-122834236D01*
X72915339Y-122838000D01*
X70291037Y-122838000D01*
X70501050Y-122796226D01*
X70907249Y-122627973D01*
X71272817Y-122383708D01*
X71583708Y-122072817D01*
X71827973Y-121707249D01*
X71996226Y-121301050D01*
X72082000Y-120869833D01*
X72082000Y-120430167D01*
X71996226Y-119998950D01*
X71827973Y-119592751D01*
X71583708Y-119227183D01*
X71272817Y-118916292D01*
X70907249Y-118672027D01*
X70501050Y-118503774D01*
X70069833Y-118418000D01*
X69630167Y-118418000D01*
X69198950Y-118503774D01*
X68792751Y-118672027D01*
X68427183Y-118916292D01*
X68116292Y-119227183D01*
X67872027Y-119592751D01*
X67703774Y-119998950D01*
X67662000Y-120208963D01*
X67662000Y-113028397D01*
X69148000Y-113028397D01*
X69148000Y-113171603D01*
X69175938Y-113312058D01*
X69230741Y-113444364D01*
X69310302Y-113563436D01*
X69411564Y-113664698D01*
X69530636Y-113744259D01*
X69662942Y-113799062D01*
X69803397Y-113827000D01*
X69946603Y-113827000D01*
X70087058Y-113799062D01*
X70219364Y-113744259D01*
X70338436Y-113664698D01*
X70426134Y-113577000D01*
X73976585Y-113577000D01*
X74000000Y-113579306D01*
X74023415Y-113577000D01*
X74023423Y-113577000D01*
X74093508Y-113570097D01*
X74183423Y-113542822D01*
X74266289Y-113498529D01*
X74338921Y-113438921D01*
X74353855Y-113420724D01*
X77497579Y-110277000D01*
X77975000Y-110277000D01*
X77999776Y-110274560D01*
X78023601Y-110267333D01*
X78045557Y-110255597D01*
X78064803Y-110239803D01*
X78080597Y-110220557D01*
X78092333Y-110198601D01*
X78099560Y-110174776D01*
X78102000Y-110150000D01*
X78102000Y-109672579D01*
X82172581Y-105601999D01*
X83401586Y-105601999D01*
X83425001Y-105604305D01*
X83448416Y-105601999D01*
X83448424Y-105601999D01*
X83518509Y-105595096D01*
X83608424Y-105567821D01*
X83691290Y-105523528D01*
X83763922Y-105463920D01*
X83778856Y-105445723D01*
X83872579Y-105352000D01*
X83886754Y-105352000D01*
X84007889Y-105327905D01*
X84121996Y-105280640D01*
X84224689Y-105212023D01*
X84312023Y-105124689D01*
X84380640Y-105021996D01*
X84427905Y-104907889D01*
X84452000Y-104786754D01*
X84452000Y-104663246D01*
X84427905Y-104542111D01*
X84380640Y-104428004D01*
X84312023Y-104325311D01*
X84224689Y-104237977D01*
X84121996Y-104169360D01*
X84007889Y-104122095D01*
X83886754Y-104098000D01*
X83763246Y-104098000D01*
X83642111Y-104122095D01*
X83528004Y-104169360D01*
X83425311Y-104237977D01*
X83337977Y-104325311D01*
X83269360Y-104428004D01*
X83222095Y-104542111D01*
X83201033Y-104647999D01*
X81998416Y-104647999D01*
X81975001Y-104645693D01*
X81951586Y-104647999D01*
X81951578Y-104647999D01*
X81881493Y-104654902D01*
X81791578Y-104682177D01*
X81708712Y-104726470D01*
X81688260Y-104743255D01*
X81636080Y-104786078D01*
X81621151Y-104804269D01*
X78102000Y-108323420D01*
X78102000Y-105025000D01*
X78099560Y-105000224D01*
X78092333Y-104976399D01*
X78080597Y-104954443D01*
X78064803Y-104935197D01*
X78045557Y-104919403D01*
X78023601Y-104907667D01*
X77999776Y-104900440D01*
X77975000Y-104898000D01*
X73075000Y-104898000D01*
X73050224Y-104900440D01*
X73026399Y-104907667D01*
X73004443Y-104919403D01*
X72985197Y-104935197D01*
X72969403Y-104954443D01*
X72957667Y-104976399D01*
X72950440Y-105000224D01*
X72948000Y-105025000D01*
X72948000Y-110150000D01*
X72950440Y-110174776D01*
X72957667Y-110198601D01*
X72969403Y-110220557D01*
X72985197Y-110239803D01*
X73004443Y-110255597D01*
X73026399Y-110267333D01*
X73050224Y-110274560D01*
X73075000Y-110277000D01*
X76148421Y-110277000D01*
X73802421Y-112623000D01*
X70426134Y-112623000D01*
X70338436Y-112535302D01*
X70219364Y-112455741D01*
X70087058Y-112400938D01*
X69946603Y-112373000D01*
X69803397Y-112373000D01*
X69662942Y-112400938D01*
X69530636Y-112455741D01*
X69411564Y-112535302D01*
X69310302Y-112636564D01*
X69230741Y-112755636D01*
X69175938Y-112887942D01*
X69148000Y-113028397D01*
X67662000Y-113028397D01*
X67662000Y-103311037D01*
X67703774Y-103521050D01*
X67872027Y-103927249D01*
X68116292Y-104292817D01*
X68427183Y-104603708D01*
X68792751Y-104847973D01*
X69198950Y-105016226D01*
X69630167Y-105102000D01*
X70069833Y-105102000D01*
X70501050Y-105016226D01*
X70907249Y-104847973D01*
X71272817Y-104603708D01*
X71583708Y-104292817D01*
X71827973Y-103927249D01*
X71996226Y-103521050D01*
X72082000Y-103089833D01*
X72082000Y-102650167D01*
X71996226Y-102218950D01*
X71827973Y-101812751D01*
X71583708Y-101447183D01*
X71272817Y-101136292D01*
X70907249Y-100892027D01*
X70501050Y-100723774D01*
X70291037Y-100682000D01*
X83075339Y-100682000D01*
X83069706Y-100685764D01*
G36*
X105929706Y-100685764D02*
G01*
X105765764Y-100849706D01*
X105636956Y-101042481D01*
X105548231Y-101256682D01*
X105503000Y-101484076D01*
X105503000Y-101715924D01*
X105548231Y-101943318D01*
X105636956Y-102157519D01*
X105765764Y-102350294D01*
X105929706Y-102514236D01*
X106122481Y-102643044D01*
X106336682Y-102731769D01*
X106564076Y-102777000D01*
X106795924Y-102777000D01*
X107023318Y-102731769D01*
X107237519Y-102643044D01*
X107430294Y-102514236D01*
X107594236Y-102350294D01*
X107723044Y-102157519D01*
X107811769Y-101943318D01*
X107857000Y-101715924D01*
X107857000Y-101484076D01*
X107811769Y-101256682D01*
X107723044Y-101042481D01*
X107594236Y-100849706D01*
X107430294Y-100685764D01*
X107424661Y-100682000D01*
X108475339Y-100682000D01*
X108469706Y-100685764D01*
X108305764Y-100849706D01*
X108176956Y-101042481D01*
X108088231Y-101256682D01*
X108043000Y-101484076D01*
X108043000Y-101715924D01*
X108088231Y-101943318D01*
X108176956Y-102157519D01*
X108305764Y-102350294D01*
X108469706Y-102514236D01*
X108662481Y-102643044D01*
X108876682Y-102731769D01*
X109104076Y-102777000D01*
X109335924Y-102777000D01*
X109563318Y-102731769D01*
X109777519Y-102643044D01*
X109970294Y-102514236D01*
X110134236Y-102350294D01*
X110263044Y-102157519D01*
X110351769Y-101943318D01*
X110397000Y-101715924D01*
X110397000Y-101484076D01*
X110351769Y-101256682D01*
X110263044Y-101042481D01*
X110134236Y-100849706D01*
X109970294Y-100685764D01*
X109964661Y-100682000D01*
X111015339Y-100682000D01*
X111009706Y-100685764D01*
X110845764Y-100849706D01*
X110716956Y-101042481D01*
X110628231Y-101256682D01*
X110583000Y-101484076D01*
X110583000Y-101715924D01*
X110628231Y-101943318D01*
X110716956Y-102157519D01*
X110845764Y-102350294D01*
X111009706Y-102514236D01*
X111202481Y-102643044D01*
X111416682Y-102731769D01*
X111644076Y-102777000D01*
X111875924Y-102777000D01*
X112103318Y-102731769D01*
X112149332Y-102712709D01*
X113973000Y-102712709D01*
X113973000Y-103027291D01*
X114034372Y-103335828D01*
X114154757Y-103626463D01*
X114329529Y-103888028D01*
X114551972Y-104110471D01*
X114813537Y-104285243D01*
X115104172Y-104405628D01*
X115412709Y-104467000D01*
X115727291Y-104467000D01*
X116035828Y-104405628D01*
X116326463Y-104285243D01*
X116588028Y-104110471D01*
X116810471Y-103888028D01*
X116985243Y-103626463D01*
X117105628Y-103335828D01*
X117167000Y-103027291D01*
X117167000Y-102712709D01*
X117105628Y-102404172D01*
X116985243Y-102113537D01*
X116810471Y-101851972D01*
X116588028Y-101629529D01*
X116326463Y-101454757D01*
X116035828Y-101334372D01*
X115727291Y-101273000D01*
X115412709Y-101273000D01*
X115104172Y-101334372D01*
X114813537Y-101454757D01*
X114551972Y-101629529D01*
X114329529Y-101851972D01*
X114154757Y-102113537D01*
X114034372Y-102404172D01*
X113973000Y-102712709D01*
X112149332Y-102712709D01*
X112317519Y-102643044D01*
X112510294Y-102514236D01*
X112674236Y-102350294D01*
X112803044Y-102157519D01*
X112891769Y-101943318D01*
X112937000Y-101715924D01*
X112937000Y-101484076D01*
X112891769Y-101256682D01*
X112803044Y-101042481D01*
X112674236Y-100849706D01*
X112510294Y-100685764D01*
X112504661Y-100682000D01*
X115552785Y-100682000D01*
X115994654Y-100725326D01*
X116403140Y-100848655D01*
X116779888Y-101048974D01*
X117110550Y-101318657D01*
X117382535Y-101647431D01*
X117585480Y-102022769D01*
X117711657Y-102430381D01*
X117758001Y-102871318D01*
X117758000Y-120632785D01*
X117714674Y-121074659D01*
X117591346Y-121483139D01*
X117391025Y-121859889D01*
X117121346Y-122190548D01*
X116792569Y-122462535D01*
X116417231Y-122665480D01*
X116009621Y-122791657D01*
X115568692Y-122838000D01*
X112504661Y-122838000D01*
X112510294Y-122834236D01*
X112674236Y-122670294D01*
X112803044Y-122477519D01*
X112891769Y-122263318D01*
X112937000Y-122035924D01*
X112937000Y-121804076D01*
X112891769Y-121576682D01*
X112803044Y-121362481D01*
X112674236Y-121169706D01*
X112510294Y-121005764D01*
X112317519Y-120876956D01*
X112103318Y-120788231D01*
X111875924Y-120743000D01*
X111644076Y-120743000D01*
X111416682Y-120788231D01*
X111202481Y-120876956D01*
X111009706Y-121005764D01*
X110845764Y-121169706D01*
X110716956Y-121362481D01*
X110628231Y-121576682D01*
X110583000Y-121804076D01*
X110583000Y-122035924D01*
X110628231Y-122263318D01*
X110716956Y-122477519D01*
X110845764Y-122670294D01*
X111009706Y-122834236D01*
X111015339Y-122838000D01*
X109964661Y-122838000D01*
X109970294Y-122834236D01*
X110134236Y-122670294D01*
X110263044Y-122477519D01*
X110351769Y-122263318D01*
X110397000Y-122035924D01*
X110397000Y-121804076D01*
X110351769Y-121576682D01*
X110263044Y-121362481D01*
X110134236Y-121169706D01*
X109970294Y-121005764D01*
X109777519Y-120876956D01*
X109563318Y-120788231D01*
X109335924Y-120743000D01*
X109104076Y-120743000D01*
X108876682Y-120788231D01*
X108662481Y-120876956D01*
X108469706Y-121005764D01*
X108305764Y-121169706D01*
X108176956Y-121362481D01*
X108088231Y-121576682D01*
X108043000Y-121804076D01*
X108043000Y-122035924D01*
X108088231Y-122263318D01*
X108176956Y-122477519D01*
X108305764Y-122670294D01*
X108469706Y-122834236D01*
X108475339Y-122838000D01*
X107424661Y-122838000D01*
X107430294Y-122834236D01*
X107594236Y-122670294D01*
X107723044Y-122477519D01*
X107811769Y-122263318D01*
X107857000Y-122035924D01*
X107857000Y-121804076D01*
X107811769Y-121576682D01*
X107723044Y-121362481D01*
X107594236Y-121169706D01*
X107430294Y-121005764D01*
X107237519Y-120876956D01*
X107127000Y-120831178D01*
X107127000Y-120492709D01*
X113973000Y-120492709D01*
X113973000Y-120807291D01*
X114034372Y-121115828D01*
X114154757Y-121406463D01*
X114329529Y-121668028D01*
X114551972Y-121890471D01*
X114813537Y-122065243D01*
X115104172Y-122185628D01*
X115412709Y-122247000D01*
X115727291Y-122247000D01*
X116035828Y-122185628D01*
X116326463Y-122065243D01*
X116588028Y-121890471D01*
X116810471Y-121668028D01*
X116985243Y-121406463D01*
X117105628Y-121115828D01*
X117167000Y-120807291D01*
X117167000Y-120492709D01*
X117105628Y-120184172D01*
X116985243Y-119893537D01*
X116810471Y-119631972D01*
X116588028Y-119409529D01*
X116326463Y-119234757D01*
X116035828Y-119114372D01*
X115727291Y-119053000D01*
X115412709Y-119053000D01*
X115104172Y-119114372D01*
X114813537Y-119234757D01*
X114551972Y-119409529D01*
X114329529Y-119631972D01*
X114154757Y-119893537D01*
X114034372Y-120184172D01*
X113973000Y-120492709D01*
X107127000Y-120492709D01*
X107127000Y-119778582D01*
X107200000Y-119778582D01*
X107264103Y-119772268D01*
X107325743Y-119753570D01*
X107350000Y-119740604D01*
X107374257Y-119753570D01*
X107435897Y-119772268D01*
X107500000Y-119778582D01*
X108500000Y-119778582D01*
X108564103Y-119772268D01*
X108625743Y-119753570D01*
X108682550Y-119723206D01*
X108732343Y-119682343D01*
X108773206Y-119632550D01*
X108803570Y-119575743D01*
X108822268Y-119514103D01*
X108828582Y-119450000D01*
X108828582Y-117950000D01*
X108822268Y-117885897D01*
X108803570Y-117824257D01*
X108773206Y-117767450D01*
X108732343Y-117717657D01*
X108682550Y-117676794D01*
X108625743Y-117646430D01*
X108564103Y-117627732D01*
X108500000Y-117621418D01*
X107893047Y-117621418D01*
X107906996Y-117615640D01*
X108009689Y-117547023D01*
X108097023Y-117459689D01*
X108165640Y-117356996D01*
X108212905Y-117242889D01*
X108237000Y-117121754D01*
X108237000Y-116998246D01*
X108212905Y-116877111D01*
X108165640Y-116763004D01*
X108097023Y-116660311D01*
X108009689Y-116572977D01*
X107906996Y-116504360D01*
X107792889Y-116457095D01*
X107671754Y-116433000D01*
X107548246Y-116433000D01*
X107427111Y-116457095D01*
X107313004Y-116504360D01*
X107210311Y-116572977D01*
X107150288Y-116633000D01*
X105095869Y-116633000D01*
X105237106Y-116491763D01*
X105253395Y-116478395D01*
X105266764Y-116462105D01*
X105266767Y-116462102D01*
X105306755Y-116413377D01*
X105345439Y-116341003D01*
X105346405Y-116339196D01*
X105370822Y-116258707D01*
X105377000Y-116195978D01*
X105377000Y-116195958D01*
X105379064Y-116175001D01*
X105377000Y-116154044D01*
X105377000Y-113984712D01*
X105437023Y-113924689D01*
X105505640Y-113821996D01*
X105552905Y-113707889D01*
X105577000Y-113586754D01*
X105577000Y-113463246D01*
X105552905Y-113342111D01*
X105505640Y-113228004D01*
X105437023Y-113125311D01*
X105349689Y-113037977D01*
X105246996Y-112969360D01*
X105132889Y-112922095D01*
X105011754Y-112898000D01*
X104888246Y-112898000D01*
X104767111Y-112922095D01*
X104653004Y-112969360D01*
X104550311Y-113037977D01*
X104462977Y-113125311D01*
X104394360Y-113228004D01*
X104347095Y-113342111D01*
X104323000Y-113463246D01*
X104323000Y-113586754D01*
X104347095Y-113707889D01*
X104394360Y-113821996D01*
X104462977Y-113924689D01*
X104523001Y-113984713D01*
X104523000Y-115998131D01*
X102948132Y-117573000D01*
X102863246Y-117573000D01*
X102742111Y-117597095D01*
X102628004Y-117644360D01*
X102525311Y-117712977D01*
X102437977Y-117800311D01*
X102369360Y-117903004D01*
X102322095Y-118017111D01*
X102298000Y-118138246D01*
X102298000Y-118261754D01*
X102322095Y-118382889D01*
X102369360Y-118496996D01*
X102437977Y-118599689D01*
X102491288Y-118653000D01*
X102219575Y-118653000D01*
X102227905Y-118632889D01*
X102252000Y-118511754D01*
X102252000Y-118388246D01*
X102227905Y-118267111D01*
X102180640Y-118153004D01*
X102112023Y-118050311D01*
X102052000Y-117990288D01*
X102052000Y-112948746D01*
X102144360Y-112887033D01*
X102231694Y-112799699D01*
X102300311Y-112697006D01*
X102347576Y-112582899D01*
X102371671Y-112461764D01*
X102371671Y-112338256D01*
X102347576Y-112217121D01*
X102341313Y-112202000D01*
X103129033Y-112202000D01*
X103150000Y-112204065D01*
X103170967Y-112202000D01*
X103170978Y-112202000D01*
X103233707Y-112195822D01*
X103314196Y-112171405D01*
X103388376Y-112131755D01*
X103453395Y-112078395D01*
X103466768Y-112062100D01*
X104751869Y-110777000D01*
X104836754Y-110777000D01*
X104957889Y-110752905D01*
X105071996Y-110705640D01*
X105174689Y-110637023D01*
X105262023Y-110549689D01*
X105330640Y-110446996D01*
X105377905Y-110332889D01*
X105402000Y-110211754D01*
X105402000Y-110088246D01*
X105377905Y-109967111D01*
X105330640Y-109853004D01*
X105262023Y-109750311D01*
X105174689Y-109662977D01*
X105071996Y-109594360D01*
X104957889Y-109547095D01*
X104836754Y-109523000D01*
X104751869Y-109523000D01*
X103677000Y-108448132D01*
X103677000Y-104909712D01*
X103737023Y-104849689D01*
X103805640Y-104746996D01*
X103852905Y-104632889D01*
X103877000Y-104511754D01*
X103877000Y-104388246D01*
X103852905Y-104267111D01*
X103805640Y-104153004D01*
X103737023Y-104050311D01*
X103649689Y-103962977D01*
X103546996Y-103894360D01*
X103432889Y-103847095D01*
X103311754Y-103823000D01*
X103188246Y-103823000D01*
X103116999Y-103837172D01*
X103116999Y-103226869D01*
X103606769Y-102737100D01*
X103606773Y-102737095D01*
X103666162Y-102677706D01*
X103796682Y-102731769D01*
X104024076Y-102777000D01*
X104255924Y-102777000D01*
X104483318Y-102731769D01*
X104697519Y-102643044D01*
X104890294Y-102514236D01*
X105054236Y-102350294D01*
X105183044Y-102157519D01*
X105271769Y-101943318D01*
X105317000Y-101715924D01*
X105317000Y-101484076D01*
X105271769Y-101256682D01*
X105183044Y-101042481D01*
X105054236Y-100849706D01*
X104890294Y-100685764D01*
X104884661Y-100682000D01*
X105935339Y-100682000D01*
X105929706Y-100685764D01*
G37*
X105929706Y-100685764D02*
X105765764Y-100849706D01*
X105636956Y-101042481D01*
X105548231Y-101256682D01*
X105503000Y-101484076D01*
X105503000Y-101715924D01*
X105548231Y-101943318D01*
X105636956Y-102157519D01*
X105765764Y-102350294D01*
X105929706Y-102514236D01*
X106122481Y-102643044D01*
X106336682Y-102731769D01*
X106564076Y-102777000D01*
X106795924Y-102777000D01*
X107023318Y-102731769D01*
X107237519Y-102643044D01*
X107430294Y-102514236D01*
X107594236Y-102350294D01*
X107723044Y-102157519D01*
X107811769Y-101943318D01*
X107857000Y-101715924D01*
X107857000Y-101484076D01*
X107811769Y-101256682D01*
X107723044Y-101042481D01*
X107594236Y-100849706D01*
X107430294Y-100685764D01*
X107424661Y-100682000D01*
X108475339Y-100682000D01*
X108469706Y-100685764D01*
X108305764Y-100849706D01*
X108176956Y-101042481D01*
X108088231Y-101256682D01*
X108043000Y-101484076D01*
X108043000Y-101715924D01*
X108088231Y-101943318D01*
X108176956Y-102157519D01*
X108305764Y-102350294D01*
X108469706Y-102514236D01*
X108662481Y-102643044D01*
X108876682Y-102731769D01*
X109104076Y-102777000D01*
X109335924Y-102777000D01*
X109563318Y-102731769D01*
X109777519Y-102643044D01*
X109970294Y-102514236D01*
X110134236Y-102350294D01*
X110263044Y-102157519D01*
X110351769Y-101943318D01*
X110397000Y-101715924D01*
X110397000Y-101484076D01*
X110351769Y-101256682D01*
X110263044Y-101042481D01*
X110134236Y-100849706D01*
X109970294Y-100685764D01*
X109964661Y-100682000D01*
X111015339Y-100682000D01*
X111009706Y-100685764D01*
X110845764Y-100849706D01*
X110716956Y-101042481D01*
X110628231Y-101256682D01*
X110583000Y-101484076D01*
X110583000Y-101715924D01*
X110628231Y-101943318D01*
X110716956Y-102157519D01*
X110845764Y-102350294D01*
X111009706Y-102514236D01*
X111202481Y-102643044D01*
X111416682Y-102731769D01*
X111644076Y-102777000D01*
X111875924Y-102777000D01*
X112103318Y-102731769D01*
X112149332Y-102712709D01*
X113973000Y-102712709D01*
X113973000Y-103027291D01*
X114034372Y-103335828D01*
X114154757Y-103626463D01*
X114329529Y-103888028D01*
X114551972Y-104110471D01*
X114813537Y-104285243D01*
X115104172Y-104405628D01*
X115412709Y-104467000D01*
X115727291Y-104467000D01*
X116035828Y-104405628D01*
X116326463Y-104285243D01*
X116588028Y-104110471D01*
X116810471Y-103888028D01*
X116985243Y-103626463D01*
X117105628Y-103335828D01*
X117167000Y-103027291D01*
X117167000Y-102712709D01*
X117105628Y-102404172D01*
X116985243Y-102113537D01*
X116810471Y-101851972D01*
X116588028Y-101629529D01*
X116326463Y-101454757D01*
X116035828Y-101334372D01*
X115727291Y-101273000D01*
X115412709Y-101273000D01*
X115104172Y-101334372D01*
X114813537Y-101454757D01*
X114551972Y-101629529D01*
X114329529Y-101851972D01*
X114154757Y-102113537D01*
X114034372Y-102404172D01*
X113973000Y-102712709D01*
X112149332Y-102712709D01*
X112317519Y-102643044D01*
X112510294Y-102514236D01*
X112674236Y-102350294D01*
X112803044Y-102157519D01*
X112891769Y-101943318D01*
X112937000Y-101715924D01*
X112937000Y-101484076D01*
X112891769Y-101256682D01*
X112803044Y-101042481D01*
X112674236Y-100849706D01*
X112510294Y-100685764D01*
X112504661Y-100682000D01*
X115552785Y-100682000D01*
X115994654Y-100725326D01*
X116403140Y-100848655D01*
X116779888Y-101048974D01*
X117110550Y-101318657D01*
X117382535Y-101647431D01*
X117585480Y-102022769D01*
X117711657Y-102430381D01*
X117758001Y-102871318D01*
X117758000Y-120632785D01*
X117714674Y-121074659D01*
X117591346Y-121483139D01*
X117391025Y-121859889D01*
X117121346Y-122190548D01*
X116792569Y-122462535D01*
X116417231Y-122665480D01*
X116009621Y-122791657D01*
X115568692Y-122838000D01*
X112504661Y-122838000D01*
X112510294Y-122834236D01*
X112674236Y-122670294D01*
X112803044Y-122477519D01*
X112891769Y-122263318D01*
X112937000Y-122035924D01*
X112937000Y-121804076D01*
X112891769Y-121576682D01*
X112803044Y-121362481D01*
X112674236Y-121169706D01*
X112510294Y-121005764D01*
X112317519Y-120876956D01*
X112103318Y-120788231D01*
X111875924Y-120743000D01*
X111644076Y-120743000D01*
X111416682Y-120788231D01*
X111202481Y-120876956D01*
X111009706Y-121005764D01*
X110845764Y-121169706D01*
X110716956Y-121362481D01*
X110628231Y-121576682D01*
X110583000Y-121804076D01*
X110583000Y-122035924D01*
X110628231Y-122263318D01*
X110716956Y-122477519D01*
X110845764Y-122670294D01*
X111009706Y-122834236D01*
X111015339Y-122838000D01*
X109964661Y-122838000D01*
X109970294Y-122834236D01*
X110134236Y-122670294D01*
X110263044Y-122477519D01*
X110351769Y-122263318D01*
X110397000Y-122035924D01*
X110397000Y-121804076D01*
X110351769Y-121576682D01*
X110263044Y-121362481D01*
X110134236Y-121169706D01*
X109970294Y-121005764D01*
X109777519Y-120876956D01*
X109563318Y-120788231D01*
X109335924Y-120743000D01*
X109104076Y-120743000D01*
X108876682Y-120788231D01*
X108662481Y-120876956D01*
X108469706Y-121005764D01*
X108305764Y-121169706D01*
X108176956Y-121362481D01*
X108088231Y-121576682D01*
X108043000Y-121804076D01*
X108043000Y-122035924D01*
X108088231Y-122263318D01*
X108176956Y-122477519D01*
X108305764Y-122670294D01*
X108469706Y-122834236D01*
X108475339Y-122838000D01*
X107424661Y-122838000D01*
X107430294Y-122834236D01*
X107594236Y-122670294D01*
X107723044Y-122477519D01*
X107811769Y-122263318D01*
X107857000Y-122035924D01*
X107857000Y-121804076D01*
X107811769Y-121576682D01*
X107723044Y-121362481D01*
X107594236Y-121169706D01*
X107430294Y-121005764D01*
X107237519Y-120876956D01*
X107127000Y-120831178D01*
X107127000Y-120492709D01*
X113973000Y-120492709D01*
X113973000Y-120807291D01*
X114034372Y-121115828D01*
X114154757Y-121406463D01*
X114329529Y-121668028D01*
X114551972Y-121890471D01*
X114813537Y-122065243D01*
X115104172Y-122185628D01*
X115412709Y-122247000D01*
X115727291Y-122247000D01*
X116035828Y-122185628D01*
X116326463Y-122065243D01*
X116588028Y-121890471D01*
X116810471Y-121668028D01*
X116985243Y-121406463D01*
X117105628Y-121115828D01*
X117167000Y-120807291D01*
X117167000Y-120492709D01*
X117105628Y-120184172D01*
X116985243Y-119893537D01*
X116810471Y-119631972D01*
X116588028Y-119409529D01*
X116326463Y-119234757D01*
X116035828Y-119114372D01*
X115727291Y-119053000D01*
X115412709Y-119053000D01*
X115104172Y-119114372D01*
X114813537Y-119234757D01*
X114551972Y-119409529D01*
X114329529Y-119631972D01*
X114154757Y-119893537D01*
X114034372Y-120184172D01*
X113973000Y-120492709D01*
X107127000Y-120492709D01*
X107127000Y-119778582D01*
X107200000Y-119778582D01*
X107264103Y-119772268D01*
X107325743Y-119753570D01*
X107350000Y-119740604D01*
X107374257Y-119753570D01*
X107435897Y-119772268D01*
X107500000Y-119778582D01*
X108500000Y-119778582D01*
X108564103Y-119772268D01*
X108625743Y-119753570D01*
X108682550Y-119723206D01*
X108732343Y-119682343D01*
X108773206Y-119632550D01*
X108803570Y-119575743D01*
X108822268Y-119514103D01*
X108828582Y-119450000D01*
X108828582Y-117950000D01*
X108822268Y-117885897D01*
X108803570Y-117824257D01*
X108773206Y-117767450D01*
X108732343Y-117717657D01*
X108682550Y-117676794D01*
X108625743Y-117646430D01*
X108564103Y-117627732D01*
X108500000Y-117621418D01*
X107893047Y-117621418D01*
X107906996Y-117615640D01*
X108009689Y-117547023D01*
X108097023Y-117459689D01*
X108165640Y-117356996D01*
X108212905Y-117242889D01*
X108237000Y-117121754D01*
X108237000Y-116998246D01*
X108212905Y-116877111D01*
X108165640Y-116763004D01*
X108097023Y-116660311D01*
X108009689Y-116572977D01*
X107906996Y-116504360D01*
X107792889Y-116457095D01*
X107671754Y-116433000D01*
X107548246Y-116433000D01*
X107427111Y-116457095D01*
X107313004Y-116504360D01*
X107210311Y-116572977D01*
X107150288Y-116633000D01*
X105095869Y-116633000D01*
X105237106Y-116491763D01*
X105253395Y-116478395D01*
X105266764Y-116462105D01*
X105266767Y-116462102D01*
X105306755Y-116413377D01*
X105345439Y-116341003D01*
X105346405Y-116339196D01*
X105370822Y-116258707D01*
X105377000Y-116195978D01*
X105377000Y-116195958D01*
X105379064Y-116175001D01*
X105377000Y-116154044D01*
X105377000Y-113984712D01*
X105437023Y-113924689D01*
X105505640Y-113821996D01*
X105552905Y-113707889D01*
X105577000Y-113586754D01*
X105577000Y-113463246D01*
X105552905Y-113342111D01*
X105505640Y-113228004D01*
X105437023Y-113125311D01*
X105349689Y-113037977D01*
X105246996Y-112969360D01*
X105132889Y-112922095D01*
X105011754Y-112898000D01*
X104888246Y-112898000D01*
X104767111Y-112922095D01*
X104653004Y-112969360D01*
X104550311Y-113037977D01*
X104462977Y-113125311D01*
X104394360Y-113228004D01*
X104347095Y-113342111D01*
X104323000Y-113463246D01*
X104323000Y-113586754D01*
X104347095Y-113707889D01*
X104394360Y-113821996D01*
X104462977Y-113924689D01*
X104523001Y-113984713D01*
X104523000Y-115998131D01*
X102948132Y-117573000D01*
X102863246Y-117573000D01*
X102742111Y-117597095D01*
X102628004Y-117644360D01*
X102525311Y-117712977D01*
X102437977Y-117800311D01*
X102369360Y-117903004D01*
X102322095Y-118017111D01*
X102298000Y-118138246D01*
X102298000Y-118261754D01*
X102322095Y-118382889D01*
X102369360Y-118496996D01*
X102437977Y-118599689D01*
X102491288Y-118653000D01*
X102219575Y-118653000D01*
X102227905Y-118632889D01*
X102252000Y-118511754D01*
X102252000Y-118388246D01*
X102227905Y-118267111D01*
X102180640Y-118153004D01*
X102112023Y-118050311D01*
X102052000Y-117990288D01*
X102052000Y-112948746D01*
X102144360Y-112887033D01*
X102231694Y-112799699D01*
X102300311Y-112697006D01*
X102347576Y-112582899D01*
X102371671Y-112461764D01*
X102371671Y-112338256D01*
X102347576Y-112217121D01*
X102341313Y-112202000D01*
X103129033Y-112202000D01*
X103150000Y-112204065D01*
X103170967Y-112202000D01*
X103170978Y-112202000D01*
X103233707Y-112195822D01*
X103314196Y-112171405D01*
X103388376Y-112131755D01*
X103453395Y-112078395D01*
X103466768Y-112062100D01*
X104751869Y-110777000D01*
X104836754Y-110777000D01*
X104957889Y-110752905D01*
X105071996Y-110705640D01*
X105174689Y-110637023D01*
X105262023Y-110549689D01*
X105330640Y-110446996D01*
X105377905Y-110332889D01*
X105402000Y-110211754D01*
X105402000Y-110088246D01*
X105377905Y-109967111D01*
X105330640Y-109853004D01*
X105262023Y-109750311D01*
X105174689Y-109662977D01*
X105071996Y-109594360D01*
X104957889Y-109547095D01*
X104836754Y-109523000D01*
X104751869Y-109523000D01*
X103677000Y-108448132D01*
X103677000Y-104909712D01*
X103737023Y-104849689D01*
X103805640Y-104746996D01*
X103852905Y-104632889D01*
X103877000Y-104511754D01*
X103877000Y-104388246D01*
X103852905Y-104267111D01*
X103805640Y-104153004D01*
X103737023Y-104050311D01*
X103649689Y-103962977D01*
X103546996Y-103894360D01*
X103432889Y-103847095D01*
X103311754Y-103823000D01*
X103188246Y-103823000D01*
X103116999Y-103837172D01*
X103116999Y-103226869D01*
X103606769Y-102737100D01*
X103606773Y-102737095D01*
X103666162Y-102677706D01*
X103796682Y-102731769D01*
X104024076Y-102777000D01*
X104255924Y-102777000D01*
X104483318Y-102731769D01*
X104697519Y-102643044D01*
X104890294Y-102514236D01*
X105054236Y-102350294D01*
X105183044Y-102157519D01*
X105271769Y-101943318D01*
X105317000Y-101715924D01*
X105317000Y-101484076D01*
X105271769Y-101256682D01*
X105183044Y-101042481D01*
X105054236Y-100849706D01*
X104890294Y-100685764D01*
X104884661Y-100682000D01*
X105935339Y-100682000D01*
X105929706Y-100685764D01*
G36*
X101117671Y-112461764D02*
G01*
X101141766Y-112582899D01*
X101189031Y-112697006D01*
X101198001Y-112710431D01*
X101198000Y-117990288D01*
X101137977Y-118050311D01*
X101069360Y-118153004D01*
X101022095Y-118267111D01*
X100998000Y-118388246D01*
X100998000Y-118511754D01*
X101022095Y-118632889D01*
X101030425Y-118653000D01*
X100711981Y-118653000D01*
X100734111Y-118541744D01*
X100734111Y-118418236D01*
X100710016Y-118297101D01*
X100662751Y-118182994D01*
X100594134Y-118080301D01*
X100534111Y-118020278D01*
X100534111Y-113009757D01*
X101117671Y-112426198D01*
X101117671Y-112461764D01*
G37*
X101117671Y-112461764D02*
X101141766Y-112582899D01*
X101189031Y-112697006D01*
X101198001Y-112710431D01*
X101198000Y-117990288D01*
X101137977Y-118050311D01*
X101069360Y-118153004D01*
X101022095Y-118267111D01*
X100998000Y-118388246D01*
X100998000Y-118511754D01*
X101022095Y-118632889D01*
X101030425Y-118653000D01*
X100711981Y-118653000D01*
X100734111Y-118541744D01*
X100734111Y-118418236D01*
X100710016Y-118297101D01*
X100662751Y-118182994D01*
X100594134Y-118080301D01*
X100534111Y-118020278D01*
X100534111Y-113009757D01*
X101117671Y-112426198D01*
X101117671Y-112461764D01*
G36*
X91300202Y-108923000D02*
G01*
X91300201Y-111038745D01*
X91294313Y-111039916D01*
X91180206Y-111087181D01*
X91077513Y-111155798D01*
X90990179Y-111243132D01*
X90921562Y-111345825D01*
X90874297Y-111459932D01*
X90850202Y-111581067D01*
X90850202Y-111704575D01*
X90874297Y-111825710D01*
X90897040Y-111880616D01*
X90826659Y-111918235D01*
X90777935Y-111958223D01*
X90777931Y-111958227D01*
X90761641Y-111971596D01*
X90748272Y-111987886D01*
X87492943Y-115243216D01*
X87476648Y-115256589D01*
X87463276Y-115272883D01*
X87463275Y-115272884D01*
X87423288Y-115321608D01*
X87403170Y-115359248D01*
X87383638Y-115395789D01*
X87359221Y-115476278D01*
X87354624Y-115522955D01*
X87346999Y-115530580D01*
X87346999Y-112615389D01*
X88987105Y-110975286D01*
X89003394Y-110961918D01*
X89016763Y-110945628D01*
X89016767Y-110945624D01*
X89056754Y-110896900D01*
X89096403Y-110822720D01*
X89096404Y-110822719D01*
X89120821Y-110742230D01*
X89126999Y-110679501D01*
X89126999Y-110679491D01*
X89129064Y-110658524D01*
X89126999Y-110637557D01*
X89126999Y-109115657D01*
X89436078Y-108806579D01*
X89520963Y-108806579D01*
X89642098Y-108782484D01*
X89756205Y-108735219D01*
X89789269Y-108713126D01*
X89850054Y-108804097D01*
X89937388Y-108891431D01*
X90040081Y-108960048D01*
X90154188Y-109007313D01*
X90275323Y-109031408D01*
X90398831Y-109031408D01*
X90519966Y-109007313D01*
X90634073Y-108960048D01*
X90736766Y-108891431D01*
X90824100Y-108804097D01*
X90892717Y-108701404D01*
X90939982Y-108587297D01*
X90944050Y-108566847D01*
X91300202Y-108923000D01*
G37*
X91300202Y-108923000D02*
X91300201Y-111038745D01*
X91294313Y-111039916D01*
X91180206Y-111087181D01*
X91077513Y-111155798D01*
X90990179Y-111243132D01*
X90921562Y-111345825D01*
X90874297Y-111459932D01*
X90850202Y-111581067D01*
X90850202Y-111704575D01*
X90874297Y-111825710D01*
X90897040Y-111880616D01*
X90826659Y-111918235D01*
X90777935Y-111958223D01*
X90777931Y-111958227D01*
X90761641Y-111971596D01*
X90748272Y-111987886D01*
X87492943Y-115243216D01*
X87476648Y-115256589D01*
X87463276Y-115272883D01*
X87463275Y-115272884D01*
X87423288Y-115321608D01*
X87403170Y-115359248D01*
X87383638Y-115395789D01*
X87359221Y-115476278D01*
X87354624Y-115522955D01*
X87346999Y-115530580D01*
X87346999Y-112615389D01*
X88987105Y-110975286D01*
X89003394Y-110961918D01*
X89016763Y-110945628D01*
X89016767Y-110945624D01*
X89056754Y-110896900D01*
X89096403Y-110822720D01*
X89096404Y-110822719D01*
X89120821Y-110742230D01*
X89126999Y-110679501D01*
X89126999Y-110679491D01*
X89129064Y-110658524D01*
X89126999Y-110637557D01*
X89126999Y-109115657D01*
X89436078Y-108806579D01*
X89520963Y-108806579D01*
X89642098Y-108782484D01*
X89756205Y-108735219D01*
X89789269Y-108713126D01*
X89850054Y-108804097D01*
X89937388Y-108891431D01*
X90040081Y-108960048D01*
X90154188Y-109007313D01*
X90275323Y-109031408D01*
X90398831Y-109031408D01*
X90519966Y-109007313D01*
X90634073Y-108960048D01*
X90736766Y-108891431D01*
X90824100Y-108804097D01*
X90892717Y-108701404D01*
X90939982Y-108587297D01*
X90944050Y-108566847D01*
X91300202Y-108923000D01*
G36*
X92248000Y-114771418D02*
G01*
X92175000Y-114771418D01*
X92110897Y-114777732D01*
X92049257Y-114796430D01*
X92025000Y-114809396D01*
X92000743Y-114796430D01*
X91939103Y-114777732D01*
X91875000Y-114771418D01*
X90956450Y-114771418D01*
X92248001Y-113479867D01*
X92248000Y-114771418D01*
G37*
X92248000Y-114771418D02*
X92175000Y-114771418D01*
X92110897Y-114777732D01*
X92049257Y-114796430D01*
X92025000Y-114809396D01*
X92000743Y-114796430D01*
X91939103Y-114777732D01*
X91875000Y-114771418D01*
X90956450Y-114771418D01*
X92248001Y-113479867D01*
X92248000Y-114771418D01*
G36*
X89690003Y-104259064D02*
G01*
X89693108Y-104258758D01*
X87112861Y-106839006D01*
X87096572Y-106852375D01*
X87083203Y-106868665D01*
X87083198Y-106868670D01*
X87043211Y-106917394D01*
X87020051Y-106960725D01*
X87003562Y-106991574D01*
X86986657Y-107047302D01*
X86979145Y-107072064D01*
X86970901Y-107155770D01*
X86972967Y-107176747D01*
X86972966Y-109943165D01*
X84726989Y-112189143D01*
X84726989Y-112128246D01*
X84702894Y-112007111D01*
X84655629Y-111893004D01*
X84587012Y-111790311D01*
X84526989Y-111730288D01*
X84526989Y-108510333D01*
X88780324Y-104256999D01*
X89669036Y-104256999D01*
X89690003Y-104259064D01*
G37*
X89690003Y-104259064D02*
X89693108Y-104258758D01*
X87112861Y-106839006D01*
X87096572Y-106852375D01*
X87083203Y-106868665D01*
X87083198Y-106868670D01*
X87043211Y-106917394D01*
X87020051Y-106960725D01*
X87003562Y-106991574D01*
X86986657Y-107047302D01*
X86979145Y-107072064D01*
X86970901Y-107155770D01*
X86972967Y-107176747D01*
X86972966Y-109943165D01*
X84726989Y-112189143D01*
X84726989Y-112128246D01*
X84702894Y-112007111D01*
X84655629Y-111893004D01*
X84587012Y-111790311D01*
X84526989Y-111730288D01*
X84526989Y-108510333D01*
X88780324Y-104256999D01*
X89669036Y-104256999D01*
X89690003Y-104259064D01*
G36*
X100849706Y-100685764D02*
G01*
X100685764Y-100849706D01*
X100556956Y-101042481D01*
X100468231Y-101256682D01*
X100423000Y-101484076D01*
X100423000Y-101715924D01*
X100468231Y-101943318D01*
X100522294Y-102073838D01*
X100462896Y-102133236D01*
X100446607Y-102146604D01*
X100433238Y-102162894D01*
X100433233Y-102162899D01*
X100393246Y-102211623D01*
X100353597Y-102285803D01*
X100329180Y-102366292D01*
X100324777Y-102410995D01*
X100320936Y-102449999D01*
X100323002Y-102470976D01*
X100323001Y-106439054D01*
X100320936Y-106460021D01*
X100323001Y-106480988D01*
X100323001Y-106480998D01*
X100329179Y-106543727D01*
X100353596Y-106624216D01*
X100353597Y-106624217D01*
X100393246Y-106698397D01*
X100423243Y-106734948D01*
X100446606Y-106763416D01*
X100462901Y-106776789D01*
X100548022Y-106861910D01*
X100548021Y-109663809D01*
X100138821Y-110073011D01*
X95654858Y-110073011D01*
X96248436Y-109479432D01*
X96250440Y-109499776D01*
X96257667Y-109523601D01*
X96269403Y-109545557D01*
X96285197Y-109564803D01*
X96304443Y-109580597D01*
X96326399Y-109592333D01*
X96350224Y-109599560D01*
X96375000Y-109602000D01*
X100275000Y-109602000D01*
X100299776Y-109599560D01*
X100323601Y-109592333D01*
X100345557Y-109580597D01*
X100364803Y-109564803D01*
X100380597Y-109545557D01*
X100392333Y-109523601D01*
X100399560Y-109499776D01*
X100402000Y-109475000D01*
X100402000Y-106975000D01*
X100399560Y-106950224D01*
X100392333Y-106926399D01*
X100380597Y-106904443D01*
X100364803Y-106885197D01*
X100345557Y-106869403D01*
X100323601Y-106857667D01*
X100299776Y-106850440D01*
X100275000Y-106848000D01*
X100135233Y-106848000D01*
X100138582Y-106814000D01*
X100138582Y-105814000D01*
X100132268Y-105749897D01*
X100113570Y-105688257D01*
X100100604Y-105664000D01*
X100113570Y-105639743D01*
X100132268Y-105578103D01*
X100138582Y-105514000D01*
X100138582Y-104514000D01*
X100132268Y-104449897D01*
X100113570Y-104388257D01*
X100083206Y-104331450D01*
X100042343Y-104281657D01*
X99992550Y-104240794D01*
X99935743Y-104210430D01*
X99874103Y-104191732D01*
X99810000Y-104185418D01*
X99487000Y-104185418D01*
X99487000Y-102697107D01*
X99617519Y-102643044D01*
X99810294Y-102514236D01*
X99974236Y-102350294D01*
X100103044Y-102157519D01*
X100191769Y-101943318D01*
X100237000Y-101715924D01*
X100237000Y-101484076D01*
X100191769Y-101256682D01*
X100103044Y-101042481D01*
X99974236Y-100849706D01*
X99810294Y-100685764D01*
X99804661Y-100682000D01*
X100855339Y-100682000D01*
X100849706Y-100685764D01*
G37*
X100849706Y-100685764D02*
X100685764Y-100849706D01*
X100556956Y-101042481D01*
X100468231Y-101256682D01*
X100423000Y-101484076D01*
X100423000Y-101715924D01*
X100468231Y-101943318D01*
X100522294Y-102073838D01*
X100462896Y-102133236D01*
X100446607Y-102146604D01*
X100433238Y-102162894D01*
X100433233Y-102162899D01*
X100393246Y-102211623D01*
X100353597Y-102285803D01*
X100329180Y-102366292D01*
X100324777Y-102410995D01*
X100320936Y-102449999D01*
X100323002Y-102470976D01*
X100323001Y-106439054D01*
X100320936Y-106460021D01*
X100323001Y-106480988D01*
X100323001Y-106480998D01*
X100329179Y-106543727D01*
X100353596Y-106624216D01*
X100353597Y-106624217D01*
X100393246Y-106698397D01*
X100423243Y-106734948D01*
X100446606Y-106763416D01*
X100462901Y-106776789D01*
X100548022Y-106861910D01*
X100548021Y-109663809D01*
X100138821Y-110073011D01*
X95654858Y-110073011D01*
X96248436Y-109479432D01*
X96250440Y-109499776D01*
X96257667Y-109523601D01*
X96269403Y-109545557D01*
X96285197Y-109564803D01*
X96304443Y-109580597D01*
X96326399Y-109592333D01*
X96350224Y-109599560D01*
X96375000Y-109602000D01*
X100275000Y-109602000D01*
X100299776Y-109599560D01*
X100323601Y-109592333D01*
X100345557Y-109580597D01*
X100364803Y-109564803D01*
X100380597Y-109545557D01*
X100392333Y-109523601D01*
X100399560Y-109499776D01*
X100402000Y-109475000D01*
X100402000Y-106975000D01*
X100399560Y-106950224D01*
X100392333Y-106926399D01*
X100380597Y-106904443D01*
X100364803Y-106885197D01*
X100345557Y-106869403D01*
X100323601Y-106857667D01*
X100299776Y-106850440D01*
X100275000Y-106848000D01*
X100135233Y-106848000D01*
X100138582Y-106814000D01*
X100138582Y-105814000D01*
X100132268Y-105749897D01*
X100113570Y-105688257D01*
X100100604Y-105664000D01*
X100113570Y-105639743D01*
X100132268Y-105578103D01*
X100138582Y-105514000D01*
X100138582Y-104514000D01*
X100132268Y-104449897D01*
X100113570Y-104388257D01*
X100083206Y-104331450D01*
X100042343Y-104281657D01*
X99992550Y-104240794D01*
X99935743Y-104210430D01*
X99874103Y-104191732D01*
X99810000Y-104185418D01*
X99487000Y-104185418D01*
X99487000Y-102697107D01*
X99617519Y-102643044D01*
X99810294Y-102514236D01*
X99974236Y-102350294D01*
X100103044Y-102157519D01*
X100191769Y-101943318D01*
X100237000Y-101715924D01*
X100237000Y-101484076D01*
X100191769Y-101256682D01*
X100103044Y-101042481D01*
X99974236Y-100849706D01*
X99810294Y-100685764D01*
X99804661Y-100682000D01*
X100855339Y-100682000D01*
X100849706Y-100685764D01*
M02*
